<?xml version="1.0" encoding="UTF-8" standalone="no"?>
<!-- Created with Inkscape (http://www.inkscape.org/) -->

<svg
   xmlns:dc="http://purl.org/dc/elements/1.1/"
   xmlns:cc="http://creativecommons.org/ns#"
   xmlns:rdf="http://www.w3.org/1999/02/22-rdf-syntax-ns#"
   xmlns:svg="http://www.w3.org/2000/svg"
   xmlns="http://www.w3.org/2000/svg"
   xmlns:sodipodi="http://sodipodi.sourceforge.net/DTD/sodipodi-0.dtd"
   xmlns:inkscape="http://www.inkscape.org/namespaces/inkscape"
   width="128"
   height="128"
   viewBox="0 0 33.866667 33.866667"
   version="1.1"
   id="svg2634"
   inkscape:version="0.92.4 (unknown)"
   sodipodi:docname="network-workgroup.svg">
  <title
     id="title3250">Boston Icons</title>
  <defs
     id="defs2628" />
  <sodipodi:namedview
     id="base"
     pagecolor="#ffffff"
     bordercolor="#00ffed"
     borderopacity="1"
     inkscape:pageopacity="1"
     inkscape:pageshadow="2"
     inkscape:zoom="0.5"
     inkscape:cx="37.442655"
     inkscape:cy="56.815455"
     inkscape:document-units="px"
     inkscape:current-layer="g924"
     showgrid="false"
     showguides="false"
     inkscape:guide-bbox="true"
     fit-margin-top="0"
     fit-margin-left="0"
     fit-margin-right="0"
     fit-margin-bottom="0"
     inkscape:window-width="1308"
     inkscape:window-height="704"
     inkscape:window-x="58"
     inkscape:window-y="27"
     inkscape:window-maximized="1"
     units="px">
    <inkscape:grid
       type="xygrid"
       id="grid3182"
       spacingx="0.52916667"
       spacingy="0.52916667"
       empspacing="4"
       originx="-82.550004"
       originy="-127.00001"
       dotted="false" />
    <sodipodi:guide
       position="-4.268358e-06,27.516666"
       orientation="1,0"
       id="guide3216"
       inkscape:locked="false" />
    <sodipodi:guide
       position="3.7041618,33.866666"
       orientation="0,1"
       id="guide3218"
       inkscape:locked="false" />
    <sodipodi:guide
       position="33.866657,24.870836"
       orientation="1,0"
       id="guide3220"
       inkscape:locked="false" />
    <sodipodi:guide
       position="32.279157,-4.1479283e-06"
       orientation="0,1"
       id="guide3222"
       inkscape:locked="false" />
    <sodipodi:guide
       position="15.345829,32.808336"
       orientation="0,1"
       id="guide3224"
       inkscape:locked="false" />
    <sodipodi:guide
       position="-4.7625023,1.0583259"
       orientation="0,1"
       id="guide3226"
       inkscape:locked="false" />
    <sodipodi:guide
       position="1.0583287,17.462496"
       orientation="1,0"
       id="guide3228"
       inkscape:locked="false" />
    <sodipodi:guide
       position="32.808327,20.108336"
       orientation="1,0"
       id="guide3230"
       inkscape:locked="false" />
    <sodipodi:guide
       position="8.4666632,5.8208242"
       orientation="1,0"
       id="guide851"
       inkscape:locked="false" />
    <sodipodi:guide
       position="25.399997,6.8791575"
       orientation="1,0"
       id="guide855"
       inkscape:locked="false" />
    <sodipodi:guide
       position="-1.0583368,16.933324"
       orientation="0,1"
       id="guide852"
       inkscape:locked="false" />
  </sodipodi:namedview>
  <metadata
     id="metadata2631">
    <rdf:RDF>
      <cc:Work
         rdf:about="">
        <dc:format>image/svg+xml</dc:format>
        <dc:type
           rdf:resource="http://purl.org/dc/dcmitype/StillImage" />
        <dc:title>Boston Icons</dc:title>
        <cc:license
           rdf:resource="dribbble.com/chrisdiaz" />
        <dc:creator>
          <cc:Agent>
            <dc:title>Christian Díaz</dc:title>
          </cc:Agent>
        </dc:creator>
        <dc:date>2019</dc:date>
        <dc:publisher>
          <cc:Agent>
            <dc:title>Christian Díaz</dc:title>
          </cc:Agent>
        </dc:publisher>
        <dc:identifier>christiandiaz.design [at] gmail [dot] com</dc:identifier>
        <dc:subject>
          <rdf:Bag>
            <rdf:li>GNOME icon Theme</rdf:li>
          </rdf:Bag>
        </dc:subject>
        <dc:description>diazchris.deviantart.com | dribbble.com/chrisdiaz</dc:description>
      </cc:Work>
    </rdf:RDF>
  </metadata>
  <g
     inkscape:label="Capa 1"
     inkscape:groupmode="layer"
     id="layer1"
     transform="translate(-82.550003,-136.13333)">
    <g
       id="g862">
      <path
         sodipodi:nodetypes="cccccccccccccccc"
         inkscape:connector-curvature="0"
         id="rect1075"
         d="m 98.609266,149.85386 v 3.33092 h -6.11849 -0.87407 -0.87407 v 3.33092 h 1.74814 v -1.99855 h 13.985114 v 1.99855 h 1.74815 v -3.33092 h -1.31111 -6.55552 v -3.33092 z"
         style="opacity:1;fill:#616161;fill-opacity:1;fill-rule:evenodd;stroke:none;stroke-width:1.52615988;stroke-linecap:round;stroke-linejoin:bevel;stroke-miterlimit:4;stroke-dasharray:none;stroke-opacity:1" />
      <g
         transform="matrix(0.40093687,0,0,0.40093687,92.972245,-272.26955)"
         id="layer1-3"
         inkscape:label="Layer 1"
         style="stroke:#000000;stroke-opacity:1;stroke-width:0.14188123;stroke-miterlimit:4;stroke-dasharray:none">
        <path
           sodipodi:nodetypes="ssssccccssssccccsssss"
           inkscape:connector-curvature="0"
           style="opacity:1;fill:#616161;fill-opacity:1;stroke:#616161;stroke-width:1.85765428;stroke-linecap:round;stroke-linejoin:round;stroke-miterlimit:4;stroke-dasharray:none;stroke-opacity:1"
           d="m 2.9999999,1025.3622 c -1.1080096,0 -2,0.892 -2,2 v 16 c 0,1.108 0.8919904,2 2,2 H 13 v 3.0165 H 8.9999999 v 1 0.076 c 0,1.0654 0.8584343,0.9073 1.9238281,0.9073 h 10.152344 c 1.065394,0 1.923828,0.1581 1.923828,-0.9073 v -0.076 -1 h -4 v -3.0165 h 10 c 1.10801,0 2,-0.892 2,-2 v -16 c 0,-1.108 -0.89199,-2 -2,-2 z"
           id="rect4582" />
        <rect
           style="opacity:1;fill:#29b6f6;fill-opacity:1;stroke:none;stroke-width:0.14188123;stroke-linecap:round;stroke-linejoin:round;stroke-miterlimit:4;stroke-dasharray:none;stroke-opacity:1"
           id="rect4158"
           width="28"
           height="18"
           x="1.9999999"
           y="1026.3622"
           ry="1.0000174" />
        <path
           id="path902"
           d="m 2.9999999,1025.3622 c -1.1080096,0 -2,0.892 -2,2 v 16 c 0,1.108 0.8919904,2 2,2 H 13 v 3.0165 H 8.9999999 v 1 0.076 c 0,1.0654 0.8584343,0.9073 1.9238281,0.9073 h 10.152344 c 1.065394,0 1.923828,0.1581 1.923828,-0.9073 v -0.076 -1 h -4 v -3.0165 h 10 c 1.10801,0 2,-0.892 2,-2 v -16 c 0,-1.108 -0.89199,-2 -2,-2 z"
           style="opacity:1;fill:#616161;fill-opacity:1;stroke:#616161;stroke-width:1.85765428;stroke-linecap:round;stroke-linejoin:round;stroke-miterlimit:4;stroke-dasharray:none;stroke-opacity:1"
           inkscape:connector-curvature="0"
           sodipodi:nodetypes="ssssccccssssccccsssss" />
        <rect
           ry="1.0000174"
           y="1026.3622"
           x="1.9999999"
           height="18"
           width="28"
           id="rect904"
           style="opacity:1;fill:#a5db12;fill-opacity:1;stroke:none;stroke-width:0.14188123;stroke-linecap:round;stroke-linejoin:round;stroke-miterlimit:4;stroke-dasharray:none;stroke-opacity:1" />
      </g>
      <g
         style="stroke:#000000;stroke-width:0.14188123;stroke-miterlimit:4;stroke-dasharray:none;stroke-opacity:1"
         inkscape:label="Layer 1"
         id="g914"
         transform="matrix(0.40093687,0,0,0.40093687,102.80106,-253.67728)">
        <path
           id="path906"
           d="m 2.9999999,1025.3622 c -1.1080096,0 -2,0.892 -2,2 v 16 c 0,1.108 0.8919904,2 2,2 H 13 v 3.0165 H 8.9999999 v 1 0.076 c 0,1.0654 0.8584343,0.9073 1.9238281,0.9073 h 10.152344 c 1.065394,0 1.923828,0.1581 1.923828,-0.9073 v -0.076 -1 h -4 v -3.0165 h 10 c 1.10801,0 2,-0.892 2,-2 v -16 c 0,-1.108 -0.89199,-2 -2,-2 z"
           style="opacity:1;fill:#616161;fill-opacity:1;stroke:#616161;stroke-width:1.85765433;stroke-linecap:round;stroke-linejoin:round;stroke-miterlimit:4;stroke-dasharray:none;stroke-opacity:1"
           inkscape:connector-curvature="0"
           sodipodi:nodetypes="ssssccccssssccccsssss" />
        <rect
           ry="1.0000174"
           y="1026.3622"
           x="1.9999999"
           height="18"
           width="28"
           id="rect908"
           style="opacity:1;fill:#29b6f6;fill-opacity:1;stroke:none;stroke-width:0.14188123;stroke-linecap:round;stroke-linejoin:round;stroke-miterlimit:4;stroke-dasharray:none;stroke-opacity:1" />
        <path
           sodipodi:nodetypes="ssssccccssssccccsssss"
           inkscape:connector-curvature="0"
           style="opacity:1;fill:#616161;fill-opacity:1;stroke:#616161;stroke-width:1.85765433;stroke-linecap:round;stroke-linejoin:round;stroke-miterlimit:4;stroke-dasharray:none;stroke-opacity:1"
           d="m 2.9999999,1025.3622 c -1.1080096,0 -2,0.892 -2,2 v 16 c 0,1.108 0.8919904,2 2,2 H 13 v 3.0165 H 8.9999999 v 1 0.076 c 0,1.0654 0.8584343,0.9073 1.9238281,0.9073 h 10.152344 c 1.065394,0 1.923828,0.1581 1.923828,-0.9073 v -0.076 -1 h -4 v -3.0165 h 10 c 1.10801,0 2,-0.892 2,-2 v -16 c 0,-1.108 -0.89199,-2 -2,-2 z"
           id="path910" />
        <rect
           style="opacity:1;fill:#1da5f4;fill-opacity:1;stroke:none;stroke-width:0.14188123;stroke-linecap:round;stroke-linejoin:round;stroke-miterlimit:4;stroke-dasharray:none;stroke-opacity:1"
           id="rect912"
           width="28"
           height="18"
           x="1.9999999"
           y="1026.3622"
           ry="1.0000174" />
      </g>
      <g
         transform="matrix(0.40093687,0,0,0.40093687,83.751061,-253.67728)"
         id="g924"
         inkscape:label="Layer 1"
         style="stroke:#000000;stroke-width:0.14188123;stroke-miterlimit:4;stroke-dasharray:none;stroke-opacity:1">
        <path
           sodipodi:nodetypes="ssssccccssssccccsssss"
           inkscape:connector-curvature="0"
           style="opacity:1;fill:#616161;fill-opacity:1;stroke:#616161;stroke-width:1.85765433;stroke-linecap:round;stroke-linejoin:round;stroke-miterlimit:4;stroke-dasharray:none;stroke-opacity:1"
           d="m 2.9999999,1025.3622 c -1.1080096,0 -2,0.892 -2,2 v 16 c 0,1.108 0.8919904,2 2,2 H 13 v 3.0165 H 8.9999999 v 1 0.076 c 0,1.0654 0.8584343,0.9073 1.9238281,0.9073 h 10.152344 c 1.065394,0 1.923828,0.1581 1.923828,-0.9073 v -0.076 -1 h -4 v -3.0165 h 10 c 1.10801,0 2,-0.892 2,-2 v -16 c 0,-1.108 -0.89199,-2 -2,-2 z"
           id="path916" />
        <rect
           style="opacity:1;fill:#29b6f6;fill-opacity:1;stroke:none;stroke-width:0.14188123;stroke-linecap:round;stroke-linejoin:round;stroke-miterlimit:4;stroke-dasharray:none;stroke-opacity:1"
           id="rect918"
           width="28"
           height="18"
           x="1.9999999"
           y="1026.3622"
           ry="1.0000174" />
        <path
           id="path920"
           d="m 2.9999999,1025.3622 c -1.1080096,0 -2,0.892 -2,2 v 16 c 0,1.108 0.8919904,2 2,2 H 13 v 3.0165 H 8.9999999 v 1 0.076 c 0,1.0654 0.8584343,0.9073 1.9238281,0.9073 h 10.152344 c 1.065394,0 1.923828,0.1581 1.923828,-0.9073 v -0.076 -1 h -4 v -3.0165 h 10 c 1.10801,0 2,-0.892 2,-2 v -16 c 0,-1.108 -0.89199,-2 -2,-2 z"
           style="opacity:1;fill:#616161;fill-opacity:1;stroke:#616161;stroke-width:1.85765433;stroke-linecap:round;stroke-linejoin:round;stroke-miterlimit:4;stroke-dasharray:none;stroke-opacity:1"
           inkscape:connector-curvature="0"
           sodipodi:nodetypes="ssssccccssssccccsssss" />
        <rect
           ry="1.0000174"
           y="1026.3622"
           x="1.9999999"
           height="18"
           width="28"
           id="rect922"
           style="opacity:1;fill:#e9afaf;fill-opacity:1;stroke:none;stroke-width:0.14188123;stroke-linecap:round;stroke-linejoin:round;stroke-miterlimit:4;stroke-dasharray:none;stroke-opacity:1" />
      </g>
    </g>
  </g>
</svg>
