<?xml version="1.0" encoding="UTF-8" standalone="no"?>
<!-- Created with Inkscape (http://www.inkscape.org/) -->

<svg
   xmlns:dc="http://purl.org/dc/elements/1.1/"
   xmlns:cc="http://creativecommons.org/ns#"
   xmlns:rdf="http://www.w3.org/1999/02/22-rdf-syntax-ns#"
   xmlns:svg="http://www.w3.org/2000/svg"
   xmlns="http://www.w3.org/2000/svg"
   xmlns:xlink="http://www.w3.org/1999/xlink"
   xmlns:sodipodi="http://sodipodi.sourceforge.net/DTD/sodipodi-0.dtd"
   xmlns:inkscape="http://www.inkscape.org/namespaces/inkscape"
   width="16"
   height="16"
   id="svg4159"
   version="1.1"
   inkscape:version="0.92.4 (unknown)"
   viewBox="0 0 16 16"
   sodipodi:docname="user-trash-full-symbolic.svg"
   inkscape:export-filename="/home/rizvan/.icons/Rubik/symbolic/places/user-trash-symbolic.png"
   inkscape:export-xdpi="96"
   inkscape:export-ydpi="96">
  <title
     id="title815">Boston Icons</title>
  <defs
     id="defs4161">
    <inkscape:perspective
       sodipodi:type="inkscape:persp3d"
       inkscape:vp_x="0 : 8 : 1"
       inkscape:vp_y="0 : 1000 : 0"
       inkscape:vp_z="16 : 8 : 1"
       inkscape:persp3d-origin="8 : 5.3333333 : 1"
       id="perspective4709" />
    <linearGradient
       inkscape:collect="always"
       xlink:href="#linearGradient15413"
       id="linearGradient5698"
       x1="61.263226"
       y1="153.36037"
       x2="92.7201"
       y2="153.36037"
       gradientUnits="userSpaceOnUse"
       gradientTransform="matrix(0.16541628,0,0,0.16541628,70.016207,140.0116)" />
    <linearGradient
       id="linearGradient15413"
       inkscape:collect="always">
      <stop
         id="stop15409"
         offset="0"
         style="stop-color:#ffffff;stop-opacity:1" />
      <stop
         id="stop15411"
         offset="1"
         style="stop-color:#ecf6ff;stop-opacity:1" />
    </linearGradient>
  </defs>
  <sodipodi:namedview
     id="base"
     pagecolor="#ffffff"
     bordercolor="#00fff6"
     borderopacity="1"
     inkscape:pageopacity="1"
     inkscape:pageshadow="2"
     inkscape:zoom="5.6568543"
     inkscape:cx="10.332405"
     inkscape:cy="4.5697663"
     inkscape:current-layer="layer1"
     showgrid="false"
     inkscape:grid-bbox="true"
     inkscape:document-units="px"
     inkscape:window-width="782"
     inkscape:window-height="473"
     inkscape:window-x="434"
     inkscape:window-y="168"
     inkscape:window-maximized="0"
     showguides="true"
     inkscape:guide-bbox="true"
     inkscape:snap-bbox="true"
     inkscape:bbox-nodes="true"
     inkscape:bbox-paths="true"
     inkscape:snap-bbox-midpoints="true"
     inkscape:snap-bbox-edge-midpoints="true">
    <inkscape:grid
       type="xygrid"
       id="grid4707" />
  </sodipodi:namedview>
  <metadata
     id="metadata4164">
    <rdf:RDF>
      <cc:Work
         rdf:about="">
        <dc:format>image/svg+xml</dc:format>
        <dc:type
           rdf:resource="http://purl.org/dc/dcmitype/StillImage" />
        <dc:title>Boston Icons</dc:title>
        <cc:license
           rdf:resource="https://dribbble.com/chrisdiaz" />
        <dc:creator>
          <cc:Agent>
            <dc:title>Christian Díaz</dc:title>
          </cc:Agent>
        </dc:creator>
        <dc:description>diazchris.deviantart.com | dribbble.com/chrisdiaz</dc:description>
        <dc:date>2019</dc:date>
        <dc:publisher>
          <cc:Agent>
            <dc:title>Christian Díaz</dc:title>
          </cc:Agent>
        </dc:publisher>
        <dc:identifier>christiandiaz.design [at] gmail [dot] com</dc:identifier>
        <dc:subject>
          <rdf:Bag>
            <rdf:li>GNOME icon Theme</rdf:li>
          </rdf:Bag>
        </dc:subject>
      </cc:Work>
    </rdf:RDF>
  </metadata>
  <g
     id="layer1"
     inkscape:label="Layer 1"
     inkscape:groupmode="layer">
    <g
       id="g6"
       transform="matrix(0.05098594,0,0,0.05098594,-2.3103192,-1.0802398)"
       style="fill:#ff0000;stroke:#ff0000">
      <path
         style="fill:#ff0000;stroke:#ff0000"
         d="m 311.798,310.627 c -1.324,13.44 -13.456,24.436 -26.959,24.436 H 119.475 c -13.504,0 -25.636,-10.996 -26.958,-24.436 L 66.427,45.687 C 65.104,32.248 75.071,21.251 88.575,21.251 H 315.74 c 13.504,0 23.471,10.996 22.147,24.436 z"
         id="path2"
         inkscape:connector-curvature="0" />
      <path
         style="fill:#ff0000;stroke:#ff0000"
         d="m 328.874,21.252 c 15.155,0 27.44,12.286 27.44,27.44 0,15.155 -12.286,27.44 -27.44,27.44 H 75.44 C 60.286,76.133 48,63.848 48,48.692 48,33.538 60.286,21.252 75.44,21.252 Z"
         id="path4"
         inkscape:connector-curvature="0" />
    </g>
    <g
       id="g20"
       transform="matrix(0.05098594,0,0,0.05098594,0.13701004,-1.0802398)"
       style="fill:#ffff00">
      <polygon
         style="fill:#ffff00"
         points="173.721,174.708 162.359,181.268 194.738,185.39 207.358,155.287 195.753,161.987 171.69,120.309 171.69,120.31 136.71,120.311 136.709,120.31 115.863,156.419 131.551,154.423 137.94,169.661 154.373,141.198 "
         id="polygon14" />
      <polygon
         style="fill:#ffff00"
         points="125.84,190.036 137.201,196.596 124.581,166.494 92.202,170.615 103.807,177.315 79.743,218.995 79.746,218.993 97.236,249.286 97.236,249.287 138.929,249.287 129.356,236.699 139.36,223.546 106.493,223.546 "
         id="polygon16" />
      <polygon
         style="fill:#ffff00"
         points="162.956,223.684 162.956,210.563 143.198,236.544 162.957,262.524 162.956,249.125 211.084,249.125 211.08,249.123 228.57,218.829 228.571,218.829 207.725,182.722 201.609,197.307 185.217,195.22 201.65,223.684 "
         id="polygon18" />
    </g>
  </g>
</svg>
