<?xml version="1.0" encoding="UTF-8" standalone="no"?>
<!-- Created with Inkscape (http://www.inkscape.org/) -->

<svg
   xmlns:dc="http://purl.org/dc/elements/1.1/"
   xmlns:cc="http://creativecommons.org/ns#"
   xmlns:rdf="http://www.w3.org/1999/02/22-rdf-syntax-ns#"
   xmlns:svg="http://www.w3.org/2000/svg"
   xmlns="http://www.w3.org/2000/svg"
   xmlns:xlink="http://www.w3.org/1999/xlink"
   xmlns:sodipodi="http://sodipodi.sourceforge.net/DTD/sodipodi-0.dtd"
   xmlns:inkscape="http://www.inkscape.org/namespaces/inkscape"
   width="16"
   height="16"
   id="svg4159"
   version="1.1"
   inkscape:version="0.92.4 (unknown)"
   viewBox="0 0 16 16"
   sodipodi:docname="application-vnd.oasis.opendocument.formula-template.svg"
   inkscape:export-filename="/home/rizvan/.icons/Rubik/symbolic/places/folder-documents-symbolic.png"
   inkscape:export-xdpi="96"
   inkscape:export-ydpi="96">
  <title
     id="title4518">Boston Icons</title>
  <defs
     id="defs4161">
    <inkscape:path-effect
       only_selected="false"
       apply_with_weight="true"
       apply_no_weight="true"
       helper_size="0"
       steps="2"
       weight="33.333333"
       is_visible="true"
       id="path-effect2061"
       effect="bspline" />
    <inkscape:path-effect
       effect="bspline"
       id="path-effect2057"
       is_visible="true"
       weight="33.333333"
       steps="2"
       helper_size="0"
       apply_no_weight="true"
       apply_with_weight="true"
       only_selected="false" />
    <inkscape:path-effect
       only_selected="false"
       apply_with_weight="true"
       apply_no_weight="true"
       helper_size="0"
       steps="2"
       weight="33.333333"
       is_visible="true"
       id="path-effect2053"
       effect="bspline" />
    <inkscape:path-effect
       effect="bspline"
       id="path-effect2049"
       is_visible="true"
       weight="33.333333"
       steps="2"
       helper_size="0"
       apply_no_weight="true"
       apply_with_weight="true"
       only_selected="false" />
    <inkscape:path-effect
       only_selected="false"
       apply_with_weight="true"
       apply_no_weight="true"
       helper_size="0"
       steps="2"
       weight="33.333333"
       is_visible="true"
       id="path-effect2045"
       effect="bspline" />
    <inkscape:path-effect
       effect="bspline"
       id="path-effect2041"
       is_visible="true"
       weight="33.333333"
       steps="2"
       helper_size="0"
       apply_no_weight="true"
       apply_with_weight="true"
       only_selected="false" />
    <inkscape:path-effect
       effect="bspline"
       id="path-effect2037"
       is_visible="true"
       weight="33.333333"
       steps="2"
       helper_size="0"
       apply_no_weight="true"
       apply_with_weight="true"
       only_selected="false" />
    <inkscape:path-effect
       effect="bspline"
       id="path-effect2033"
       is_visible="true"
       weight="33.333333"
       steps="2"
       helper_size="0"
       apply_no_weight="true"
       apply_with_weight="true"
       only_selected="false" />
    <inkscape:path-effect
       effect="bspline"
       id="path-effect2029"
       is_visible="true"
       weight="33.333333"
       steps="2"
       helper_size="0"
       apply_no_weight="true"
       apply_with_weight="true"
       only_selected="false" />
    <inkscape:path-effect
       effect="bspline"
       id="path-effect2018"
       is_visible="true"
       weight="33.333333"
       steps="2"
       helper_size="0"
       apply_no_weight="true"
       apply_with_weight="true"
       only_selected="false" />
    <inkscape:path-effect
       effect="bspline"
       id="path-effect2014"
       is_visible="true"
       weight="33.333333"
       steps="2"
       helper_size="0"
       apply_no_weight="true"
       apply_with_weight="true"
       only_selected="false" />
    <inkscape:path-effect
       only_selected="false"
       apply_with_weight="true"
       apply_no_weight="true"
       helper_size="0"
       steps="2"
       weight="33.333333"
       is_visible="true"
       id="path-effect2010"
       effect="bspline" />
    <inkscape:path-effect
       effect="bspline"
       id="path-effect2006"
       is_visible="true"
       weight="33.333333"
       steps="2"
       helper_size="0"
       apply_no_weight="true"
       apply_with_weight="true"
       only_selected="false" />
    <inkscape:path-effect
       only_selected="false"
       apply_with_weight="true"
       apply_no_weight="true"
       helper_size="0"
       steps="2"
       weight="33.333333"
       is_visible="true"
       id="path-effect2002"
       effect="bspline" />
    <inkscape:path-effect
       effect="bspline"
       id="path-effect1998"
       is_visible="true"
       weight="33.333333"
       steps="2"
       helper_size="0"
       apply_no_weight="true"
       apply_with_weight="true"
       only_selected="false" />
    <inkscape:perspective
       sodipodi:type="inkscape:persp3d"
       inkscape:vp_x="0 : 8 : 1"
       inkscape:vp_y="0 : 1000 : 0"
       inkscape:vp_z="16 : 8 : 1"
       inkscape:persp3d-origin="8 : 5.3333333 : 1"
       id="perspective4709" />
    <inkscape:path-effect
       effect="bspline"
       id="path-effect1935"
       is_visible="true"
       weight="33.333333"
       steps="2"
       helper_size="0"
       apply_no_weight="true"
       apply_with_weight="true"
       only_selected="false" />
    <inkscape:path-effect
       effect="bspline"
       id="path-effect1927"
       is_visible="true"
       weight="33.333333"
       steps="2"
       helper_size="0"
       apply_no_weight="true"
       apply_with_weight="true"
       only_selected="false" />
    <inkscape:path-effect
       effect="bspline"
       id="path-effect1919"
       is_visible="true"
       weight="33.333333"
       steps="2"
       helper_size="0"
       apply_no_weight="true"
       apply_with_weight="true"
       only_selected="false" />
    <inkscape:path-effect
       effect="bspline"
       id="path-effect1911"
       is_visible="true"
       weight="33.333333"
       steps="2"
       helper_size="0"
       apply_no_weight="true"
       apply_with_weight="true"
       only_selected="false" />
    <linearGradient
       inkscape:collect="always"
       xlink:href="#linearGradient15413"
       id="linearGradient15544"
       gradientUnits="userSpaceOnUse"
       x1="95.027657"
       y1="84.356239"
       x2="71.875519"
       y2="113.65475"
       gradientTransform="matrix(0.49939089,0,0,0.4983573,-54.488173,-39.786898)" />
    <linearGradient
       id="linearGradient15413"
       inkscape:collect="always">
      <stop
         id="stop15409"
         offset="0"
         style="stop-color:#ffffff;stop-opacity:1" />
      <stop
         id="stop15411"
         offset="1"
         style="stop-color:#ecf6ff;stop-opacity:1" />
    </linearGradient>
    <linearGradient
       inkscape:collect="always"
       xlink:href="#linearGradient5838"
       id="linearGradient2504"
       gradientUnits="userSpaceOnUse"
       gradientTransform="matrix(1.6855461,0,0,1.6855461,-94.57546,-152.95045)"
       x1="95.027657"
       y1="84.356239"
       x2="71.875519"
       y2="113.65475" />
    <linearGradient
       id="linearGradient5838"
       inkscape:collect="always">
      <stop
         id="stop5834"
         offset="0"
         style="stop-color:#ffffff;stop-opacity:1" />
      <stop
         id="stop5836"
         offset="1"
         style="stop-color:#fcfcfa;stop-opacity:1" />
    </linearGradient>
    <inkscape:path-effect
       effect="bspline"
       id="path-effect4198-95"
       is_visible="true"
       weight="33.333333"
       steps="2"
       helper_size="0"
       apply_no_weight="true"
       apply_with_weight="true"
       only_selected="false" />
    <inkscape:path-effect
       effect="bspline"
       id="path-effect881"
       is_visible="true"
       weight="33.333333"
       steps="2"
       helper_size="0"
       apply_no_weight="true"
       apply_with_weight="true"
       only_selected="false" />
    <inkscape:path-effect
       only_selected="false"
       apply_with_weight="true"
       apply_no_weight="true"
       helper_size="0"
       steps="2"
       weight="33.333333"
       is_visible="true"
       id="path-effect877"
       effect="bspline" />
    <inkscape:path-effect
       effect="bspline"
       id="path-effect873"
       is_visible="true"
       weight="33.333333"
       steps="2"
       helper_size="0"
       apply_no_weight="true"
       apply_with_weight="true"
       only_selected="false" />
    <inkscape:path-effect
       only_selected="false"
       apply_with_weight="true"
       apply_no_weight="true"
       helper_size="0"
       steps="2"
       weight="33.333333"
       is_visible="true"
       id="path-effect869"
       effect="bspline" />
    <inkscape:path-effect
       effect="bspline"
       id="path-effect865"
       is_visible="true"
       weight="33.333333"
       steps="2"
       helper_size="0"
       apply_no_weight="true"
       apply_with_weight="true"
       only_selected="false" />
    <inkscape:path-effect
       only_selected="false"
       apply_with_weight="true"
       apply_no_weight="true"
       helper_size="0"
       steps="2"
       weight="33.333333"
       is_visible="true"
       id="path-effect861"
       effect="bspline" />
    <inkscape:path-effect
       effect="bspline"
       id="path-effect857"
       is_visible="true"
       weight="33.333333"
       steps="2"
       helper_size="0"
       apply_no_weight="true"
       apply_with_weight="true"
       only_selected="false" />
    <inkscape:path-effect
       only_selected="false"
       apply_with_weight="true"
       apply_no_weight="true"
       helper_size="0"
       steps="2"
       weight="33.333333"
       is_visible="true"
       id="path-effect853"
       effect="bspline" />
    <inkscape:path-effect
       effect="bspline"
       id="path-effect837"
       is_visible="true"
       weight="33.333333"
       steps="2"
       helper_size="0"
       apply_no_weight="true"
       apply_with_weight="true"
       only_selected="false" />
    <inkscape:path-effect
       only_selected="false"
       apply_with_weight="true"
       apply_no_weight="true"
       helper_size="0"
       steps="2"
       weight="33.333333"
       is_visible="true"
       id="path-effect841"
       effect="bspline" />
    <inkscape:path-effect
       effect="bspline"
       id="path-effect849"
       is_visible="true"
       weight="33.333333"
       steps="2"
       helper_size="0"
       apply_no_weight="true"
       apply_with_weight="true"
       only_selected="false" />
    <inkscape:path-effect
       only_selected="false"
       apply_with_weight="true"
       apply_no_weight="true"
       helper_size="0"
       steps="2"
       weight="33.333333"
       is_visible="true"
       id="path-effect845"
       effect="bspline" />
    <linearGradient
       gradientTransform="matrix(0.25513394,0,0,0.25513394,83.944524,135.2791)"
       id="d-18"
       gradientUnits="userSpaceOnUse"
       x1="38.000729"
       x2="88.000732"
       y1="79.980797"
       y2="79.980797">
      <stop
         offset="0"
         stop-color="#9207a7"
         id="stop13-7" />
      <stop
         offset=".27254906"
         stop-color="#cd6cc4"
         id="stop15-9" />
      <stop
         offset=".50966245"
         stop-color="#ad3cbe"
         id="stop17-2" />
      <stop
         offset=".83376038"
         stop-color="#bc2ad2"
         id="stop19-0" />
      <stop
         offset="1"
         stop-color="#950ba8"
         id="stop21" />
    </linearGradient>
    <linearGradient
       id="h-5"
       gradientTransform="matrix(-2,0,0,2,860.00054,-2063.5036)"
       gradientUnits="userSpaceOnUse"
       x1="386.63177"
       x2="410.49988"
       y1="1068.9539"
       y2="1068.9539">
      <stop
         offset="0"
         stop-color="#e196fb"
         id="stop31-6" />
      <stop
         offset=".13010512"
         stop-color="#f4c7fa"
         id="stop33-2" />
      <stop
         offset=".31360075"
         stop-color="#e091f3"
         id="stop35-9" />
      <stop
         offset=".44078669"
         stop-color="#d764e9"
         id="stop37-1" />
      <stop
         offset=".68364757"
         stop-color="#e7adf0"
         id="stop39" />
      <stop
         offset=".75620717"
         stop-color="#e6a9f8"
         id="stop41" />
      <stop
         offset=".88021636"
         stop-color="#e595f2"
         id="stop43-2" />
      <stop
         offset="1"
         stop-color="#f2cbf8"
         id="stop45-7" />
    </linearGradient>
    <radialGradient
       id="c-7"
       cx="518.85358"
       cy="730.48431"
       gradientTransform="matrix(0.25647812,0,3.8270093e-8,0.07219532,-33.057071,99.507854)"
       gradientUnits="userSpaceOnUse"
       r="22.889727">
      <stop
         offset="0"
         stop-color="#dc85e9"
         id="stop8-5" />
      <stop
         offset="1"
         stop-color="#f2cbf8"
         id="stop10-3" />
    </radialGradient>
    <linearGradient
       gradientTransform="matrix(0.25513394,0,0,0.25513394,83.947824,135.08331)"
       id="a-3"
       gradientUnits="userSpaceOnUse"
       x1="117.00146"
       x2="12.00143"
       xlink:href="#b-6"
       y1="127.8783"
       y2="0.0766" />
    <linearGradient
       id="b-6">
      <stop
         offset="0"
         stop-color="#8e03a3"
         id="stop3" />
      <stop
         offset="1"
         stop-color="#c254d2"
         id="stop5" />
    </linearGradient>
    <radialGradient
       id="c-7-9"
       cx="518.85358"
       cy="730.48431"
       gradientTransform="matrix(0.25647812,0,3.8270093e-8,0.07219532,-33.057071,99.507854)"
       gradientUnits="userSpaceOnUse"
       r="22.889727">
      <stop
         offset="0"
         stop-color="#dc85e9"
         id="stop8-5-3" />
      <stop
         offset="1"
         stop-color="#f2cbf8"
         id="stop10-3-6" />
    </radialGradient>
    <linearGradient
       y2="-0.0038660001"
       y1="128"
       xlink:href="#b"
       x2="12.00134"
       x1="117.00134"
       gradientUnits="userSpaceOnUse"
       id="c"
       gradientTransform="matrix(0.13229167,0,0,0.13229167,69.303747,-40.445364)" />
    <linearGradient
       id="b">
      <stop
         id="stop3-2"
         stop-color="#535353"
         offset="0" />
      <stop
         id="stop5-6"
         stop-color="#7e7e7e"
         offset="1" />
    </linearGradient>
    <linearGradient
       y2="-0.082061999"
       y1="128"
       xlink:href="#b"
       x2="12.00134"
       x1="117.00134"
       gradientUnits="userSpaceOnUse"
       id="a"
       gradientTransform="matrix(0.13229167,0,0,0.13229167,69.303747,-40.445364)" />
    <linearGradient
       y2="-0.082061999"
       y1="128"
       xlink:href="#b"
       x2="12.00134"
       x1="117.00134"
       gradientUnits="userSpaceOnUse"
       id="a-1"
       gradientTransform="matrix(0.13229166,0,0,0.13229166,58.588119,-40.445372)" />
    <linearGradient
       y2="-0.0038660001"
       y1="128"
       xlink:href="#b"
       x2="12.00134"
       x1="117.00134"
       gradientUnits="userSpaceOnUse"
       id="c-9"
       gradientTransform="matrix(0.13229166,0,0,0.13229166,58.588119,-40.445372)" />
  </defs>
  <sodipodi:namedview
     id="base"
     pagecolor="#ffffff"
     bordercolor="#00fff6"
     borderopacity="1"
     inkscape:pageopacity="0"
     inkscape:pageshadow="2"
     inkscape:zoom="32"
     inkscape:cx="-1.9771972"
     inkscape:cy="8.1557861"
     inkscape:current-layer="g11936"
     showgrid="false"
     inkscape:grid-bbox="true"
     inkscape:document-units="px"
     inkscape:window-width="1862"
     inkscape:window-height="1016"
     inkscape:window-x="58"
     inkscape:window-y="27"
     inkscape:window-maximized="1"
     showguides="false"
     inkscape:guide-bbox="true"
     inkscape:snap-page="true"
     inkscape:snap-grids="false"
     inkscape:snap-bbox="true"
     inkscape:bbox-paths="true"
     inkscape:bbox-nodes="true">
    <inkscape:grid
       type="xygrid"
       id="grid4707" />
    <sodipodi:guide
       position="8,9"
       orientation="1,0"
       id="guide4779"
       inkscape:locked="false" />
    <sodipodi:guide
       position="9,8"
       orientation="0,1"
       id="guide4781"
       inkscape:locked="false" />
  </sodipodi:namedview>
  <metadata
     id="metadata4164">
    <rdf:RDF>
      <cc:Work
         rdf:about="">
        <dc:format>image/svg+xml</dc:format>
        <dc:type
           rdf:resource="http://purl.org/dc/dcmitype/StillImage" />
        <dc:title>Boston Icons</dc:title>
        <cc:license
           rdf:resource="dribbble.com/chrisdiaz" />
        <dc:creator>
          <cc:Agent>
            <dc:title>Christian Díaz</dc:title>
          </cc:Agent>
        </dc:creator>
        <dc:description>diazchris.deviantart.com | dribbble.com/chrisdiaz</dc:description>
        <dc:date>2019</dc:date>
        <dc:publisher>
          <cc:Agent>
            <dc:title>Christian Díaz</dc:title>
          </cc:Agent>
        </dc:publisher>
        <dc:subject>
          <rdf:Bag>
            <rdf:li>GNOME icon Theme</rdf:li>
          </rdf:Bag>
        </dc:subject>
        <dc:identifier>christiandiaz.design [at] gmail [dot] com</dc:identifier>
      </cc:Work>
    </rdf:RDF>
  </metadata>
  <g
     id="layer1"
     inkscape:label="Layer 1"
     inkscape:groupmode="layer">
    <g
       id="g1065"
       transform="matrix(0.58509961,0,0,0.59966508,-55.576682,-94.646215)"
       style="stroke-width:1.68822651;stroke-miterlimit:4;stroke-dasharray:none">
      <g
         id="g11936"
         transform="matrix(3.2298153,0,0,3.3954103,-142.09779,272.38542)">
        <g
           id="g16043"
           transform="translate(10.715627,-0.05830676)">
          <rect
             id="rect16907-2"
             y="-33.301624"
             x="62.821644"
             width="8.2020836"
             rx="0.067230232"
             height="5.2916665"
             style="fill:#e6e6e6;stroke-width:0.13229167" />
          <path
             id="path16909-0"
             d="m 62.689342,-33.433913 v 5.423959 1.852082 h 8.466667 v -1.852082 -5.423959 z m 0.396616,0.2646 h 7.672918 c 0.07331,0 0.1323,0.05899 0.1323,0.1323 v 4.762499 c 0,0.07331 -0.05899,0.1323 -0.1323,0.1323 h -7.672918 c -0.07331,0 -0.1323,-0.05899 -0.1323,-0.1323 v -4.762499 c 0,-0.07331 0.05899,-0.1323 0.1323,-0.1323 z m -0.1323,5.423959 h 7.937498 v 1.322916 h -7.937498 z"
             style="opacity:0.6;fill:url(#c-9);stroke-width:0.13229167"
             inkscape:connector-curvature="0" />
          <path
             id="path16911-2"
             d="m 63.350801,-33.03704 v 0.1323 h -0.1323 v 0.1323 h 0.1323 v 0.1323 h 0.145463 v -0.1323 h 0.119104 v -0.1323 h -0.119104 v -0.1323 z m 3.439584,0 v 0.1323 h -0.396876 v 0.1323 h 0.396876 v 0.1323 h 0.145463 v -0.1323 h 0.383697 v -0.1323 h -0.383697 v -0.1323 z m 3.439581,0 v 0.1323 h -0.1323 v 0.1323 h 0.1323 v 0.1323 h 0.145463 v -0.1323 h 0.119103 v -0.1323 h -0.119103 v -0.1323 z m -6.482292,0.1323 v 0.1323 h 0.396877 v -0.1323 z m 0.529167,0 v 0.1323 h 0.396876 v -0.1323 z m 0.529169,0 v 0.1323 h 0.396873 v -0.1323 z m 0.529166,0 v 0.1323 h 0.396874 v -0.1323 z m 0.529167,0 v 0.1323 h 0.396873 v -0.1323 z m 1.587499,0 v 0.1323 h 0.396876 v -0.1323 z m 0.529166,0 v 0.1323 h 0.396876 v -0.1323 z m 0.529166,0 v 0.1323 h 0.396877 v -0.1323 z m 0.529166,0 v 0.1323 h 0.396877 v -0.1323 z m 0.52917,0 v 0.1323 h 0.396873 v -0.1323 z m -6.217709,0.396876 v 0.396873 h 0.145463 v -0.396873 z m 3.439584,0 v 0.396873 h 0.145463 v -0.396873 z m 3.439581,0 v 0.396873 h 0.145463 v -0.396873 z m -6.879165,0.529167 v 0.396873 h 0.145463 v -0.396873 z m 3.439584,0 v 0.396873 h 0.145463 v -0.396873 z m 3.439581,0 v 0.396873 h 0.145463 v -0.396873 z m -7.011458,0.529166 v 0.1323 h 0.1323 v 0.2646 h 0.145463 v -0.2646 h 0.119103 v -0.1323 h -0.119103 -0.145463 z m 0.529166,0 v 0.1323 h 0.396877 v -0.1323 z m 0.529167,0 v 0.1323 h 0.396876 v -0.1323 z m 0.529169,0 v 0.1323 h 0.396873 v -0.1323 z m 0.529166,0 v 0.1323 h 0.396874 v -0.1323 z m 0.529167,0 v 0.1323 h 0.396873 v -0.1323 z m 0.529166,0 v 0.1323 h 0.396876 v 0.2646 h 0.145463 v -0.2646 h 0.383697 v -0.1323 h -0.383697 -0.01316 -0.1323 z m 1.058333,0 v 0.1323 h 0.396876 v -0.1323 z m 0.529166,0 v 0.1323 h 0.396876 v -0.1323 z m 0.529166,0 v 0.1323 h 0.396877 v -0.1323 z m 0.529166,0 v 0.1323 h 0.396877 v -0.1323 z m 0.52917,0 v 0.1323 h 0.396873 v -0.1323 z m 0.529166,0 v 0.1323 h 0.1323 v 0.2646 h 0.145463 v -0.2646 h 0.119104 v -0.1323 h -0.119104 -0.145463 z m -6.746875,0.529166 v 0.396873 h 0.145463 v -0.396873 z m 3.439584,0 v 0.396873 h 0.145463 v -0.396873 z m 3.439581,0 v 0.396873 h 0.145463 v -0.396873 z m -6.879165,0.529166 v 0.396877 h 0.145463 v -0.396877 z m 3.439584,0 v 0.396877 h 0.145463 v -0.396877 z m 3.439581,0 v 0.396877 h 0.145463 v -0.396877 z m -6.879165,0.529167 v 0.396876 h 0.145463 v -0.396876 z m 3.439584,0 v 0.396876 h 0.145463 v -0.396876 z m 3.439581,0 v 0.396876 h 0.145463 v -0.396876 z m -6.879165,0.529166 v 0.396876 h 0.145463 v -0.396876 z m 3.439584,0 v 0.396876 h 0.145463 v -0.396876 z m 3.439581,0 v 0.396876 h 0.145463 v -0.396876 z m -6.879165,0.529166 v 0.1323 h -0.1323 v 0.1323 h 0.1323 v 0.1323 h 0.145463 v -0.1323 h 0.119104 v -0.1323 h -0.119104 v -0.1323 z m 3.439584,0 v 0.1323 h -0.396876 v 0.1323 h 0.396876 v 0.1323 h 0.145463 v -0.1323 h 0.383697 v -0.1323 h -0.383697 v -0.1323 z m 3.439581,0 v 0.1323 h -0.1323 v 0.1323 h 0.1323 v 0.1323 h 0.145463 v -0.1323 h 0.119103 v -0.1323 h -0.119103 v -0.1323 z m -6.482292,0.1323 v 0.1323 h 0.396877 v -0.1323 z m 0.529167,0 v 0.1323 h 0.396876 v -0.1323 z m 0.529169,0 v 0.1323 h 0.396873 v -0.1323 z m 0.529166,0 v 0.1323 h 0.396874 v -0.1323 z m 0.529167,0 v 0.1323 h 0.396873 v -0.1323 z m 1.587499,0 v 0.1323 h 0.396876 v -0.1323 z m 0.529166,0 v 0.1323 h 0.396876 v -0.1323 z m 0.529166,0 v 0.1323 h 0.396877 v -0.1323 z m 0.529166,0 v 0.1323 h 0.396877 v -0.1323 z m 0.52917,0 v 0.1323 h 0.396873 v -0.1323 z"
             style="fill:#b3b3b3;stroke-width:0.13229167"
             inkscape:connector-curvature="0" />
          <path
             id="path16913-3"
             d="m 66.392989,-32.90578 -1.406372,3.311942 -0.833025,-1.576648 -0.800725,0.295346 0.142357,0.480846 0.385766,-0.196121 0.990897,2.050262 h 0.234866 l 1.617989,-3.836457 h 3.242436 v 0.2646 h 0.397134 v -0.793749 h -3.971073 z m 0.459149,1.456242 1.27925,1.419032 v 0.01822 l -1.320334,1.473296 h 0.656292 l 1.024225,-1.096315 h 0.02025 l 1.126028,1.096315 h 0.710809 l -1.449262,-1.497326 v -0.01823 l 1.353662,-1.395005 h -0.656289 l -1.071252,1.012081 h -0.02025 l -0.942063,-1.012081 z m 1.115177,3.823281 c -0.09399,0 -0.156802,0.01384 -0.188865,0.04185 -0.03173,0.02768 -0.04782,0.08299 -0.04779,0.166388 v 0.135912 c -1.3e-5,0.05663 -0.01013,0.09578 -0.03004,0.117315 -0.01991,0.0216 -0.0566,0.0324 -0.109823,0.0324 h -0.03513 v 0.08086 h 0.03513 c 0.05285,0 0.0893,0.0108 0.109283,0.03274 0.02025,0.02194 0.03037,0.06136 0.03037,0.118327 v 0.135405 c -1.3e-5,0.08343 0.0162,0.138982 0.04779,0.166927 0.03206,0.02801 0.09487,0.04185 0.188865,0.04185 h 0.03645 v -0.08141 h -0.03979 c -0.05285,0 -0.08738,-0.0081 -0.103612,-0.0243 -0.01586,-0.0162 -0.02362,-0.05144 -0.02362,-0.105401 v -0.140299 c 0,-0.05889 -0.0084,-0.101857 -0.02531,-0.128689 -0.01687,-0.02666 -0.04647,-0.04536 -0.08836,-0.05555 0.04155,-0.0095 0.07061,-0.02734 0.08758,-0.05427 0.01721,-0.02666 0.02599,-0.06993 0.02599,-0.129195 v -0.140299 c 0,-0.0536 0.0078,-0.08843 0.02362,-0.104659 0.0162,-0.01654 0.05076,-0.02497 0.103613,-0.02497 h 0.03979 v -0.08086 z m 0.921649,0 v 0.08086 h 0.03851 c 0.05326,1.4e-5 0.08792,0.0084 0.104119,0.02497 0.0162,0.01654 0.0243,0.0514 0.0243,0.104659 v 0.140299 c 0,0.05926 0.0084,0.102397 0.02565,0.129195 0.01721,0.02666 0.04685,0.04485 0.08836,0.05427 -0.04192,0.01012 -0.07138,0.02869 -0.08836,0.05555 -0.01688,0.02666 -0.02565,0.0698 -0.02565,0.128689 v 0.140299 c 0,0.05322 -0.0081,0.08805 -0.0243,0.104658 -0.0162,0.01654 -0.0509,0.02497 -0.104119,0.02497 h -0.03851 v 0.08141 h 0.03513 c 0.09399,0 0.156634,-0.01384 0.188358,-0.04185 0.03172,-0.02801 0.04756,-0.0835 0.04756,-0.166927 v -0.135405 c 0,-0.057 0.01012,-0.09646 0.03037,-0.118328 0.02025,-0.02194 0.0571,-0.03274 0.110329,-0.03274 h 0.03618 v -0.08086 h -0.03618 c -0.05322,0 -0.08994,-0.0108 -0.110329,-0.0324 -0.01991,-0.0216 -0.03037,-0.06068 -0.03037,-0.117315 v -0.135912 c 0,-0.0834 -0.01586,-0.138847 -0.04756,-0.166388 -0.03172,-0.02801 -0.09436,-0.04185 -0.188358,-0.04185 z m -1.953629,0.116269 v 0.18009 h -0.169493 v 0.08113 h 0.169493 v 0.344165 c 0,0.07661 0.01586,0.13068 0.04806,0.162001 0.03206,0.03139 0.08724,0.04701 0.165375,0.04701 h 0.127372 v -0.08346 h -0.117315 c -0.04415,0 -0.07503,-0.0091 -0.09274,-0.02768 -0.01789,-0.01856 -0.02666,-0.05113 -0.02666,-0.09794 v -0.344166 h 0.236689 v -0.08113 h -0.236689 v -0.180089 z m -2.021065,0.148061 c -0.07624,0 -0.134797,0.01654 -0.175972,0.04988 -0.04114,0.03274 -0.06176,0.07951 -0.06176,0.140299 0,0.04796 0.01384,0.08599 0.04134,0.113939 0.02768,0.02768 0.07125,0.04715 0.131254,0.05889 l 0.03901,0.0078 0.0047,0.0015 c 0.09247,0.01856 0.138746,0.05167 0.138746,0.100002 0,0.03375 -0.01282,0.05994 -0.03797,0.07881 -0.02531,0.01856 -0.06092,0.02768 -0.106954,0.02768 -0.03172,0 -0.06554,-0.0051 -0.101048,-0.01485 -0.03547,-0.01013 -0.07246,-0.02531 -0.111375,-0.04522 v 0.107764 c 0.04003,0.01316 0.07702,0.02261 0.111375,0.02936 0.03436,0.0067 0.06736,0.01046 0.09872,0.01046 0.07928,0 0.141244,-0.01755 0.18576,-0.05272 0.04455,-0.03547 0.06666,-0.08461 0.06666,-0.147284 0,-0.04718 -0.01316,-0.08556 -0.04006,-0.114987 -0.02632,-0.02936 -0.06558,-0.04887 -0.117315,-0.05866 l -0.04185,-0.0081 c -0.06909,-0.01316 -0.112354,-0.027 -0.129701,-0.04084 -0.01721,-0.01384 -0.02599,-0.035 -0.02599,-0.06332 0,-0.03139 0.01148,-0.05467 0.03463,-0.06976 0.02329,-0.01553 0.05876,-0.02329 0.105941,-0.02329 0.03139,0 0.06203,0.0044 0.09224,0.01316 0.03004,0.0088 0.06011,0.0216 0.08991,0.03901 v -0.10179 -2.66e-4 c -0.03004,-0.01251 -0.06089,-0.02196 -0.09224,-0.02803 -0.03139,-0.0064 -0.06396,-0.0095 -0.09794,-0.0095 z m 0.664301,0.0026 c -0.07624,0 -0.136316,0.0297 -0.18009,0.08886 -0.04381,0.05926 -0.06564,0.141311 -0.06564,0.24624 0,0.103039 0.02194,0.184005 0.06564,0.242865 0.04415,0.05849 0.10422,0.08785 0.18009,0.08785 0.03814,0 0.07158,-0.0084 0.100238,-0.02497 0.02903,-0.01687 0.05201,-0.041 0.06898,-0.07236 v 0.322212 h 0.104895 v -0.875413 h -0.104895 v 0.08087 c -0.01721,-0.03139 -0.04043,-0.05508 -0.06949,-0.07131 -0.02869,-0.01654 -0.062,-0.02497 -0.09973,-0.02497 z m 0.884183,0.01013 c -0.04944,0 -0.09244,0.01215 -0.128655,0.03618 -0.03588,0.02362 -0.06247,0.05818 -0.07985,0.103107 v -0.124037 h -0.104658 v 0.634072 h 0.104658 v -0.315226 c 0,-0.07698 0.01721,-0.135944 0.05167,-0.176715 0.03436,-0.04077 0.0839,-0.06099 0.148838,-0.06099 0.02768,0 0.05295,0.004 0.07597,0.01181 0.02295,0.0078 0.0457,0.02025 0.06794,0.03773 v -0.106211 c -0.02025,-0.0135 -0.04182,-0.02362 -0.06409,-0.03038 -0.02228,-0.0064 -0.04617,-0.0094 -0.07182,-0.0094 z m 1.681037,0.0028 0.227104,0.303581 -0.249345,0.330716 h 0.120656 l 0.185253,-0.254238 0.185524,0.254238 h 0.120656 l -0.249075,-0.330716 0.227138,-0.303581 h -0.117315 l -0.166928,0.229433 -0.16821,-0.229433 z m -2.548685,0.07546 c 0.05019,0 0.08802,0.02059 0.113703,0.06227 0.02599,0.04114 0.03902,0.101756 0.03902,0.182148 0,0.08039 -0.01283,0.141413 -0.03902,0.182925 -0.02565,0.04114 -0.06348,0.06176 -0.113703,0.06176 -0.05019,0 -0.08826,-0.02059 -0.11394,-0.06176 -0.02531,-0.04114 -0.03797,-0.102161 -0.03797,-0.182925 0,-0.0808 0.01283,-0.141547 0.03797,-0.182688 0.02565,-0.04114 0.06375,-0.06176 0.11394,-0.06176 z"
             style="fill:url(#a-1);stroke-width:0.13229167"
             inkscape:connector-curvature="0" />
        </g>
      </g>
    </g>
  </g>
</svg>
