<?xml version="1.0" encoding="UTF-8" standalone="no"?>
<svg
   xmlns:dc="http://purl.org/dc/elements/1.1/"
   xmlns:cc="http://creativecommons.org/ns#"
   xmlns:rdf="http://www.w3.org/1999/02/22-rdf-syntax-ns#"
   xmlns:svg="http://www.w3.org/2000/svg"
   xmlns="http://www.w3.org/2000/svg"
   xmlns:xlink="http://www.w3.org/1999/xlink"
   xmlns:sodipodi="http://sodipodi.sourceforge.net/DTD/sodipodi-0.dtd"
   xmlns:inkscape="http://www.inkscape.org/namespaces/inkscape"
   width="128"
   height="128"
   version="1.0"
   class="mozwebext"
   id="svg71"
   sodipodi:docname="evince.svg"
   inkscape:version="0.92.3 (2405546, 2018-03-11)">
  <metadata
     id="metadata75">
    <rdf:RDF>
      <cc:Work
         rdf:about="">
        <dc:format>image/svg+xml</dc:format>
        <dc:type
           rdf:resource="http://purl.org/dc/dcmitype/StillImage" />
        <dc:title></dc:title>
      </cc:Work>
    </rdf:RDF>
  </metadata>
  <sodipodi:namedview
     pagecolor="#ffffff"
     bordercolor="#666666"
     borderopacity="1"
     objecttolerance="10"
     gridtolerance="10"
     guidetolerance="10"
     inkscape:pageopacity="0"
     inkscape:pageshadow="2"
     inkscape:window-width="1550"
     inkscape:window-height="836"
     id="namedview73"
     showgrid="false"
     inkscape:snap-bbox="true"
     inkscape:bbox-paths="true"
     inkscape:bbox-nodes="true"
     inkscape:snap-bbox-edge-midpoints="true"
     inkscape:snap-bbox-midpoints="true"
     inkscape:object-paths="true"
     inkscape:snap-intersection-paths="true"
     inkscape:object-nodes="true"
     inkscape:snap-smooth-nodes="true"
     inkscape:snap-midpoints="true"
     inkscape:snap-object-midpoints="true"
     inkscape:snap-center="true"
     inkscape:zoom="2.8284271"
     inkscape:cx="36.726944"
     inkscape:cy="82.455493"
     inkscape:window-x="50"
     inkscape:window-y="27"
     inkscape:window-maximized="1"
     inkscape:current-layer="g69" />
  <defs
     id="defs31">
    <linearGradient
       xlink:href="#d"
       id="e"
       x1="28"
       y1="-274"
       x2="116"
       y2="-274"
       gradientUnits="userSpaceOnUse"
       gradientTransform="translate(-136)" />
    <linearGradient
       id="d">
      <stop
         offset="0"
         stop-color="#c0bfbc"
         id="stop18" />
      <stop
         offset=".045"
         stop-color="#f6f5f4"
         id="stop20" />
      <stop
         offset=".091"
         stop-color="#deddda"
         id="stop22" />
      <stop
         offset=".909"
         stop-color="#deddda"
         id="stop24" />
      <stop
         offset=".955"
         stop-color="#f6f5f4"
         id="stop26" />
      <stop
         offset="1"
         stop-color="#c0bfbc"
         id="stop28" />
    </linearGradient>
    <linearGradient
       id="linearGradient1038">
      <stop
         id="stop1026"
         offset="0"
         style="stop-color:#c0bfbc;stop-opacity:1" />
      <stop
         style="stop-color:#ffffff;stop-opacity:1"
         offset="0.04545454"
         id="stop1028" />
      <stop
         style="stop-color:#deddda;stop-opacity:1"
         offset="0.09090909"
         id="stop1030" />
      <stop
         style="stop-color:#deddda;stop-opacity:1"
         offset="0.90909088"
         id="stop1032" />
      <stop
         id="stop1034"
         offset="0.95454544"
         style="stop-color:#ffffff;stop-opacity:1" />
      <stop
         id="stop1036"
         offset="1"
         style="stop-color:#c0bfbc;stop-opacity:1" />
    </linearGradient>
    <clipPath
       clipPathUnits="userSpaceOnUse"
       id="clipPath2213">
      <rect
         style="display:inline;opacity:1;vector-effect:none;fill:none;fill-opacity:1;stroke:#000000;stroke-width:1;stroke-linecap:butt;stroke-linejoin:miter;stroke-miterlimit:4;stroke-dasharray:none;stroke-dashoffset:0;stroke-opacity:1;marker:none;marker-start:none;marker-mid:none;marker-end:none;paint-order:normal;enable-background:new"
         id="rect2215"
         width="16"
         height="56"
         x="160"
         y="-188"
         rx="8"
         ry="8" />
    </clipPath>
    <linearGradient
       id="linearGradient1005">
      <stop
         id="stop1001"
         offset="0"
         style="stop-color:#d0bb8e;stop-opacity:1" />
      <stop
         id="stop1003"
         offset="1"
         style="stop-color:#ffffff;stop-opacity:1" />
    </linearGradient>
    <linearGradient
       id="linearGradient1351-3">
      <stop
         style="stop-color:#d5d3cf;stop-opacity:1"
         offset="0"
         id="stop1347" />
      <stop
         style="stop-color:#ffffff;stop-opacity:1"
         offset="1"
         id="stop1349-6" />
    </linearGradient>
    <linearGradient
       xlink:href="#linearGradient1038"
       id="linearGradient1159"
       x1="27.99999"
       y1="-276"
       x2="115.99999"
       y2="-276"
       gradientUnits="userSpaceOnUse"
       gradientTransform="translate(-135.99999)" />
    <linearGradient
       xlink:href="#linearGradient1005"
       id="linearGradient1103"
       gradientUnits="userSpaceOnUse"
       x1="128.81717"
       y1="-97.698288"
       x2="158.51802"
       y2="-127.39915"
       gradientTransform="matrix(0.06410933,-0.37365631,0.37365633,-0.06410932,71.701728,321.73325)" />
    <clipPath
       clipPathUnits="userSpaceOnUse"
       id="clipPath1609-7">
      <path
         id="path1611-5"
         d="m 252,116 28,-28 v -8 h -36 v 36 z"
         style="fill:#e74747;stroke:none;stroke-width:0.25px;stroke-linecap:butt;stroke-linejoin:miter;stroke-opacity:1" />
    </clipPath>
    <linearGradient
       xlink:href="#linearGradient1351-3"
       id="linearGradient1130"
       gradientUnits="userSpaceOnUse"
       gradientTransform="matrix(0.25,0,0,0.25,180,83)"
       x1="344"
       y1="76"
       x2="340"
       y2="72" />
    <clipPath
       clipPathUnits="userSpaceOnUse"
       id="clipPath1062">
      <rect
         clip-path="none"
         ry="8"
         rx="8"
         y="-116"
         x="-108"
         height="108"
         width="88"
         id="rect1064"
         style="opacity:1;vector-effect:none;fill:#f6f5f4;fill-opacity:1;stroke:none;stroke-width:13.71876526;stroke-linecap:butt;stroke-linejoin:miter;stroke-miterlimit:4;stroke-dasharray:none;stroke-dashoffset:0;stroke-opacity:1;marker:none;marker-start:none;marker-mid:none;marker-end:none;paint-order:normal"
         transform="scale(-1)" />
    </clipPath>
  </defs>
  <g
     style="display:inline;enable-background:new"
     id="g180"
     transform="translate(140,2)">
    <g
       id="layer1"
       style="display:inline"
       transform="translate(0,-172)">
      <g
         id="layer2"
         style="display:none">
        <g
           style="display:inline;enable-background:new"
           id="g9211">
          <rect
             y="172"
             x="9.2651362e-08"
             height="128"
             width="128"
             id="rect13805"
             style="display:inline;overflow:visible;visibility:visible;fill:#f0f0f0;fill-opacity:1;fill-rule:nonzero;stroke:none;stroke-width:0.5;marker:none;enable-background:accumulate" />
          <circle
             style="display:inline;opacity:0.1;vector-effect:none;fill:none;fill-opacity:1;stroke:#000000;stroke-width:0.99000001;stroke-linecap:butt;stroke-linejoin:miter;stroke-miterlimit:4;stroke-dasharray:0.99000001, 0.99000001;stroke-dashoffset:0;stroke-opacity:1;marker:none;marker-start:none;marker-mid:none;marker-end:none;paint-order:normal;enable-background:new"
             id="circle2892"
             r="59.504131"
             cy="236"
             cx="64.000031" />
          <rect
             style="display:inline;opacity:0.1;vector-effect:none;fill:none;fill-opacity:1;stroke:#000000;stroke-width:0.99000001;stroke-linecap:butt;stroke-linejoin:miter;stroke-miterlimit:4;stroke-dasharray:0.99000001, 0.99000001;stroke-dashoffset:0;stroke-opacity:1;marker:none;marker-start:none;marker-mid:none;marker-end:none;paint-order:normal;enable-background:new"
             id="rect2894"
             width="87.009987"
             height="111.01005"
             x="20.495007"
             y="180.49496"
             rx="8.701004"
             ry="7.9292889" />
          <rect
             style="display:inline;opacity:0.1;vector-effect:none;fill:none;fill-opacity:1;stroke:#000000;stroke-width:0.99000001;stroke-linecap:butt;stroke-linejoin:miter;stroke-miterlimit:4;stroke-dasharray:0.99000001, 0.99000001;stroke-dashoffset:0;stroke-opacity:1;marker:none;marker-start:none;marker-mid:none;marker-end:none;paint-order:normal;enable-background:new"
             id="rect2896"
             width="103.00952"
             height="103.00952"
             x="12.495266"
             y="184.49524"
             rx="7.9238095"
             ry="7.9238095" />
          <rect
             style="display:inline;opacity:0.1;vector-effect:none;fill:none;fill-opacity:1;stroke:#000000;stroke-width:0.99000001;stroke-linecap:butt;stroke-linejoin:miter;stroke-miterlimit:4;stroke-dasharray:0.99000001, 0.99000001;stroke-dashoffset:0;stroke-opacity:1;marker:none;marker-start:none;marker-mid:none;marker-end:none;paint-order:normal;enable-background:new"
             id="rect2898"
             width="111.01004"
             height="87.010048"
             x="8.4950066"
             y="200.49496"
             rx="7.9292889"
             ry="8.701005" />
          <path
             style="display:inline;fill:none;stroke:#62a0ea;stroke-width:2;stroke-linecap:butt;stroke-linejoin:miter;stroke-miterlimit:4;stroke-dasharray:none;stroke-opacity:1;enable-background:new"
             d="M 2.6203015e-5,288.99999 H 128.00003"
             id="path2900"
             inkscape:connector-curvature="0" />
        </g>
      </g>
      <g
         id="layer9"
         style="display:inline">
        <g
           style="display:inline;enable-background:new"
           id="g8005"
           clip-path="url(#clipPath2213)"
           transform="matrix(0.25,0,0,0.25,-374,202.04808)" />
        <g
           style="display:inline;enable-background:new"
           id="g8015"
           clip-path="url(#clipPath2213)"
           transform="matrix(0.25,0,0,0.25,-424,202.04808)" />
        <g
           style="display:inline;enable-background:new"
           id="g8025"
           clip-path="url(#clipPath2213)"
           transform="matrix(0.25,0,0,0.25,-414,202.04808)" />
        <g
           style="display:inline;enable-background:new"
           id="g8035"
           clip-path="url(#clipPath2213)"
           transform="matrix(0.25,0,0,0.25,-404,202.04808)" />
        <g
           style="display:inline;enable-background:new"
           id="g8045"
           clip-path="url(#clipPath2213)"
           transform="matrix(0.25,0,0,0.25,-394,202.04808)" />
        <g
           style="display:inline;enable-background:new"
           id="g8055"
           clip-path="url(#clipPath2213)"
           transform="matrix(0.25,0,0,0.25,-384,202.04808)" />
        <rect
           clip-path="none"
           ry="8"
           rx="8"
           y="-288.70712"
           x="32"
           height="108"
           width="88"
           id="rect860"
           style="opacity:1;vector-effect:none;fill:#b3b3b3;fill-opacity:1;stroke:none;stroke-width:13.71876526;stroke-linecap:butt;stroke-linejoin:miter;stroke-miterlimit:4;stroke-dasharray:none;stroke-dashoffset:0;stroke-opacity:1;marker:none;marker-start:none;marker-mid:none;marker-end:none;paint-order:normal"
           transform="scale(-1)" />
        <rect
           clip-path="url(#clipPath1609-7)"
           transform="matrix(0,0.71428571,0.71428571,0,25.142858,88.000008)"
           ry="11.2"
           rx="11.2"
           y="88"
           x="252"
           height="36"
           width="36"
           id="rect1056-3"
           style="display:inline;opacity:1;fill:url(#linearGradient1130);fill-opacity:1;stroke:none;stroke-width:0.5;stroke-linecap:butt;stroke-linejoin:miter;stroke-miterlimit:4;stroke-dasharray:none;stroke-dashoffset:0;stroke-opacity:1;marker:none;marker-start:none;marker-mid:none;marker-end:none;paint-order:normal;enable-background:new" />
        <rect
           transform="scale(-1)"
           style="opacity:1;vector-effect:none;fill:#f6f5f4;fill-opacity:1;stroke:none;stroke-width:13.71876526;stroke-linecap:butt;stroke-linejoin:miter;stroke-miterlimit:4;stroke-dasharray:none;stroke-dashoffset:0;stroke-opacity:1;marker:none;marker-start:none;marker-mid:none;marker-end:none;paint-order:normal"
           id="rect1161"
           width="88"
           height="108"
           x="32"
           y="-288"
           rx="8"
           ry="8"
           clip-path="none" />
      </g>
    </g>
  </g>
  <g
     transform="translate(-136.3566,-170)"
     id="g69">
    <path
       style="color:#000000;overflow:visible;fill:#deddda;marker:none"
       d="m 168,248 v 10 h 64 v -4 h 8 v -6 z"
       overflow="visible"
       id="path39"
       inkscape:connector-curvature="0" />
    <path
       d="m 188,254 a 6.176,6.176 0 0 0 -2.982,0.766 5.883,5.883 0 0 0 -2.262,2.22 C 182.164,256.42 181.293,256 180,256 h -20 v 4 h 21.215 c 0.453,0 0.715,0.301 0.775,0.742 0.001,0.035 0.01,0.068 0.01,0.104 V 262 h -22 v 4 h 13.951 l -4,4 H 160 v 2 h 8.275 c -0.515,1.129 -0.448,2.63 1.108,4.225 L 173.607,272 h 5.547 A 4.858,4.858 0 0 0 184,267.154 v -1.125 h 8 v 1.125 a 4.858,4.858 0 0 0 4.846,4.846 h 5.576 l 4.195,4.195 c 1.542,-1.58 1.62,-3.07 1.12,-4.195 h 7.417 A 4.858,4.858 0 0 0 220,267.154 v -1.125 h 2 V 258 c 0,-1.063 -0.828,-2 -2,-2 h -24 c 0,0 -1.578,0.002 -2.752,0.994 A 5.882,5.882 0 0 0 190.982,254.766 6.176,6.176 0 0 0 188,254 Z m 0,2.004 c 0.698,0 1.396,0.17 2.018,0.514 1.242,0.685 1.982,1.926 1.982,3.26 0,0.04 0.002,0.079 0.006,0.118 C 192.005,259.933 192,259.963 192,260 v 2 h -8 v -2 l -0.008,-0.086 c 0.006,-0.045 0.008,-0.091 0.008,-0.137 0,-1.333 0.74,-2.574 1.982,-3.26 A 4.182,4.182 0 0 1 188,256.004 Z m 6.785,4.012 h 23.082 c 0.079,0.263 0.133,0.538 0.133,0.83 v 1.183 H 198.107 L 198.078,262 H 194 v -1.154 c 0,-0.034 0.009,-0.066 0.01,-0.1 0.025,-0.436 0.326,-0.73 0.775,-0.73 z m -15.207,6.013 H 182 v 1.125 A 2.818,2.818 0 0 1 179.154,270 h -3.547 z m 14.422,0 h 2.451 l 3.97,3.971 h -3.575 A 2.818,2.818 0 0 1 194,267.154 Z m 8.107,0 H 218 v 1.125 A 2.818,2.818 0 0 1 215.154,270 h -9.076 z"
       style="opacity:0.1;marker:none"
       id="path41"
       inkscape:connector-curvature="0" />
    <path
       style="color:#000000;font-weight:400;line-height:normal;font-family:sans-serif;font-variant-ligatures:normal;font-variant-position:normal;font-variant-caps:normal;font-variant-numeric:normal;font-variant-alternates:normal;font-feature-settings:normal;text-indent:0;text-align:start;text-decoration:none;text-decoration-line:none;text-decoration-style:solid;text-decoration-color:#000000;text-transform:none;text-orientation:mixed;white-space:normal;shape-padding:0;overflow:visible;isolation:auto;mix-blend-mode:normal;solid-color:#000000;solid-opacity:1;fill:#949390"
       d="m 169.383,274.225 c -2.112,-2.164 -1.492,-4.164 -0.375,-5.282 l 8.913,-8.914 H 222 v 4 h -42.421 z"
       font-weight="400"
       overflow="visible"
       id="path43"
       inkscape:connector-curvature="0" />
    <path
       style="color:#000000;font-weight:400;line-height:normal;font-family:sans-serif;font-variant-ligatures:normal;font-variant-position:normal;font-variant-caps:normal;font-variant-numeric:normal;font-variant-alternates:normal;font-feature-settings:normal;text-indent:0;text-align:start;text-decoration:none;text-decoration-line:none;text-decoration-style:solid;text-decoration-color:#000000;text-transform:none;text-orientation:mixed;white-space:normal;shape-padding:0;overflow:visible;isolation:auto;mix-blend-mode:normal;solid-color:#000000;solid-opacity:1;fill:#949390"
       d="m 206.617,274.195 c 2.112,-2.164 1.492,-4.164 0.375,-5.281 L 198.08,260 H 154 v 4 h 42.421 z"
       font-weight="400"
       overflow="visible"
       id="path45"
       inkscape:connector-curvature="0" />
    <path
       style="fill:none;stroke:#1a5fb4;stroke-width:2;stroke-linecap:round;marker:none"
       d="m 183,257.777 a 5,4.775 0 0 1 2.5,-4.136 5,4.775 0 0 1 5,0 5,4.775 0 0 1 2.5,4.136"
       id="path47"
       inkscape:connector-curvature="0" />
    <path
       d="M 180.73,269 H 159.27 A 2.264,2.264 0 0 1 157,266.73 v -7.46 a 2.264,2.264 0 0 1 2.27,-2.27 h 21.46 a 2.264,2.264 0 0 1 2.27,2.27 v 7.46 a 2.264,2.264 0 0 1 -2.27,2.27 z"
       style="fill:#ffffff;fill-opacity:0.44100001;marker:none"
       id="path49"
       inkscape:connector-curvature="0" />
    <path
       d="m 160.845,269 h 18.31 A 3.836,3.836 0 0 0 183,265.155 v -6.31 A 3.836,3.836 0 0 0 179.155,255 h -18.31 A 3.836,3.836 0 0 0 157,258.845 v 6.31 a 3.836,3.836 0 0 0 3.845,3.845 z"
       style="fill:none;stroke:#1a5fb4;stroke-width:2;stroke-linecap:round;marker:none"
       id="path51"
       inkscape:connector-curvature="0" />
    <path
       d="M 216.73,269 H 195.27 A 2.264,2.264 0 0 1 193,266.73 v -7.46 a 2.264,2.264 0 0 1 2.27,-2.27 h 21.46 a 2.264,2.264 0 0 1 2.27,2.27 v 7.46 a 2.264,2.264 0 0 1 -2.27,2.27 z"
       style="fill:#ffffff;fill-opacity:0.44100001;marker:none"
       id="path53"
       inkscape:connector-curvature="0" />
    <path
       d="m 196.845,269 h 18.31 A 3.836,3.836 0 0 0 219,265.155 v -6.31 A 3.836,3.836 0 0 0 215.155,255 h -18.31 A 3.836,3.836 0 0 0 193,258.845 v 6.31 a 3.836,3.836 0 0 0 3.845,3.845 z"
       style="fill:none;stroke:#1a5fb4;stroke-width:2;stroke-linecap:round;marker:none"
       id="path55"
       inkscape:connector-curvature="0" />
    <path
       d="m 222,256 c 0,-1.063 -0.828,-2 -2,-2 h -24 c 0,0 -4,0 -4,4 v 4 h 2 v -3.2 c 0,-0.468 0.316,-0.784 0.785,-0.784 h 23.43 c 0.469,0 0.925,0.337 0.785,0.785 V 262 h 1 c 2,0 2,2 2,2 z m -38,6 v -4 c 0,0 0,-4 -4,-4 h -24 c -0.88,0 -2,0.905 -2,2 v 8 c 0,0 0,-2 2,-2 h 1 v -3.215 c 0,-0.469 0.316,-0.785 0.785,-0.785 h 23.43 c 0.469,0 0.737,0.319 0.785,0.785 l 0.125,3.215 z"
       style="color:#000000;font-weight:400;line-height:normal;font-family:sans-serif;font-variant-ligatures:normal;font-variant-position:normal;font-variant-caps:normal;font-variant-numeric:normal;font-variant-alternates:normal;font-feature-settings:normal;text-indent:0;text-align:start;text-decoration:none;text-decoration-line:none;text-decoration-style:solid;text-decoration-color:#000000;text-transform:none;text-orientation:mixed;white-space:normal;shape-padding:0;overflow:visible;isolation:auto;mix-blend-mode:normal;solid-color:#000000;solid-opacity:1;fill:#1a5fb4;marker:none"
       font-weight="400"
       overflow="visible"
       id="path57"
       inkscape:connector-curvature="0" />
    <rect
       style="fill:#f66151;marker:none"
       width="32"
       height="32"
       x="208.00101"
       y="210"
       rx="0"
       ry="0"
       id="rect59" />
    <path
       d="m 209.71,235.207 a 41.947,41.947 0 0 0 14.33,-7.194 c 1.441,-1.114 2.838,-2.357 3.717,-3.952 0.44,-0.798 0.741,-1.678 0.824,-2.585 0.082,-0.907 -0.062,-1.841 -0.468,-2.656 a 4.788,4.788 0 0 0 -1.525,-1.755 5.755,5.755 0 0 0 -2.144,-0.918 c -1.533,-0.32 -3.144,-0.064 -4.609,0.49 -1.762,0.669 -3.374,1.785 -4.507,3.291 -1.134,1.507 -1.766,3.412 -1.62,5.292 0.096,1.218 0.513,2.405 1.156,3.444 0.643,1.04 1.509,1.935 2.496,2.656 1.975,1.442 4.395,2.171 6.82,2.482 5.52,0.706 11.285,-0.715 15.845,-3.905 l -0.024,-5.188 c -3.574,3.943 -8.657,6.483 -13.956,6.975 -2.287,0.212 -4.67,0.039 -6.736,-0.966 -1.033,-0.502 -1.973,-1.21 -2.692,-2.106 -0.72,-0.895 -1.214,-1.98 -1.355,-3.12 -0.206,-1.663 0.358,-3.38 1.398,-4.694 1.04,-1.314 2.527,-2.239 4.127,-2.74 0.883,-0.275 1.818,-0.429 2.736,-0.311 0.917,0.118 1.817,0.527 2.415,1.233 0.484,0.572 0.75,1.313 0.796,2.061 0.047,0.748 -0.117,1.501 -0.415,2.189 -0.595,1.375 -1.693,2.464 -2.812,3.46 a 46.823,46.823 0 0 1 -13.796,8.517 z"
       style="color:#000000;overflow:visible;fill:#ffffff;marker:none"
       overflow="visible"
       id="path61"
       inkscape:connector-curvature="0" />
    <path
       style="color:#000000;font-weight:400;line-height:normal;font-family:sans-serif;font-variant-ligatures:normal;font-variant-position:normal;font-variant-caps:normal;font-variant-numeric:normal;font-variant-alternates:normal;font-feature-settings:normal;text-indent:0;text-align:start;text-decoration:none;text-decoration-line:none;text-decoration-style:solid;text-decoration-color:#000000;text-transform:none;text-orientation:mixed;white-space:normal;shape-padding:0;overflow:visible;isolation:auto;mix-blend-mode:normal;solid-color:#000000;solid-opacity:1;fill:#77767b;fill-rule:evenodd"
       d="m 168,192 v 4 h 40 v -4 z"
       font-weight="400"
       overflow="visible"
       id="path63"
       inkscape:connector-curvature="0" />
    <path
       style="color:#000000;overflow:visible;fill:#deddda;marker:none"
       d="m 168,222 h 36 v 18 h -16 v 4 h -20 z m 36,-16 v 12 h -36 v -18 h 72 v 6 z"
       overflow="visible"
       id="path65"
       inkscape:connector-curvature="0" />
  </g>
</svg>
