<?xml version="1.0" encoding="UTF-8" standalone="no"?>
<svg
   xmlns:dc="http://purl.org/dc/elements/1.1/"
   xmlns:cc="http://creativecommons.org/ns#"
   xmlns:rdf="http://www.w3.org/1999/02/22-rdf-syntax-ns#"
   xmlns:svg="http://www.w3.org/2000/svg"
   xmlns="http://www.w3.org/2000/svg"
   xmlns:xlink="http://www.w3.org/1999/xlink"
   xmlns:sodipodi="http://sodipodi.sourceforge.net/DTD/sodipodi-0.dtd"
   xmlns:inkscape="http://www.inkscape.org/namespaces/inkscape"
   width="128"
   height="128"
   version="1.0"
   viewBox="0 0 128 128"
   style="enable-background:new"
   id="svg36"
   sodipodi:docname="mailspring.svg"
   inkscape:version="0.92.4 (unknown)">
  <metadata
     id="metadata40">
    <rdf:RDF>
      <cc:Work
         rdf:about="">
        <dc:format>image/svg+xml</dc:format>
        <dc:type
           rdf:resource="http://purl.org/dc/dcmitype/StillImage" />
        <dc:title>
  Adwaita Icon Template
 </dc:title>
      </cc:Work>
    </rdf:RDF>
  </metadata>
  <sodipodi:namedview
     pagecolor="#ffffff"
     bordercolor="#666666"
     borderopacity="1"
     objecttolerance="10"
     gridtolerance="10"
     guidetolerance="10"
     inkscape:pageopacity="0"
     inkscape:pageshadow="2"
     inkscape:window-width="1366"
     inkscape:window-height="704"
     id="namedview38"
     showgrid="false"
     inkscape:zoom="2"
     inkscape:cx="37.91626"
     inkscape:cy="43.633544"
     inkscape:window-x="0"
     inkscape:window-y="27"
     inkscape:window-maximized="1"
     inkscape:current-layer="layer9"
     inkscape:snap-bbox="true"
     inkscape:snap-object-midpoints="true" />
  <title
     id="title4162">
  Adwaita Icon Template
 </title>
  <defs
     id="defs16">
    <linearGradient
       id="linearGradient965"
       x1="48"
       x2="464"
       y1="44"
       y2="44"
       gradientUnits="userSpaceOnUse">
      <stop
         id="stop989"
         offset="0"
         style="stop-color:#77767b" />
      <stop
         id="stop991"
         offset=".05"
         style="stop-color:#c0bfbc" />
      <stop
         id="stop993"
         offset=".1"
         style="stop-color:#9a9996" />
      <stop
         id="stop995"
         offset=".9"
         style="stop-color:#9a9996" />
      <stop
         id="stop997"
         offset=".95"
         style="stop-color:#c0bfbc" />
      <stop
         id="stop999"
         offset="1"
         style="stop-color:#77767b" />
    </linearGradient>
    <radialGradient
       id="radialGradient1030"
       cx="64"
       cy="194.19"
       r="44"
       gradientTransform="matrix(-4.7273 7.9359e-7 -3.0301e-7 -1.6364 238.55 49.766)"
       gradientUnits="userSpaceOnUse">
      <stop
         id="stop1016"
         offset="0"
         style="stop-color:#fff" />
      <stop
         id="stop1018"
         offset="1"
         style="stop-color:#fff;stop-opacity:.094118" />
    </radialGradient>
    <linearGradient
       id="linearGradient1950"
       x1="70.347"
       x2="70.347"
       y1="245.4"
       y2="269.14"
       gradientUnits="userSpaceOnUse">
      <stop
         id="stop1944"
         offset="0"
         style="stop-color:#2d2839" />
      <stop
         id="stop1946"
         offset="1"
         style="stop-color:#282433" />
    </linearGradient>
    <linearGradient
       inkscape:collect="always"
       xlink:href="#linearGradient934"
       id="linearGradient863"
       x1="4.0077119"
       y1="32.09996"
       x2="4.9126749"
       y2="60.863625"
       gradientUnits="userSpaceOnUse" />
    <linearGradient
       inkscape:collect="always"
       id="linearGradient934">
      <stop
         style="stop-color:#00a3fe;stop-opacity:1"
         offset="0"
         id="stop930" />
      <stop
         style="stop-color:#00f5ba;stop-opacity:1"
         offset="1"
         id="stop932" />
    </linearGradient>
    <linearGradient
       inkscape:collect="always"
       xlink:href="#linearGradient934"
       id="linearGradient1187"
       gradientUnits="userSpaceOnUse"
       x1="51.86377"
       y1="28.86017"
       x2="51.728813"
       y2="58.555084" />
    <linearGradient
       inkscape:collect="always"
       xlink:href="#linearGradient934"
       id="linearGradient1189"
       gradientUnits="userSpaceOnUse"
       x1="31.661013"
       y1="21.016949"
       x2="32.067787"
       y2="45.966099" />
    <linearGradient
       gradientTransform="translate(186.7853,106.85899)"
       inkscape:collect="always"
       xlink:href="#linearGradient826"
       id="linearGradient828"
       x1="63.276093"
       y1="120.13428"
       x2="66.68737"
       y2="39.59602"
       gradientUnits="userSpaceOnUse" />
    <linearGradient
       inkscape:collect="always"
       id="linearGradient826">
      <stop
         style="stop-color:#5ac8fa;stop-opacity:1"
         offset="0"
         id="stop822" />
      <stop
         style="stop-color:#53ecc8;stop-opacity:1"
         offset="1"
         id="stop824" />
    </linearGradient>
  </defs>
  <g
     id="layer1"
     transform="translate(0,-172)">
    <g
       id="layer9">
      <g
         transform="matrix(1.0476597,0,0,1.0476597,-3.4179445,-6.7144357)"
         style="fill:#ffffff"
         id="g30">
        <path
           d="M 44.012,210.89 30,203.2743 v 4.7282 l 9.7107,4.6295 v 0.1422 L 30,218.0025 v 4.7282 l 14.012,-8.2145 z"
           style="fill:#ffffff"
           id="path26"
           inkscape:connector-curvature="0" />
        <path
           d="m 48,226 2e-6,4 h 16 L 64,226 Z"
           style="fill:#ffffff"
           id="path28"
           inkscape:connector-curvature="0" />
      </g>
      <g
         id="g1185"
         transform="matrix(2.0535713,0,0,2.0535713,-2.4059429,172.52822)">
        <path
           inkscape:connector-curvature="0"
           id="path2"
           d="m 4,47.907 v 2 c 0,1.93 1.6,3.468 3.5,3.468 h 49 c 1.95,0 3.5,-1.538 3.5,-3.468 v -2 c 0,1.93 -1.55,3.468 -3.5,3.468 H 7.5 C 5.6,51.375 4,49.837 4,47.907 Z"
           style="opacity:0.2" />
        <path
           id="path4"
           d="M 54.791139,51.924051 52.151899,53 H 11.64557 L 9.7151899,52.113924 c -1.7267762,-0.792619 -3.4955564,-1.0567 -4.386076,-2.770797 v 0 L 5.1392405,14.910038 v 0 c 0,0 1.7845632,-0.698677 2.4873418,-2.517633 L 8.164557,11 h 47.594937 l 0.550633,1.012658 c 0.907625,1.669196 1.367775,2.229515 2.42405,3.846747 v 0 L 59.050633,49.533 v 0 c 0,0 -2.453782,1.654909 -4.259494,2.391051 z"
           style="fill:#f9f9f9"
           inkscape:connector-curvature="0" />
        <path
           id="path6"
           d="m 7.4882,11.2003 c -1.6992,0 -3.0944,1.211 -3.4182,2.7734 -2.55e-4,0.0012 2.538e-4,0.0027 0,0.0039 -0.06094,0.46162 -0.062288,0.8164 -0.062288,0.8164 v 34.7097 c 0,1.92028 1.54384,3.518 3.4842,3.496 h 4.5158 V 14.794 c 0,-0.2342 -0.024,-0.4472 -0.07,-0.637 -0.232,-0.999 -1.4152,-2.1254 -2.624,-2.957 z"
           style="fill:url(#linearGradient863);fill-opacity:1"
           inkscape:connector-curvature="0" />
        <path
           id="path8"
           d="m 7.5,11 c -1.95,0 -1.5727273,1.913823 -1.5727273,3.796023 v 1 C 5.9272727,13.913823 5.55,12 7.5,12 h 49 c 1.9,0 -0.754545,3.282605 -0.754545,5.214205 v -1 c 0,-1.9316 0.945642,-2.740628 0.536363,-4.596023 L 56.145455,11 h -0.363637 z"
           style="opacity:0.2;fill:#ffffff"
           inkscape:connector-curvature="0" />
        <path
           id="path10"
           d="M 55.308,11.5 C 53.634,11.978 51.962,12.924 52,14.496 V 53 h 4.43 C 58.448,53 60,51.44 60,49.554 V 14.968 C 60,13.0372 58.4,11.5 56.5,11.5 Z"
           style="fill:url(#linearGradient1187);fill-opacity:1"
           inkscape:connector-curvature="0" />
        <path
           inkscape:connector-curvature="0"
           id="path12"
           d="m 56.05749,11.327387 a 3.9927108,3.9931005 0 0 0 -2.489347,0.832462 L 32.010051,28.329509 10.451959,12.159849 A 3.9927108,3.9931005 0 1 0 5.6604051,18.546612 L 29.614274,36.513767 a 3.9927108,3.9931005 0 0 0 4.791554,0 L 58.359698,18.546612 A 3.9927108,3.9931005 0 0 0 56.05749,11.327387 Z"
           style="opacity:0.2;fill-rule:evenodd" />
        <path
           id="path14"
           d="m 56.05749,11.014887 a 3.9927108,3.9931005 0 0 0 -2.489347,0.832462 L 32.010051,28.017009 10.451959,11.847349 A 3.9927108,3.9931005 0 1 0 5.6604051,18.234112 L 29.614274,36.201267 a 3.9927108,3.9931005 0 0 0 4.791554,0 L 58.359698,18.234112 A 3.9927108,3.9931005 0 0 0 56.05749,11.014887 Z"
           style="fill:url(#linearGradient1189);fill-opacity:1;fill-rule:evenodd"
           inkscape:connector-curvature="0" />
      </g>
      <circle
         style="opacity:1;fill:url(#linearGradient828);fill-opacity:1;fill-rule:nonzero;stroke:#ffffff;stroke-width:3.02362204;stroke-linecap:butt;stroke-linejoin:round;stroke-miterlimit:4;stroke-dasharray:none;stroke-dashoffset:26.45668983;stroke-opacity:1"
         id="path845"
         cx="251"
         cy="171"
         r="58.003948" />
    </g>
  </g>
</svg>
