<?xml version="1.0" encoding="UTF-8" standalone="no"?>
<svg
   xmlns:dc="http://purl.org/dc/elements/1.1/"
   xmlns:cc="http://creativecommons.org/ns#"
   xmlns:rdf="http://www.w3.org/1999/02/22-rdf-syntax-ns#"
   xmlns:svg="http://www.w3.org/2000/svg"
   xmlns="http://www.w3.org/2000/svg"
   xmlns:xlink="http://www.w3.org/1999/xlink"
   xmlns:sodipodi="http://sodipodi.sourceforge.net/DTD/sodipodi-0.dtd"
   xmlns:inkscape="http://www.inkscape.org/namespaces/inkscape"
   width="128"
   height="128"
   version="1.0"
   viewBox="0 0 128 128"
   style="enable-background:new"
   id="svg36"
   sodipodi:docname="network-firewall.svg"
   inkscape:version="0.92.4 (unknown)">
  <metadata
     id="metadata40">
    <rdf:RDF>
      <cc:Work
         rdf:about="">
        <dc:format>image/svg+xml</dc:format>
        <dc:type
           rdf:resource="http://purl.org/dc/dcmitype/StillImage" />
        <dc:title>
  Adwaita Icon Template
 </dc:title>
      </cc:Work>
    </rdf:RDF>
  </metadata>
  <sodipodi:namedview
     pagecolor="#ffffff"
     bordercolor="#666666"
     borderopacity="1"
     objecttolerance="10"
     gridtolerance="10"
     guidetolerance="10"
     inkscape:pageopacity="0"
     inkscape:pageshadow="2"
     inkscape:window-width="1366"
     inkscape:window-height="692"
     id="namedview38"
     showgrid="false"
     inkscape:zoom="2"
     inkscape:cx="43.960815"
     inkscape:cy="22.173732"
     inkscape:window-x="0"
     inkscape:window-y="0"
     inkscape:window-maximized="1"
     inkscape:current-layer="layer9"
     inkscape:snap-bbox="true"
     inkscape:snap-object-midpoints="true" />
  <title
     id="title4162">
  Adwaita Icon Template
 </title>
  <defs
     id="defs16">
    <linearGradient
       id="linearGradient965"
       x1="48"
       x2="464"
       y1="44"
       y2="44"
       gradientUnits="userSpaceOnUse">
      <stop
         id="stop989"
         offset="0"
         style="stop-color:#77767b" />
      <stop
         id="stop991"
         offset=".05"
         style="stop-color:#c0bfbc" />
      <stop
         id="stop993"
         offset=".1"
         style="stop-color:#9a9996" />
      <stop
         id="stop995"
         offset=".9"
         style="stop-color:#9a9996" />
      <stop
         id="stop997"
         offset=".95"
         style="stop-color:#c0bfbc" />
      <stop
         id="stop999"
         offset="1"
         style="stop-color:#77767b" />
    </linearGradient>
    <radialGradient
       id="radialGradient1030"
       cx="64"
       cy="194.19"
       r="44"
       gradientTransform="matrix(-4.7273 7.9359e-7 -3.0301e-7 -1.6364 238.55 49.766)"
       gradientUnits="userSpaceOnUse">
      <stop
         id="stop1016"
         offset="0"
         style="stop-color:#fff" />
      <stop
         id="stop1018"
         offset="1"
         style="stop-color:#fff;stop-opacity:.094118" />
    </radialGradient>
    <linearGradient
       id="linearGradient1950"
       x1="70.347"
       x2="70.347"
       y1="245.4"
       y2="269.14"
       gradientUnits="userSpaceOnUse">
      <stop
         id="stop1944"
         offset="0"
         style="stop-color:#2d2839" />
      <stop
         id="stop1946"
         offset="1"
         style="stop-color:#282433" />
    </linearGradient>
    <linearGradient
       inkscape:collect="always"
       xlink:href="#linearGradient2229"
       id="linearGradient2245"
       gradientUnits="userSpaceOnUse"
       x1="25.405258"
       y1="44.140297"
       x2="30.48641"
       y2="19.816135" />
    <linearGradient
       inkscape:collect="always"
       id="linearGradient2229">
      <stop
         style="stop-color:#ffff00;stop-opacity:1"
         offset="0"
         id="stop2225" />
      <stop
         style="stop-color:#ff9955;stop-opacity:1"
         offset="1"
         id="stop2227" />
    </linearGradient>
    <linearGradient
       inkscape:collect="always"
       xlink:href="#linearGradient2237"
       id="linearGradient2239"
       x1="32.398064"
       y1="46.595432"
       x2="34.187916"
       y2="32.828632"
       gradientUnits="userSpaceOnUse" />
    <linearGradient
       inkscape:collect="always"
       id="linearGradient2237">
      <stop
         style="stop-color:#e57e25;stop-opacity:1"
         offset="0"
         id="stop2233" />
      <stop
         style="stop-color:#ff6600;stop-opacity:1"
         offset="1"
         id="stop2235" />
    </linearGradient>
  </defs>
  <g
     id="layer1"
     transform="translate(0,-172)">
    <g
       id="layer9">
      <g
         transform="translate(13.78448,231.15885)"
         id="g2278">
        <rect
           x="-1.6535873"
           id="rect960"
           height="24.375315"
           width="35.162712"
           style="fill:#d75a4a;stroke-width:1.86280692"
           y="-17.924538" />
        <rect
           id="rect962"
           height="24.375315"
           width="35.162712"
           style="fill:#ed7161;stroke-width:1.86280692"
           y="-17.924538"
           x="33.509117" />
        <rect
           id="rect964"
           height="24.375315"
           width="37.013378"
           style="fill:#d75a4a;stroke-width:1.86280692"
           y="-17.924538"
           x="68.671829" />
        <rect
           id="rect966"
           height="24.375315"
           width="35.162712"
           style="fill:#d75a4a;stroke-width:1.86280692"
           y="6.4507771"
           x="16.853104" />
        <rect
           x="-1.6535873"
           id="rect968"
           height="24.375315"
           width="18.506689"
           style="fill:#ed7161;stroke-width:1.86280692"
           y="6.4507771" />
        <rect
           id="rect970"
           height="24.375315"
           width="18.506689"
           style="fill:#d75a4a;stroke-width:1.86280692"
           y="6.4507771"
           x="87.178513" />
        <rect
           id="rect972"
           height="24.375315"
           width="35.162712"
           style="fill:#ed7161;stroke-width:1.86280692"
           y="6.4507771"
           x="52.015808" />
        <rect
           id="rect974"
           height="24.375315"
           width="35.162712"
           style="fill:#d75a4a;stroke-width:1.86280692"
           y="-42.299847"
           x="16.853104" />
        <path
           inkscape:connector-curvature="0"
           id="path976"
           d="M 16.8531,-17.924539 H -1.65359 v -20.719016 c 0,-2.019401 1.61563,-3.656297 3.60881,-3.656297 H 16.8531 Z"
           style="fill:#ed7161;stroke-width:1.86280692" />
        <path
           inkscape:connector-curvature="0"
           id="path978"
           d="m 105.68521,-17.924539 h -18.5067 v -24.375313 h 14.89788 c 1.99318,0 3.60882,1.636896 3.60882,3.656297 z"
           style="fill:#d75a4a;stroke-width:1.86280692" />
        <rect
           id="rect980"
           height="24.375315"
           width="35.162712"
           style="fill:#ed7161;stroke-width:1.86280692"
           y="-42.299847"
           x="52.015808" />
        <path
           inkscape:connector-curvature="0"
           id="path982"
           d="M 33.50912,55.201404 H 1.95522 c -1.99318,0 -3.60881,-1.636898 -3.60881,-3.656299 V 30.826088 h 35.16271 z"
           style="fill:#d75a4a;stroke-width:1.86280692" />
        <rect
           id="rect984"
           height="24.375315"
           width="35.162712"
           style="fill:#ed7161;stroke-width:1.86280692"
           y="30.826088"
           x="33.509117" />
        <path
           inkscape:connector-curvature="0"
           id="path986"
           d="M 102.07639,55.201404 H 68.67183 V 30.826088 h 37.01338 v 20.719017 c 0,2.019401 -1.61564,3.656299 -3.60882,3.656299 z"
           style="fill:#d75a4a;stroke-width:1.86280692" />
        <rect
           x="-1.6535873"
           id="rect988"
           height="3.7500482"
           width="107.33879"
           style="fill:#d1d4d1;stroke-width:1.86280692"
           y="-19.799564" />
        <rect
           x="-1.6535873"
           id="rect990"
           height="3.7500482"
           width="107.33879"
           style="fill:#d1d4d1;stroke-width:1.86280692"
           y="4.5757527" />
        <rect
           x="-1.6535873"
           id="rect992"
           height="3.7500482"
           width="107.33879"
           style="fill:#d1d4d1;stroke-width:1.86280692"
           y="28.951065" />
        <rect
           id="rect994"
           height="22.50029"
           width="3.7013378"
           style="fill:#d1d4d1;stroke-width:1.86280692"
           y="-42.299847"
           x="15.002441" />
        <rect
           id="rect996"
           height="22.50029"
           width="3.7013378"
           style="fill:#d1d4d1;stroke-width:1.86280692"
           y="-42.299847"
           x="50.165131" />
        <rect
           id="rect998"
           height="22.50029"
           width="3.7013378"
           style="fill:#d1d4d1;stroke-width:1.86280692"
           y="-42.299847"
           x="85.32785" />
        <rect
           id="rect1000"
           height="22.50029"
           width="3.7013378"
           style="fill:#d1d4d1;stroke-width:1.86280692"
           y="-16.049513"
           x="66.821167" />
        <rect
           id="rect1002"
           height="22.50029"
           width="3.7013378"
           style="fill:#d1d4d1;stroke-width:1.86280692"
           y="-16.049513"
           x="31.658432" />
        <rect
           id="rect1004"
           height="22.50029"
           width="3.7013378"
           style="fill:#d1d4d1;stroke-width:1.86280692"
           y="8.3258018"
           x="15.002441" />
        <rect
           id="rect1006"
           height="22.50029"
           width="3.7013378"
           style="fill:#d1d4d1;stroke-width:1.86280692"
           y="8.3258018"
           x="50.165131" />
        <rect
           id="rect1008"
           height="22.50029"
           width="3.7013378"
           style="fill:#d1d4d1;stroke-width:1.86280692"
           y="8.3258018"
           x="85.32785" />
        <rect
           id="rect1010"
           height="22.50029"
           width="3.7013378"
           style="fill:#d1d4d1;stroke-width:1.86280692"
           y="32.701111"
           x="66.821167" />
        <rect
           id="rect1012"
           height="22.50029"
           width="3.7013378"
           style="fill:#d1d4d1;stroke-width:1.86280692"
           y="32.701111"
           x="31.658432" />
        <g
           id="g10"
           style="color:#000000;stroke-width:0.53540999"
           transform="matrix(2.9056226,0,0,2.9056226,-78.928505,-88.441083)">
          <g
             transform="translate(19.610961,3.243012)"
             id="g2243">
            <path
               inkscape:connector-curvature="0"
               d="m 29.617,16.947 c -0.125,5.221 -1.775,9.796 -4.95,13.723 -0.125,-1.546 -0.603,-3.092 -1.439,-4.638 -0.083,1.17 -0.555,2.727 -1.41,4.67 -0.857,1.941 -1.39,3.349 -1.598,4.226 -0.46,2.213 -0.199,4.156 0.783,5.827 0.981,1.67 2.913,3.32 5.795,4.95 4.36,1.698 6.043,1.78 9.65,0 2.047,-1.17 3.676,-2.455 4.887,-3.855 1.212,-1.399 1.983,-2.756 2.317,-4.072 0.334,-1.315 0.427,-2.673 0.281,-4.072 -0.146,-1.4 -0.478,-2.663 -1,-3.791 A 23.692,23.692 0 0 0 41.146,26.72 c -0.669,-1.002 -1.272,-1.795 -1.815,-2.38 -0.543,-0.585 -0.982,-1.002 -1.317,-1.253 0.293,0.794 0.396,1.65 0.313,2.57 -0.084,0.918 -0.29,1.754 -0.625,2.506 C 37.577,26.91 37.209,25.656 36.603,24.403 35.998,23.15 35.351,22.115 34.662,21.3 a 19.505,19.505 0 0 0 -2.38,-2.348 C 31.384,18.2 30.766,17.71 30.432,17.481 a 16.65,16.65 0 0 0 -0.815,-0.534 z"
               overflow="visible"
               style="overflow:visible;isolation:auto;mix-blend-mode:normal;solid-color:#000000;fill:url(#linearGradient2245);fill-opacity:1"
               id="path6" />
            <path
               inkscape:connector-curvature="0"
               d="m 36.448,45.705 c 1.378,-2.757 1.65,-5.733 0.814,-8.928 -0.835,-3.196 -2.485,-5.65 -4.95,-7.362 0.21,0.919 0.094,2.433 -0.344,4.542 -0.439,2.11 -1.138,3.707 -2.1,4.793 0.168,-1.336 0.21,-2.422 0.126,-3.258 -0.083,-0.835 -0.209,-1.461 -0.376,-1.88 l -0.313,-0.563 c -0.25,1.504 -0.898,3.007 -1.942,4.511 -0.543,0.794 -0.95,1.525 -1.222,2.193 -0.271,0.668 -0.376,1.524 -0.313,2.569 0.062,1.044 0.386,2.172 0.97,3.383 0,0 1.652,1.348 3.493,1.348 4.462,0 4.665,-0.496 6.157,-1.348 z"
               overflow="visible"
               style="overflow:visible;isolation:auto;mix-blend-mode:normal;solid-color:#000000;fill:url(#linearGradient2239);fill-opacity:1"
               id="path8" />
          </g>
        </g>
      </g>
    </g>
  </g>
</svg>
