<?xml version="1.0" encoding="UTF-8" standalone="no"?>
<svg
   xmlns:dc="http://purl.org/dc/elements/1.1/"
   xmlns:cc="http://creativecommons.org/ns#"
   xmlns:rdf="http://www.w3.org/1999/02/22-rdf-syntax-ns#"
   xmlns:svg="http://www.w3.org/2000/svg"
   xmlns="http://www.w3.org/2000/svg"
   xmlns:xlink="http://www.w3.org/1999/xlink"
   xmlns:sodipodi="http://sodipodi.sourceforge.net/DTD/sodipodi-0.dtd"
   xmlns:inkscape="http://www.inkscape.org/namespaces/inkscape"
   width="128"
   height="128"
   version="1.0"
   id="svg146"
   sodipodi:docname="org.gnome.Photos.svg"
   inkscape:version="0.92.4 5da689c313, 2019-01-14">
  <metadata
     id="metadata150">
    <rdf:RDF>
      <cc:Work
         rdf:about="">
        <dc:format>image/svg+xml</dc:format>
        <dc:type
           rdf:resource="http://purl.org/dc/dcmitype/StillImage" />
      </cc:Work>
    </rdf:RDF>
  </metadata>
  <sodipodi:namedview
     pagecolor="#ffffff"
     bordercolor="#666666"
     borderopacity="1"
     objecttolerance="10"
     gridtolerance="10"
     guidetolerance="10"
     inkscape:pageopacity="0"
     inkscape:pageshadow="2"
     inkscape:window-width="1366"
     inkscape:window-height="704"
     id="namedview148"
     showgrid="false"
     inkscape:zoom="2.8284271"
     inkscape:cx="89.292015"
     inkscape:cy="31.898117"
     inkscape:window-x="0"
     inkscape:window-y="27"
     inkscape:window-maximized="1"
     inkscape:current-layer="svg146" />
  <defs
     id="defs116">
    <linearGradient
       id="o">
      <stop
         offset="0"
         stop-color="#f5f4f3"
         id="stop2" />
      <stop
         offset="1"
         stop-color="#ecebea"
         id="stop4" />
    </linearGradient>
    <linearGradient
       id="w">
      <stop
         offset="0"
         stop-color="#1a5fb4"
         id="stop7" />
      <stop
         offset="1"
         stop-color="#3584e4"
         id="stop9" />
    </linearGradient>
    <linearGradient
       id="v">
      <stop
         offset="0"
         stop-color="#613583"
         id="stop12" />
      <stop
         offset="1"
         stop-color="#a347ba"
         id="stop14" />
    </linearGradient>
    <linearGradient
       id="u">
      <stop
         offset="0"
         stop-color="#a51d2d"
         id="stop17" />
      <stop
         offset="1"
         stop-color="#e01b24"
         id="stop19" />
    </linearGradient>
    <linearGradient
       id="t">
      <stop
         offset="0"
         stop-color="#c64600"
         id="stop22" />
      <stop
         offset="1"
         stop-color="#ff7800"
         id="stop24" />
    </linearGradient>
    <linearGradient
       id="s">
      <stop
         offset="0"
         stop-color="#e5a50a"
         id="stop27" />
      <stop
         offset="1"
         stop-color="#f6d32d"
         id="stop29" />
    </linearGradient>
    <linearGradient
       id="x">
      <stop
         offset="0"
         stop-color="#26a269"
         id="stop32" />
      <stop
         offset="1"
         stop-color="#33d17a"
         id="stop34" />
    </linearGradient>
    <linearGradient
       id="m">
      <stop
         offset="0"
         stop-color="#813d9c"
         id="stop37" />
      <stop
         offset="1"
         stop-color="#c061cb"
         stop-opacity="0"
         id="stop39" />
    </linearGradient>
    <linearGradient
       id="n">
      <stop
         offset="0"
         stop-color="#1a5fb4"
         id="stop42" />
      <stop
         offset="1"
         stop-color="#1a5fb4"
         stop-opacity="0"
         id="stop44" />
    </linearGradient>
    <linearGradient
       id="g">
      <stop
         offset="0"
         stop-color="#4fd2fd"
         id="stop47" />
      <stop
         offset="1"
         stop-color="#1c71d8"
         stop-opacity="0"
         id="stop49" />
    </linearGradient>
    <linearGradient
       id="h">
      <stop
         offset="0"
         stop-color="#ed333b"
         id="stop52" />
      <stop
         offset="1"
         stop-color="#c061cb"
         id="stop54" />
    </linearGradient>
    <linearGradient
       id="l">
      <stop
         offset="0"
         stop-color="#f9f06b"
         id="stop57" />
      <stop
         offset="1"
         stop-color="#f9f06b"
         stop-opacity=".067"
         id="stop59" />
    </linearGradient>
    <linearGradient
       id="a">
      <stop
         offset="0"
         stop-color="#edece9"
         id="stop62" />
      <stop
         offset="1"
         stop-color="#fff"
         id="stop64" />
    </linearGradient>
    <linearGradient
       id="b">
      <stop
         offset="0"
         stop-color="#e0371b"
         id="stop67" />
      <stop
         offset="1"
         stop-color="#f6d32d"
         id="stop69" />
    </linearGradient>
    <linearGradient
       id="c">
      <stop
         offset="0"
         stop-color="#50db81"
         id="stop72" />
      <stop
         offset="1"
         stop-color="#8ff0a4"
         stop-opacity=".004"
         id="stop74" />
    </linearGradient>
    <linearGradient
       id="d">
      <stop
         offset="0"
         stop-color="#4a86cf"
         id="stop77" />
      <stop
         offset="1"
         stop-color="#87bae1"
         stop-opacity="0"
         id="stop79" />
    </linearGradient>
    <linearGradient
       id="e">
      <stop
         offset="0"
         stop-color="#eeeeec"
         id="stop82" />
      <stop
         offset="1"
         stop-color="#f6f5f4"
         id="stop84" />
    </linearGradient>
    <linearGradient
       id="f">
      <stop
         offset="0"
         stop-color="#949390"
         id="stop87" />
      <stop
         offset="1"
         stop-color="#d5d3cf"
         id="stop89" />
    </linearGradient>
    <linearGradient
       id="i">
      <stop
         offset="0"
         stop-color="#4fd2fd"
         id="stop92" />
      <stop
         offset="1"
         stop-color="#1c71d8"
         id="stop94" />
    </linearGradient>
    <linearGradient
       id="j">
      <stop
         offset="0"
         stop-color="#e01b24"
         id="stop97" />
      <stop
         offset="1"
         stop-color="#f66151"
         stop-opacity="0"
         id="stop99" />
    </linearGradient>
    <linearGradient
       id="k">
      <stop
         offset="0"
         stop-color="#c061cb"
         id="stop102" />
      <stop
         offset="1"
         stop-color="#813d9c"
         stop-opacity=".126"
         id="stop104" />
    </linearGradient>
    <linearGradient
       xlink:href="#o"
       id="p"
       gradientUnits="userSpaceOnUse"
       gradientTransform="translate(0 -172)"
       x1="21.006"
       y1="244.701"
       x2="62.049"
       y2="222.341" />
    <linearGradient
       xlink:href="#e"
       id="q"
       gradientUnits="userSpaceOnUse"
       gradientTransform="rotate(-112.5 6.537 150)"
       x1="83.5"
       y1="186.5"
       x2="42.789"
       y2="220.5" />
    <linearGradient
       xlink:href="#e"
       id="r"
       gradientUnits="userSpaceOnUse"
       gradientTransform="rotate(-112.5 92.536 92.537)"
       x1="83.5"
       y1="186.5"
       x2="42.789"
       y2="220.5" />
    <linearGradient
       xlink:href="#s"
       id="z"
       x1="82"
       y1="225.608"
       x2="64"
       y2="196"
       gradientUnits="userSpaceOnUse"
       gradientTransform="translate(0 -172)" />
    <linearGradient
       xlink:href="#t"
       id="B"
       x1="82.001"
       y1="246.393"
       x2="100"
       y2="216"
       gradientUnits="userSpaceOnUse"
       gradientTransform="translate(0 -172)" />
    <linearGradient
       xlink:href="#u"
       id="D"
       x1="64.499"
       y1="257.074"
       x2="100"
       y2="258"
       gradientUnits="userSpaceOnUse"
       gradientTransform="translate(0 -172)" />
    <linearGradient
       xlink:href="#v"
       id="y"
       x1="45.999"
       y1="246.969"
       x2="64"
       y2="276"
       gradientUnits="userSpaceOnUse"
       gradientTransform="translate(0 -172)" />
    <linearGradient
       xlink:href="#w"
       id="A"
       x1="45.999"
       y1="225.608"
       x2="28"
       y2="256.785"
       gradientUnits="userSpaceOnUse"
       gradientTransform="translate(0 -172)" />
    <linearGradient
       xlink:href="#x"
       id="C"
       x1="63.999"
       y1="215.215"
       x2="28"
       y2="215.216"
       gradientUnits="userSpaceOnUse"
       gradientTransform="translate(0 -172)" />
  </defs>
  <path
     d="M82 53.608v20.784L64 84.785 46 74.392V53.608l18-10.393z"
     id="path118"
     fill="#3d3846" />
  <path
     d="M28 43.216v41.569"
     id="path120"
     stroke-width="36"
     stroke="#33d17a"
     fill="none" />
  <path
     d="M64 105.57L28 84.785"
     id="path122"
     stroke-width="36"
     stroke="#3584e4"
     fill="none" />
  <path
     d="M64 105.57l36-20.787"
     id="path124"
     stroke-width="36"
     stroke="#a347ba"
     fill="none" />
  <path
     d="M100 43.215v41.568"
     id="path126"
     stroke-width="36"
     stroke="#e01b24"
     fill="none" />
  <path
     d="M100 43.215L64 22.43"
     id="path128"
     stroke-width="36"
     stroke="#ff7800"
     fill="none" />
  <path
     d="M28 43.216l36-20.785"
     id="path130"
     stroke-width="36"
     stroke="#f6d32d"
     fill="none" />
  <path
     d="M64 123.57c9.941 0 18-8.06 18-18a18 18 0 0 0-7.744-14.766l-9.258-5.442-.998-.576a419.435 419.435 0 0 1-8.534-4.96A18 18 0 0 1 46 64v41.568c0 9.941 8.059 18 18 18zm-17.934-19.452c.024-.283.065-.562.102-.842-.04.28-.074.56-.102.842zm.938-4.412c.026-.075.045-.154.072-.229l.004-.002-.076.23z"
     id="path132"
     fill="url(#y)" />
  <path
     d="M64 4.432c-9.941 0-18 8.059-18 18a18 18 0 0 0 7.744 14.765l9.258 5.442.998.576a419.435 419.435 0 0 1 8.534 4.96A18 18 0 0 1 82 64V22.432c0-9.941-8.059-18-18-18zm17.934 19.45c-.024.284-.065.563-.102.843.04-.28.074-.56.102-.842zm-.938 4.413c-.026.075-.045.153-.072.228l-.004.002z"
     id="path134"
     fill="url(#z)" />
  <path
     d="M12.412 93.785c4.97 8.61 15.98 11.559 24.588 6.588a18 18 0 0 0 8.916-14.09l.083-10.737v-1.153c-.03-3.185-.017-6.864.03-9.87a18 18 0 0 1 8.97-16.11l-9 5.195-18 10.393-4.068 2.349-4.93 2.846c-8.61 4.97-11.56 15.98-6.589 24.589zm7.878-25.257c.257-.12.52-.224.78-.333a19.02 19.02 0 0 0-.78.333zm4.29-1.394c.078-.015.156-.038.234-.052l.004.002z"
     id="path136"
     fill="url(#A)" />
  <path
     d="M115.588 34.216c-4.97-8.61-15.98-11.559-24.588-6.588a18 18 0 0 0-8.916 14.089l-.083 10.738v1.153c.03 3.185.017 6.864-.03 9.87a18 18 0 0 1-8.97 16.11l9-5.196L100 64l4.068-2.349 4.93-2.846c8.61-4.971 11.56-15.98 6.589-24.589zm-7.878 25.257c-.257.12-.52.224-.78.333.262-.105.522-.216.78-.333zm-4.29 1.394c-.078.015-.156.037-.234.051l-.004-.002c.08-.015.158-.032.238-.049z"
     id="path138"
     fill="url(#B)" />
  <path
     d="M12.412 34.216c-4.97 8.61-2.02 19.618 6.588 24.588a18 18 0 0 0 16.66.677L45 54.184l.998-.576a419.443 419.443 0 0 1 8.563-4.91A18 18 0 0 1 73 48.412l-9-5.197-18.001-10.392-4.068-2.349-4.93-2.846c-8.61-4.971-19.619-2.021-24.59 6.588zm25.812-5.805c.233.162.454.337.678.509a18.002 18.002 0 0 0-.678-.51zm3.352 3.018c.052.06.11.115.162.176v.004z"
     id="path140"
     fill="url(#C)" />
  <path
     d="M115.588 93.785c4.97-8.61 2.02-19.618-6.588-24.589a18 18 0 0 0-16.66-.676L83 73.817l-.998.576a419.416 419.416 0 0 1-8.563 4.91A18 18 0 0 1 55 79.59l9 5.196 18.001 10.393 4.068 2.349 4.93 2.846c8.61 4.97 19.619 2.021 24.59-6.588zM89.776 99.59c-.233-.162-.454-.337-.678-.509.222.175.448.345.678.51zm-3.352-3.018c-.052-.06-.11-.116-.162-.177v-.004l.162.182z"
     id="path142"
     fill="url(#D)" />
  <path
     d="M46 53.608v20.784l18 10.393 18-10.393V53.608L64 43.215z"
     id="path144"
     fill="#241f31" />
</svg>
