<?xml version="1.0" encoding="UTF-8" standalone="no"?>
<svg
   xmlns:dc="http://purl.org/dc/elements/1.1/"
   xmlns:cc="http://creativecommons.org/ns#"
   xmlns:rdf="http://www.w3.org/1999/02/22-rdf-syntax-ns#"
   xmlns:svg="http://www.w3.org/2000/svg"
   xmlns="http://www.w3.org/2000/svg"
   xmlns:xlink="http://www.w3.org/1999/xlink"
   xmlns:sodipodi="http://sodipodi.sourceforge.net/DTD/sodipodi-0.dtd"
   xmlns:inkscape="http://www.inkscape.org/namespaces/inkscape"
   viewBox="0 0 128 128"
   style="display:inline;enable-background:new"
   version="1.0"
   id="svg11300"
   height="128"
   width="128"
   sodipodi:docname="org.gnome.gThumb.svg"
   inkscape:version="0.92.4 5da689c313, 2019-01-14">
  <sodipodi:namedview
     pagecolor="#ffffff"
     bordercolor="#666666"
     borderopacity="1"
     objecttolerance="10"
     gridtolerance="10"
     guidetolerance="10"
     inkscape:pageopacity="0"
     inkscape:pageshadow="2"
     inkscape:window-width="814"
     inkscape:window-height="431"
     id="namedview74"
     showgrid="false"
     inkscape:zoom="2"
     inkscape:cx="88.628305"
     inkscape:cy="35.89373"
     inkscape:window-x="500"
     inkscape:window-y="186"
     inkscape:window-maximized="0"
     inkscape:current-layer="layer1"
     inkscape:snap-bbox="true"
     inkscape:bbox-paths="true"
     inkscape:bbox-nodes="true"
     inkscape:snap-bbox-edge-midpoints="true"
     inkscape:snap-bbox-midpoints="true"
     inkscape:object-paths="true"
     inkscape:snap-intersection-paths="true"
     inkscape:snap-smooth-nodes="true"
     inkscape:snap-midpoints="true" />
  <title
     id="title4162">Adwaita Icon Template</title>
  <defs
     id="defs3">
    <linearGradient
       id="linearGradient1722">
      <stop
         style="stop-color:#e01b24;stop-opacity:1"
         offset="0"
         id="stop1718" />
      <stop
         style="stop-color:#f8e45c;stop-opacity:1"
         offset="1"
         id="stop1720" />
    </linearGradient>
    <linearGradient
       id="linearGradient1594">
      <stop
         id="stop1590"
         offset="0"
         style="stop-color:#2ec27e;stop-opacity:1" />
      <stop
         id="stop1592"
         offset="1"
         style="stop-color:#57e389;stop-opacity:0" />
    </linearGradient>
    <linearGradient
       id="linearGradient1209">
      <stop
         style="stop-color:#949390;stop-opacity:1"
         offset="0"
         id="stop1196" />
      <stop
         id="stop1198"
         offset="0.09081552"
         style="stop-color:#deddda;stop-opacity:1" />
      <stop
         style="stop-color:#9a9996;stop-opacity:1"
         offset="0.33609319"
         id="stop1200" />
      <stop
         id="stop1202"
         offset="0.8443262"
         style="stop-color:#c3c0ba;stop-opacity:1" />
      <stop
         style="stop-color:#deddda;stop-opacity:1"
         offset="0.9305048"
         id="stop1204" />
      <stop
         style="stop-color:#c0bfbc;stop-opacity:1"
         offset="1"
         id="stop1206" />
    </linearGradient>
    <linearGradient
       id="linearGradient8959">
      <stop
         style="stop-color:#ffffff;stop-opacity:1;"
         offset="0"
         id="stop8955" />
      <stop
         style="stop-color:#ffffff;stop-opacity:0.09448819"
         offset="1"
         id="stop8957" />
    </linearGradient>
    <clipPath
       id="clipPath1599"
       clipPathUnits="userSpaceOnUse">
      <path
         id="path1601"
         d="M 492.30769,-59.384613 393.84615,-197.23077 H 147.6923 v 482.46154 h 344.61539 z"
         style="fill:#1c71d8;stroke:none;stroke-width:1px;stroke-linecap:butt;stroke-linejoin:miter;stroke-opacity:1" />
    </clipPath>
    <clipPath
       id="clipPath9424"
       clipPathUnits="userSpaceOnUse">
      <path
         id="path9426"
         d="M 41.125566,217.49784 A 12.742462,12.742462 0 0 0 28.496653,228.63349 12.742462,12.742462 0 0 0 41.125566,239.79715 12.742462,12.742462 0 0 0 53.754478,228.6615 12.742462,12.742462 0 0 0 41.125566,217.49784 Z"
         style="display:inline;opacity:1;fill:none;fill-opacity:1;stroke:#000000;stroke-width:2;stroke-linecap:square;stroke-linejoin:round;stroke-miterlimit:4;stroke-dasharray:none;stroke-dashoffset:0;stroke-opacity:1;enable-background:new" />
    </clipPath>
    <linearGradient
       y2="37"
       x2="62"
       y1="37"
       x1="22"
       gradientTransform="matrix(1.4,0,0,1.4,21.102428,162.53333)"
       gradientUnits="userSpaceOnUse"
       id="linearGradient1247"
       xlink:href="#linearGradient1209" />
    <radialGradient
       r="15.85742"
       fy="20.938618"
       fx="-172"
       cy="20.938618"
       cx="-172"
       gradientTransform="matrix(1.1986271,0,0,1.0945536,178.16386,153.90715)"
       gradientUnits="userSpaceOnUse"
       id="radialGradient1249"
       xlink:href="#linearGradient8959" />
    <radialGradient
       r="160"
       fy="55.927143"
       fx="131.91475"
       cy="55.927143"
       cx="131.91475"
       gradientTransform="matrix(1.0125135,2.1002674,-1.6092836,0.11574215,-4.6063107,-300.00018)"
       gradientUnits="userSpaceOnUse"
       id="radialGradient2561"
       xlink:href="#linearGradient1722" />
    <radialGradient
       r="192"
       fy="638.5918"
       fx="525.58777"
       cy="638.5918"
       cx="525.58777"
       gradientTransform="matrix(-0.56672219,1.0065537,-1.1024699,-0.69087589,1449.8905,-224.44988)"
       gradientUnits="userSpaceOnUse"
       id="radialGradient3300"
       xlink:href="#linearGradient1594" />
    <linearGradient
       xlink:href="#linearGradient6969-5"
       id="linearGradient81638-4"
       gradientUnits="userSpaceOnUse"
       gradientTransform="matrix(2.8615626,0,0,3.6867045,-117.22131,27.190584)"
       x1="-11.986486"
       y1="11.500009"
       x2="-11.986486"
       y2="28.976542" />
    <linearGradient
       id="linearGradient6969-5">
      <stop
         style="stop-color:#204a87;stop-opacity:1"
         offset="0"
         id="stop6971-9" />
      <stop
         style="stop-color:#729fcf;stop-opacity:1"
         offset="1"
         id="stop6973-3" />
    </linearGradient>
    <clipPath
       id="clipPath4719-3-3"
       clipPathUnits="userSpaceOnUse">
      <rect
         y="428"
         x="84"
         height="56"
         width="92"
         id="rect4721-9-7"
         style="fill:#000000;fill-opacity:1;stroke:none" />
    </clipPath>
    <filter
       height="1.6053097"
       y="-0.30265486"
       width="1.6053097"
       x="-0.30265486"
       id="filter4709-1-0"
       style="color-interpolation-filters:sRGB">
      <feGaussianBlur
         id="feGaussianBlur4711-29-9"
         stdDeviation="3.5333828" />
    </filter>
    <filter
       id="filter4608-6-0"
       style="color-interpolation-filters:sRGB">
      <feGaussianBlur
         id="feGaussianBlur4610-1-5"
         stdDeviation="0.84057318" />
    </filter>
    <filter
       height="1.405442"
       y="-0.20272098"
       width="1.222294"
       x="-0.11114702"
       id="filter4616-8-2"
       style="color-interpolation-filters:sRGB">
      <feGaussianBlur
         id="feGaussianBlur4618-0-5"
         stdDeviation="0.83939158" />
    </filter>
    <linearGradient
       xlink:href="#linearGradient4616-1-3"
       id="linearGradient81640-2"
       gradientUnits="userSpaceOnUse"
       gradientTransform="matrix(2.968333,0,0,4.8387798,-222.41578,-11.288882)"
       x1="25.355263"
       y1="33.357342"
       x2="25.355263"
       y2="31.76339" />
    <linearGradient
       id="linearGradient4616-1-3">
      <stop
         id="stop4618-9-7"
         offset="0"
         style="stop-color: rgb(46, 52, 54); stop-opacity: 1;" />
      <stop
         id="stop4620-2-6"
         offset="1"
         style="stop-color: rgb(46, 52, 54); stop-opacity: 0;" />
    </linearGradient>
    <linearGradient
       xlink:href="#linearGradient4610-7-8"
       id="linearGradient81642-3"
       gradientUnits="userSpaceOnUse"
       gradientTransform="matrix(1.0969936,0,0,1.3825125,-293.78497,-511.067)"
       x1="145"
       y1="481.125"
       x2="149.75"
       y2="492.875" />
    <linearGradient
       id="linearGradient4610-7-8">
      <stop
         id="stop4612-57-3"
         offset="0"
         style="stop-color: rgb(0, 0, 0); stop-opacity: 1;" />
      <stop
         id="stop4614-0-2"
         offset="1"
         style="stop-color: rgb(0, 0, 0); stop-opacity: 0;" />
    </linearGradient>
    <clipPath
       id="clipPath4396-4-0"
       clipPathUnits="userSpaceOnUse">
      <path
         inkscape:connector-curvature="0"
         id="path4398-9-9"
         d="m 79.40625,432.78125 c 4.95211,3.15625 10.09773,2.36004 13.8125,6.28125 0.20853,0.22012 0.41543,0.41335 0.625,0.625 -0.91227,0.0132 -3.36173,-0.64471 -5.8125,-0.21875 -2.03999,0.35455 -4.02605,-0.55433 -6.4375,1.03125 2.8086,-1.17696 5.05872,-0.41657 7.3125,-0.71875 1.75702,-0.23558 4.85952,0.60574 6.84375,1.75 3.19912,2.92004 6.06811,5.00342 6.65625,7.03125 0.75156,2.59125 0.93062,10.17703 0.96875,13.3125 -0.33977,-0.27402 -0.66062,-0.5645 -0.96875,-0.875 -0.68906,-0.71321 -1.34766,-1.47779 -2.15625,-2.0625 -0.77698,-0.56343 -1.58267,-1.08104 -2.21875,-1.8125 -0.66486,-0.8969 -1.44709,-1.69706 -2.1875,-2.53125 -0.70592,-0.72238 -1.45646,-1.39671 -2.125,-2.15625 -0.61554,-0.75741 -1.33614,-1.42319 -2.1875,-1.90625 -0.77581,-0.47272 -1.5828,-1.00327 -2.53125,-0.96875 -0.47451,-0.0791 -0.95887,-0.19127 -1.3125,-0.53125 -0.59769,-0.44175 -1.32432,-0.71337 -2.0625,-0.78125 l 0.125,0.0625 c 0.9109,0.24481 1.68179,0.8215 2.40625,1.40625 0.82464,0.41098 1.87022,0.34115 2.53125,1.0625 0.70456,0.74408 1.76065,1.14357 2.28125,2.0625 0.20942,0.35023 0.44974,0.66458 0.71875,0.96875 -0.70331,0.27896 -1.37908,1.26201 -1.875,1.59375 -1.29807,0.86836 -4.60919,-2.74752 -7.5,-2.40625 2.08544,-0.0469 5.75517,2.50843 6.46875,2.71875 0.55836,0.16459 -1.66639,2.10357 -3.375,3.03125 1.51744,-0.43138 3.97727,-2.51723 4.4375,-2.625 0.57771,-0.13527 1.16213,-1.94726 2.4375,-1.6875 0.26687,0.28232 0.53984,0.57255 0.78125,0.875 0.69303,0.78032 1.38577,1.54029 1.96875,2.40625 0.85162,1.06177 1.95474,1.87787 2.875,2.875 0.7471,0.7803 1.39506,1.64575 2.09375,2.46875 0.93323,1.12487 1.87928,2.25013 2.8125,3.375 0.42144,0.87267 1.03174,1.61036 1.65625,2.34375 0.66563,0.75999 1.30957,1.55781 1.8125,2.4375 0.59909,0.89138 1.1135,1.84141 1.5,2.84375 0.30827,0.94828 0.48395,1.92145 0.625,2.90625 0.19051,1.03702 0.34872,2.0991 0.25,3.15625 -0.14578,1.5715 -0.30651,3.14619 -0.4375,4.71875 -0.0217,0.7843 -0.12135,1.62135 0.25,2.34375 0.88575,0.56065 1.94401,0.69175 2.96875,0.75 0.86591,-0.0236 1.72648,-0.22461 2.46875,-0.6875 0.31904,-0.16231 0.63392,-0.49478 0.46875,-0.875 -0.18667,-1.01745 -0.40295,-2.03142 -0.5,-3.0625 -0.1344,-1.15271 -0.25974,-2.31102 -0.34375,-3.46875 -0.099,-1.09509 -0.14847,-2.18257 -0.1875,-3.28125 0.0322,-1.00198 0.0767,-2.03591 0.375,-3 0.32471,-0.94223 0.65194,-2.18347 1.25,-2.96875 0.85084,-1.04281 2.1162,-1.51624 3.09375,-2.4375 0.82415,-0.71738 1.68863,-1.38982 2.46875,-2.15625 0.75889,-0.71303 1.63356,-2.17099 2.3125,-2.96875 0.7624,-0.80646 1.48992,-0.89854 2.21875,-1.625 0.18969,-0.12973 0.38766,-0.25786 0.59375,-0.375 0.52915,-0.26792 1.04107,-0.57592 1.71875,-0.625 0.70029,0.0397 1.39399,-0.19008 2.09375,-0.0937 0.70007,0.0559 1.02933,0.72896 1.78125,0.65625 0.66535,-0.12321 1.35216,-0.12021 2.03125,-0.0625 -0.21541,-0.0835 -0.44604,-0.15445 -0.6875,-0.1875 -0.48981,-0.0904 -0.98368,0.0758 -1.46875,0.0313 -0.63207,-0.054 -0.8309,-0.55639 -1.375,-0.71875 -0.66242,-0.11588 -1.35944,0.10128 -2.03125,0.0625 -0.5382,-0.0737 -1.05528,0.0455 -1.59375,0.0313 0.76409,-1.1233 1.44323,-2.44724 2.25,-3.375 1.3398,-1.24472 2.98696,-2.48222 4.03125,-2.96875 1.39189,-0.64849 2.38459,0.15819 4.21875,-0.75 -2.03978,0.86066 -3.28052,-0.27726 -5.6875,1.125 -1.32634,0.76242 -2.21246,1.18656 -2.96875,1.71875 -1.58811,-1.34506 -0.70451,-6.06166 -2.09375,-8.78125 0.0827,-0.0958 0.125,-0.20732 0.125,-0.34375 1.54418,-0.65828 3.85538,-0.62579 5.34375,-0.34375 1.80941,0.34285 1.14282,0.69721 2.0625,0.75 0.8083,0.0464 2.21338,0.8335 3.34375,1.28125 1.22261,0.48428 1.53834,-0.0211 3.84375,1.21875 -1.65524,-1.12051 -3.34913,-1.13223 -3.59375,-1.40625 0.7457,-2.42944 3.79609,-2.88736 5.0625,-5.1875 -1.76435,2.59269 -4.05299,2.33985 -5.28125,5.09375 -1.22654,-0.34407 -2.44261,-0.89298 -3.0625,-1.28125 1.49793,-1.8748 -1.68651,-7.18964 -1.78125,-9 -0.11059,2.41309 2.83075,5.84705 1.25,8.8125 -3.16781,-1.25867 -5.75024,-0.78886 -7.4375,-0.40625 -0.0628,-0.0425 -0.14103,-0.0804 -0.21875,-0.0937 -1.38487,-2.04113 -0.95284,-3.54566 -2.5,-5.78125 0.85981,2.03517 1.03075,4.21454 1.875,5.96875 0.0201,0.0419 0.0431,0.0827 0.0625,0.125 -0.0386,0.0749 -0.0625,0.16002 -0.0625,0.25 0,0.22641 0.14749,0.41694 0.34375,0.5 0.92516,2.72077 0.58242,6.13236 0.8125,8.65625 -2.33949,-3.83923 -5.15618,-3.90227 -6.78125,-10.25 1.34906,7.76942 7.42824,8.46368 5.875,13.34375 -1.18921,1.23925 -3.11722,3.33597 -4.03125,4.25 -0.76285,0.67868 -1.59581,1.26835 -2.4375,1.84375 -0.87643,0.65389 -0.79689,1.13319 -1.71875,1.71875 -0.68733,0.46263 -2.24808,0.96188 -2.84375,1.4375 -0.77914,0.62211 -1.21036,1.46972 -1.875,2.3125 -0.35417,0.47917 -1.23958,0.61458 -1.5625,1.25 -0.32894,-1.33239 -1.28622,-3.80883 -3.09375,-4.84375 -0.89341,-0.51154 -1.89485,-1.4387 -2.625,-2.21875 -0.16244,-0.16986 -0.32136,-0.31728 -0.5,-0.46875 -1.2415,-3.00067 -1.37508,-6.70906 -1.65625,-10.0625 0.097,-0.0922 0.17429,-0.19076 0.28125,-0.28125 0.53668,-0.40499 1.03141,-0.85932 1.9375,-1.125 1.00361,-0.19673 1.64252,0.33535 2.6875,0.1875 1.01534,-0.18272 1.85205,-1.06453 2.84375,-1.375 0.83379,-0.32538 2.07498,-0.13823 3.0625,-0.3125 -1.14808,0.056 -2.26509,-0.14799 -3.375,0.1875 -0.91936,0.16193 -1.46612,1.11655 -2.34375,1.15625 -1.0076,0.1187 -1.63048,-0.40688 -2.59375,-0.21875 -0.80343,0.11401 -1.45915,0.39725 -2.21875,0.5625 -0.096,-0.0611 -0.4129,0.0496 -0.40625,-0.0625 -0.0616,-0.56577 -0.12813,-1.12745 -0.21875,-1.65625 -0.06,-3.89672 4.27346,-2.57015 5.15625,-3.25 0.58133,-0.44768 3.85453,-3.04945 6.75,-3.65625 -3.43517,0.61964 -6.89928,3.23605 -6.5625,2.40625 0.43039,-1.06043 0.76035,-7.91801 2.84375,-10.375 -3.23258,3.13778 -1.93744,10.59758 -4.28125,11.3125 -1.14933,0.35058 -3.94816,-0.0106 -4.4375,1.375 -0.10489,-0.29885 -0.21204,-0.57258 -0.34375,-0.84375 -0.84843,-1.74675 -3.20807,-3.66898 -5.71875,-5.84375 -0.24719,-1.22331 1.70858,-1.61353 1.90625,-2.125 0.15296,-0.39577 2.42162,-2.38883 3,-3.6875 -1.08179,1.42622 -3.17911,3.22298 -3.28125,2.71875 -0.13053,-0.6444 -2.23183,-4.07697 -1.96875,-5.90625 -0.63373,2.51321 2.51245,5.71105 1.53125,6.78125 -0.40432,0.441 -1.56827,1.00067 -1.8125,1.65625 -1.21315,-1.06576 -2.41928,-2.18039 -3.53125,-3.40625 -3.25105,-3.58405 -5.7455,-2.03174 -14.3125,-5.65625 z"
         style="display:inline;fill:#000000;fill-opacity:1;fill-rule:evenodd;stroke:none" />
    </clipPath>
    <filter
       id="filter4412-3-4"
       style="color-interpolation-filters:sRGB">
      <feGaussianBlur
         id="feGaussianBlur4414-08-9"
         stdDeviation="0.5940625" />
    </filter>
    <radialGradient
       r="46"
       fy="536.62244"
       fx="130"
       cy="536.62244"
       cx="130"
       gradientTransform="matrix(3.5206254,0,0,0.26301885,-608.85683,18.482138)"
       gradientUnits="userSpaceOnUse"
       id="radialGradient81697"
       xlink:href="#linearGradient4610-7-8" />
    <linearGradient
       inkscape:collect="always"
       xlink:href="#linearGradient2862-191-249"
       id="linearGradient7047"
       gradientUnits="userSpaceOnUse"
       gradientTransform="matrix(5.2356966,0.59193716,-0.75365258,5.7690033,-332.33907,-259.42272)"
       x1="11.749995"
       y1="23.24999"
       x2="14.499992"
       y2="25.99999" />
    <linearGradient
       inkscape:collect="always"
       id="linearGradient2862-191-249">
      <stop
         offset="0"
         id="stop7588"
         style="stop-color:#a8ae30;stop-opacity:1" />
      <stop
         offset="1"
         id="stop7590"
         style="stop-color:#8f9429;stop-opacity:1" />
    </linearGradient>
    <linearGradient
       inkscape:collect="always"
       xlink:href="#linearGradient2862-191-249"
       id="linearGradient7049"
       gradientUnits="userSpaceOnUse"
       gradientTransform="matrix(6.1712247,0.62596225,-0.83664221,5.8260579,-370.89687,-222.54864)"
       x1="27.8125"
       y1="22.657413"
       x2="26.700396"
       y2="25.157413" />
    <linearGradient
       inkscape:collect="always"
       xlink:href="#linearGradient2874-528-315"
       id="linearGradient7051"
       gradientUnits="userSpaceOnUse"
       gradientTransform="matrix(6.1712247,0.62596225,-0.83664221,5.8260579,-370.89687,-222.54864)"
       x1="29.0625"
       y1="29"
       x2="28.463289"
       y2="23.782413" />
    <linearGradient
       inkscape:collect="always"
       id="linearGradient2874-528-315">
      <stop
         offset="0"
         id="stop7600"
         style="stop-color:#6c782e;stop-opacity:1;" />
      <stop
         offset="1"
         id="stop7602"
         style="stop-color:#929829;stop-opacity:1" />
    </linearGradient>
    <linearGradient
       inkscape:collect="always"
       xlink:href="#linearGradient2862-191-249"
       id="linearGradient7053"
       gradientUnits="userSpaceOnUse"
       gradientTransform="matrix(5.0910971,0.65880052,-0.69246889,6.0624834,-347.7764,-227.36645)"
       x1="11.749995"
       y1="23.24999"
       x2="14.499992"
       y2="25.99999" />
    <linearGradient
       inkscape:collect="always"
       xlink:href="#linearGradient2874-528-315"
       id="linearGradient7055"
       gradientUnits="userSpaceOnUse"
       gradientTransform="matrix(5.6963323,0.73711945,-0.69246889,6.0624834,-359.57848,-228.89366)"
       x1="10.062495"
       y1="29.49999"
       x2="12.656243"
       y2="24.74999" />
    <linearGradient
       inkscape:collect="always"
       xlink:href="#linearGradient2874-528-315"
       id="linearGradient7057"
       gradientUnits="userSpaceOnUse"
       gradientTransform="matrix(5.8808652,0.71098514,-0.74365364,6.0697325,-361.86736,-228.5695)"
       x1="20.383799"
       y1="31.625"
       x2="19.883799"
       y2="26.4375" />
    <linearGradient
       inkscape:collect="always"
       xlink:href="#linearGradient2855-649-911"
       id="linearGradient7059"
       gradientUnits="userSpaceOnUse"
       gradientTransform="matrix(6.5990198,0.85596573,-0.85568463,7.5105928,-356.66292,-256.98196)"
       x1="16.916706"
       y1="25.210888"
       x2="16.373755"
       y2="16.540718" />
    <linearGradient
       inkscape:collect="always"
       id="linearGradient2855-649-911">
      <stop
         offset="0"
         id="stop7624"
         style="stop-color:#ed6520;stop-opacity:1" />
      <stop
         offset="1"
         id="stop7626"
         style="stop-color:#ff9e50;stop-opacity:1" />
    </linearGradient>
    <linearGradient
       inkscape:collect="always"
       xlink:href="#linearGradient2849-135-305"
       id="linearGradient7061"
       gradientUnits="userSpaceOnUse"
       gradientTransform="matrix(6.5990198,0.85596573,-0.85568463,7.5105928,-356.66292,-256.98196)"
       x1="10.257123"
       y1="24.583183"
       x2="13.592399"
       y2="15.520698" />
    <linearGradient
       inkscape:collect="always"
       id="linearGradient2849-135-305">
      <stop
         offset="0"
         id="stop7630"
         style="stop-color:#da6224;stop-opacity:1" />
      <stop
         offset="1"
         id="stop7632"
         style="stop-color:#d57042;stop-opacity:1" />
    </linearGradient>
    <radialGradient
       inkscape:collect="always"
       xlink:href="#linearGradient2891-388-107"
       id="radialGradient7063"
       gradientUnits="userSpaceOnUse"
       gradientTransform="matrix(1.813171,-7.680244e-7,1.042223e-6,1.396339,-15.45026,-9.149679)"
       cx="19"
       cy="22.472271"
       fx="19"
       fy="22.472271"
       r="2" />
    <linearGradient
       inkscape:collect="always"
       id="linearGradient2891-388-107">
      <stop
         offset="0"
         id="stop7636"
         style="stop-color:#8a300c;stop-opacity:1;" />
      <stop
         offset="1"
         id="stop7638"
         style="stop-color:#ec510c;stop-opacity:0" />
    </linearGradient>
    <linearGradient
       inkscape:collect="always"
       xlink:href="#linearGradient2885-866-809"
       id="linearGradient7065"
       gradientUnits="userSpaceOnUse"
       x1="18.36898"
       y1="23.024696"
       x2="18.153841"
       y2="19.234819" />
    <linearGradient
       inkscape:collect="always"
       id="linearGradient2885-866-809">
      <stop
         offset="0"
         id="stop7642"
         style="stop-color:#b04730;stop-opacity:1" />
      <stop
         offset="1"
         id="stop7644"
         style="stop-color:#ff7b2f;stop-opacity:1" />
    </linearGradient>
    <linearGradient
       inkscape:collect="always"
       xlink:href="#linearGradient2911-613-519"
       id="linearGradient7067"
       gradientUnits="userSpaceOnUse"
       gradientTransform="matrix(4.897524,0.5921011,-0.83355043,6.8034739,-342.33399,-239.13727)"
       x1="21"
       y1="20"
       x2="21.25"
       y2="22" />
    <linearGradient
       id="linearGradient2911-613-519">
      <stop
         offset="0"
         id="stop7648"
         style="stop-color:#ffffe0;stop-opacity:1;" />
      <stop
         offset="1"
         id="stop7650"
         style="stop-color:#ffe588;stop-opacity:0;" />
    </linearGradient>
    <linearGradient
       inkscape:collect="always"
       xlink:href="#linearGradient2911-613-519"
       id="linearGradient7069"
       gradientUnits="userSpaceOnUse"
       gradientTransform="matrix(5.0505094,0.61059674,-0.82845522,6.7618866,-345.6825,-240.30971)"
       x1="17"
       y1="21"
       x2="18.892241"
       y2="22.069994" />
    <linearGradient
       inkscape:collect="always"
       xlink:href="#linearGradient2911-613-519"
       id="linearGradient7071"
       gradientUnits="userSpaceOnUse"
       gradientTransform="matrix(4.8975175,0.59210032,-0.78652133,6.4196204,-343.58092,-234.64884)"
       x1="18"
       y1="18"
       x2="19.487644"
       y2="20.63061" />
    <linearGradient
       inkscape:collect="always"
       xlink:href="#linearGradient2782-839-396"
       id="linearGradient7090"
       gradientUnits="userSpaceOnUse"
       gradientTransform="matrix(2.9719562,-0.02263856,0.01392463,2.9573741,4.008596,170.72535)"
       x1="20"
       y1="13.577349"
       x2="17.269999"
       y2="32.698772" />
    <linearGradient
       inkscape:collect="always"
       id="linearGradient2782-839-396">
      <stop
         offset="0"
         id="stop7582"
         style="stop-color:#8dc5ff;stop-opacity:1" />
      <stop
         offset="1"
         id="stop7584"
         style="stop-color:#f2c600;stop-opacity:1" />
    </linearGradient>
  </defs>
  <metadata
     id="metadata4">
    <rdf:RDF>
      <cc:Work
         rdf:about="">
        <dc:format>image/svg+xml</dc:format>
        <dc:type
           rdf:resource="http://purl.org/dc/dcmitype/StillImage" />
        <dc:creator>
          <cc:Agent>
            <dc:title>GNOME Design Team</dc:title>
          </cc:Agent>
        </dc:creator>
        <dc:source />
        <cc:license
           rdf:resource="http://creativecommons.org/licenses/by-sa/4.0/" />
        <dc:title>Adwaita Icon Template</dc:title>
        <dc:subject>
          <rdf:Bag />
        </dc:subject>
        <dc:date />
        <dc:rights>
          <cc:Agent>
            <dc:title />
          </cc:Agent>
        </dc:rights>
        <dc:publisher>
          <cc:Agent>
            <dc:title />
          </cc:Agent>
        </dc:publisher>
        <dc:identifier />
        <dc:relation />
        <dc:language />
        <dc:coverage />
        <dc:description />
        <dc:contributor>
          <cc:Agent>
            <dc:title />
          </cc:Agent>
        </dc:contributor>
      </cc:Work>
      <cc:License
         rdf:about="http://creativecommons.org/licenses/by-sa/4.0/">
        <cc:permits
           rdf:resource="http://creativecommons.org/ns#Reproduction" />
        <cc:permits
           rdf:resource="http://creativecommons.org/ns#Distribution" />
        <cc:requires
           rdf:resource="http://creativecommons.org/ns#Notice" />
        <cc:requires
           rdf:resource="http://creativecommons.org/ns#Attribution" />
        <cc:permits
           rdf:resource="http://creativecommons.org/ns#DerivativeWorks" />
        <cc:requires
           rdf:resource="http://creativecommons.org/ns#ShareAlike" />
      </cc:License>
    </rdf:RDF>
  </metadata>
  <g
     transform="translate(0,-172)"
     style="display:inline"
     id="layer1">
    <rect
       style="opacity:1;vector-effect:none;fill:#b3b3b3;fill-opacity:1;stroke:none;stroke-width:8;stroke-linecap:round;stroke-linejoin:round;stroke-miterlimit:4;stroke-dasharray:none;stroke-dashoffset:0;stroke-opacity:0.6732283"
       id="rect894"
       width="104"
       height="104.0416"
       x="12"
       y="184.69849"
       rx="8"
       ry="8" />
    <rect
       ry="8"
       rx="8"
       y="184"
       x="12"
       height="104.0416"
       width="104"
       id="rect1165"
       style="opacity:1;vector-effect:none;fill:#f6f5f4;fill-opacity:1;stroke:none;stroke-width:8;stroke-linecap:round;stroke-linejoin:round;stroke-miterlimit:4;stroke-dasharray:none;stroke-dashoffset:0;stroke-opacity:0.6732283" />
    <g
       style="display:none"
       id="layer2">
      <text
         id="context"
         y="148.65199"
         x="7.9499588"
         style="font-style:normal;font-variant:normal;font-weight:normal;font-stretch:normal;font-size:6.08791494px;line-height:125%;font-family:Cantarell;-inkscape-font-specification:'Cantarell, Normal';text-align:start;writing-mode:lr-tb;text-anchor:start;display:inline;fill:#000000;fill-opacity:1;stroke:none;stroke-width:0.33264872;enable-background:new"
         xml:space="preserve"><tspan
           style="stroke-width:0.33264872"
           y="148.65199"
           x="7.9499588"
           id="tspan2716">apps</tspan></text>
      <text
         xml:space="preserve"
         style="font-style:normal;font-variant:normal;font-weight:bold;font-stretch:normal;font-size:6.08791494px;line-height:125%;font-family:Cantarell;-inkscape-font-specification:'Cantarell, Bold';text-align:start;writing-mode:lr-tb;text-anchor:start;display:inline;fill:#000000;fill-opacity:1;stroke:none;stroke-width:0.33264872;enable-background:new"
         x="7.7533054"
         y="157.23398"
         id="text3021"><tspan
           style="stroke-width:0.33264872"
           id="tspan3023"
           x="7.7533054"
           y="157.23398">org.gnome.ImageViewer</tspan></text>
      <g
         id="g12027"
         transform="matrix(7.9911709,0,0,8.0036407,-167.7909,-4846.0776)"
         style="display:inline;fill:#000000;enable-background:new" />
      <rect
         y="172"
         x="9.2651362e-08"
         height="128"
         width="128"
         id="rect13805"
         style="display:inline;overflow:visible;visibility:visible;fill:#f0f0f0;fill-opacity:1;fill-rule:nonzero;stroke:none;stroke-width:0.5;marker:none;enable-background:accumulate" />
      <g
         transform="translate(-24,24)"
         style="fill:none;fill-opacity:0.25098039;stroke:#a579b3;stroke-opacity:1"
         id="g883" />
      <g
         transform="translate(-24,24)"
         style="fill:none;fill-opacity:0.25098039;stroke:#a579b3;stroke-opacity:1"
         id="g900" />
      <g
         transform="matrix(0.25,0,0,0.25,6.9488522e-8,225)"
         id="g1168">
        <rect
           style="opacity:0.1;fill:#2864b0;fill-opacity:1;stroke:none;stroke-width:1;stroke-linecap:butt;stroke-linejoin:miter;stroke-miterlimit:4;stroke-dasharray:none;stroke-dashoffset:0;stroke-opacity:1;marker:none;marker-start:none;marker-mid:none;marker-end:none;paint-order:normal"
           id="rect1110"
           width="319.99979"
           height="448"
           x="96"
           y="-180"
           rx="32"
           ry="32" />
        <rect
           style="display:inline;opacity:0.1;fill:#2864b0;fill-opacity:1;stroke:none;stroke-width:1;stroke-linecap:butt;stroke-linejoin:miter;stroke-miterlimit:4;stroke-dasharray:none;stroke-dashoffset:0;stroke-opacity:1;marker:none;marker-start:none;marker-mid:none;marker-end:none;paint-order:normal;enable-background:new"
           id="rect1110-8"
           width="416"
           height="416"
           x="48"
           y="-164"
           rx="32"
           ry="32" />
        <rect
           style="display:inline;opacity:0.1;fill:#2864b0;fill-opacity:1;stroke:none;stroke-width:1;stroke-linecap:butt;stroke-linejoin:miter;stroke-miterlimit:4;stroke-dasharray:none;stroke-dashoffset:0;stroke-opacity:1;marker:none;marker-start:none;marker-mid:none;marker-end:none;paint-order:normal;enable-background:new"
           id="rect1110-8-9"
           width="448"
           height="320"
           x="32"
           y="-116"
           rx="32"
           ry="32" />
        <circle
           style="opacity:0.1;fill:#2864b0;fill-opacity:1;stroke:none;stroke-width:1;stroke-linecap:butt;stroke-linejoin:miter;stroke-miterlimit:4;stroke-dasharray:none;stroke-dashoffset:0;stroke-opacity:1;marker:none;marker-start:none;marker-mid:none;marker-end:none;paint-order:normal"
           id="path1142"
           r="240"
           cy="44"
           cx="256" />
      </g>
    </g>
    <g
       style="display:inline"
       id="layer9">
      <rect
         style="opacity:0.32000002;fill:#f7da50;fill-opacity:1;stroke:none;stroke-width:0.5;stroke-linejoin:round;stroke-miterlimit:4;stroke-dasharray:none;stroke-opacity:1"
         id="rect977"
         width="0"
         height="0"
         x="-4.3051148e-07"
         y="172" />
    </g>
    <rect
       style="opacity:0.32000002;fill:#87bae1;fill-opacity:0;stroke:#3d3d3d;stroke-width:0.44194174;stroke-linejoin:round;stroke-miterlimit:4;stroke-dasharray:none;stroke-opacity:1"
       id="rect1431"
       width="0"
       height="0"
       x="-7.3333349"
       y="-316"
       transform="scale(1,-1)" />
    <circle
       transform="translate(0,172)"
       r="0"
       cy="0"
       cx="0"
       id="path1155"
       style="opacity:1;vector-effect:none;fill:#9059a1;fill-opacity:1;stroke:none;stroke-width:16;stroke-linecap:butt;stroke-linejoin:round;stroke-miterlimit:4;stroke-dasharray:none;stroke-dashoffset:0;stroke-opacity:1" />
    <rect
       style="opacity:0.32000002;fill:#87bae1;fill-opacity:0;stroke:#3d3d3d;stroke-width:0.44194174;stroke-linejoin:round;stroke-miterlimit:4;stroke-dasharray:none;stroke-opacity:1"
       id="rect971"
       width="0"
       height="0"
       x="-5.3333325"
       y="-284"
       transform="scale(1,-1)" />
    <rect
       style="opacity:0.32000002;fill:#87bae1;fill-opacity:0;stroke:#3d3d3d;stroke-width:0.53033006;stroke-linejoin:round;stroke-miterlimit:4;stroke-dasharray:none;stroke-opacity:1"
       id="rect1127"
       width="0"
       height="0"
       x="-70.400002"
       y="-299.20001"
       transform="scale(1,-1)" />
    <g
       transform="matrix(0.325,0,0,-0.23214286,-40,246.21429)"
       style="display:inline;stroke-width:0.91016608;enable-background:new"
       id="g1053"
       clip-path="url(#clipPath1599)" />
    <rect
       y="172.36723"
       x="118.44038"
       height="2.1213202"
       width="2.4748738"
       id="rect9654"
       style="opacity:0.07999998;vector-effect:none;fill:#ffffff;fill-opacity:0.09448817;stroke:none;stroke-width:1;stroke-linecap:round;stroke-linejoin:round;stroke-miterlimit:4;stroke-dasharray:none;stroke-dashoffset:0;stroke-opacity:1" />
    <rect
       transform="translate(0,172)"
       y="0"
       x="0"
       height="0"
       width="0"
       id="rect1375"
       style="opacity:1;vector-effect:none;fill:#deddda;fill-opacity:1;stroke:none;stroke-width:8;stroke-linecap:round;stroke-linejoin:round;stroke-miterlimit:4;stroke-dasharray:none;stroke-dashoffset:0;stroke-opacity:0.6732283" />
    <path
       style="display:inline;fill:url(#linearGradient7090);fill-opacity:1;fill-rule:nonzero;stroke:none;stroke-width:0.63959134"
       d="m 20.017775,191.67853 87.630005,-0.66751 0.34368,72.98899 -87.630017,0.66751 z"
       id="rect14257"
       inkscape:connector-curvature="0" />
    <g
       style="display:inline"
       id="g5578"
       transform="matrix(0.60119062,-0.08559181,0.07685857,0.6695024,225.00696,259.65385)">
      <path
         inkscape:connector-curvature="0"
         d="m -249.52471,-100.28393 c -6.35814,-37.85432 -65.57253,-38.83582 -49.91431,14.352825 22.43495,-20.316155 22.27771,2.51864 49.91431,-14.352825 z"
         id="path14259"
         style="fill:url(#linearGradient7047);fill-opacity:1;fill-rule:evenodd;stroke:#909729;stroke-width:1.00235963;stroke-linecap:butt;stroke-linejoin:miter;stroke-miterlimit:4;stroke-dasharray:none;stroke-opacity:1"
         sodipodi:nodetypes="ccc" />
      <path
         inkscape:connector-curvature="0"
         d="m -272.56416,-96.207686 c 18.85499,-37.974394 90.6684,-23.429814 56.05314,28.159108 -21.10102,-27.178079 -27.65222,-3.220822 -56.05314,-28.159108 z"
         id="path14261"
         style="fill:#9ca02c;fill-opacity:1;fill-rule:evenodd;stroke:#909729;stroke-width:1.00235963;stroke-linecap:butt;stroke-linejoin:miter;stroke-miterlimit:4;stroke-dasharray:none;stroke-opacity:1"
         sodipodi:nodetypes="ccc" />
      <path
         inkscape:connector-curvature="0"
         d="m -256.04596,-63.12601 c 17.78063,-36.617458 81.74185,-24.218792 49.52717,25.711868 -18.25274,-25.495096 -24.68492,-2.503834 -49.52717,-25.711868 z"
         id="path14263"
         style="fill:url(#linearGradient7049);fill-opacity:1;fill-rule:evenodd;stroke:url(#linearGradient7051);stroke-width:1.00235963;stroke-linecap:butt;stroke-linejoin:miter;stroke-miterlimit:4;stroke-dasharray:none;stroke-opacity:1"
         sodipodi:nodetypes="ccc" />
      <path
         inkscape:connector-curvature="0"
         d="m -266.2164,-59.415304 c -6.4386,-39.858228 -63.97822,-41.300146 -48.39789,14.750694 21.65777,-21.212866 21.66243,2.803168 48.39789,-14.750694 z"
         id="path14265"
         style="fill:url(#linearGradient7053);fill-opacity:1;fill-rule:evenodd;stroke:url(#linearGradient7055);stroke-width:1.00235963;stroke-linecap:butt;stroke-linejoin:miter;stroke-miterlimit:4;stroke-dasharray:none;stroke-opacity:1"
         sodipodi:nodetypes="ccc" />
      <path
         inkscape:connector-curvature="0"
         d="m -260.98226,-77.780817 c 47.04694,5.687879 8.04346,31.770629 3.61574,43.554598 -39.67876,-17.116351 -26.92214,-46.372301 -3.61574,-43.554598 z"
         id="path14267"
         style="fill:#a8ae30;fill-opacity:1;fill-rule:evenodd;stroke:url(#linearGradient7057);stroke-width:1.00235963;stroke-linecap:butt;stroke-linejoin:miter;stroke-miterlimit:4;stroke-dasharray:none;stroke-opacity:1"
         sodipodi:nodetypes="ccs" />
      <path
         sodipodi:nodetypes="ccssscscssc"
         style="fill:url(#linearGradient7059);fill-opacity:1;fill-rule:nonzero;stroke:url(#linearGradient7061);stroke-width:1.00235963;stroke-linecap:round;stroke-linejoin:miter;stroke-miterlimit:4;stroke-dasharray:none;stroke-opacity:1"
         d="m -237.07031,-34.33569 c -5.25851,3.521144 -18.78337,-22.184781 -28.25405,-27.224046 -10.32637,2.471362 -23.03085,23.327556 -28.22767,19.512859 -5.94326,-4.362614 1.35471,-31.263127 4.77698,-37.145215 4.41075,-7.581002 -25.39059,-8.180713 -22.87687,-14.595227 2.47991,-6.328301 26.94348,-12.172601 34.64655,-13.263541 2.79356,-7.51892 10.0296,-19.358 19.92813,-18.07405 9.89854,1.28393 15.41812,15.80585 17.47411,23.25377 10.28636,1.77463 27.14001,8.815655 28.40291,15.625434 1.24591,6.718225 -34.0332,5.553861 -29.53819,13.346443 3.28156,5.688973 7.60607,34.813859 3.66809,38.563572 z"
         id="path14271"
         inkscape:connector-curvature="0" />
      <ellipse
         style="fill:url(#radialGradient7063);fill-opacity:1;fill-rule:nonzero;stroke:url(#linearGradient7065);stroke-width:0.10347599;stroke-linecap:round;stroke-linejoin:miter;stroke-miterlimit:4;stroke-dasharray:none;stroke-opacity:1"
         transform="matrix(9.0826675,1.057633,-1.2936745,10.180646,-406.01443,-327.30649)"
         id="path14273"
         cx="19"
         cy="21.5"
         rx="2"
         ry="1.5" />
      <path
         sodipodi:nodetypes="cc"
         style="fill:none;stroke:url(#linearGradient7067);stroke-width:1.00235963;stroke-linecap:round;stroke-linejoin:miter;stroke-miterlimit:4;stroke-dasharray:none;stroke-opacity:1"
         d="m -257.23547,-78.420457 7.64557,-22.323673"
         id="path14275"
         inkscape:connector-curvature="0" />
      <path
         sodipodi:nodetypes="cc"
         style="fill:none;stroke:url(#linearGradient7069);stroke-width:1.00235963;stroke-linecap:round;stroke-linejoin:miter;stroke-miterlimit:4;stroke-dasharray:none;stroke-opacity:1"
         d="m -267.50623,-76.965877 -8.04454,-19.81422"
         id="path14277"
         inkscape:connector-curvature="0" />
      <path
         sodipodi:nodetypes="cc"
         style="fill:none;stroke:url(#linearGradient7071);stroke-width:1.00235963;stroke-linecap:round;stroke-linejoin:miter;stroke-miterlimit:4;stroke-dasharray:none;stroke-opacity:1"
         d="m -263.09815,-82.828544 0.77164,-31.539566"
         id="path14279"
         inkscape:connector-curvature="0" />
    </g>
  </g>
</svg>
