<?xml version="1.0" encoding="UTF-8" standalone="no"?>
<svg
   xmlns:dc="http://purl.org/dc/elements/1.1/"
   xmlns:cc="http://creativecommons.org/ns#"
   xmlns:rdf="http://www.w3.org/1999/02/22-rdf-syntax-ns#"
   xmlns:svg="http://www.w3.org/2000/svg"
   xmlns="http://www.w3.org/2000/svg"
   xmlns:xlink="http://www.w3.org/1999/xlink"
   xmlns:sodipodi="http://sodipodi.sourceforge.net/DTD/sodipodi-0.dtd"
   xmlns:inkscape="http://www.inkscape.org/namespaces/inkscape"
   width="128"
   height="128"
   version="1.0"
   id="svg69"
   sodipodi:docname="org.gnome.Totem.svg"
   inkscape:version="0.92.4 (unknown)">
  <metadata
     id="metadata73">
    <rdf:RDF>
      <cc:Work
         rdf:about="">
        <dc:format>image/svg+xml</dc:format>
        <dc:type
           rdf:resource="http://purl.org/dc/dcmitype/StillImage" />
        <dc:title />
      </cc:Work>
    </rdf:RDF>
  </metadata>
  <sodipodi:namedview
     pagecolor="#ffffff"
     bordercolor="#666666"
     borderopacity="1"
     objecttolerance="10"
     gridtolerance="10"
     guidetolerance="10"
     inkscape:pageopacity="0"
     inkscape:pageshadow="2"
     inkscape:window-width="1308"
     inkscape:window-height="704"
     id="namedview71"
     showgrid="false"
     inkscape:zoom="2"
     inkscape:cx="122.43023"
     inkscape:cy="65.528302"
     inkscape:window-x="58"
     inkscape:window-y="27"
     inkscape:window-maximized="1"
     inkscape:current-layer="g65" />
  <defs
     id="defs47">
    <linearGradient
       id="a">
      <stop
         offset="0"
         stop-color="#d5d3cf"
         id="stop2" />
      <stop
         offset="1"
         stop-color="#f6f5f4"
         id="stop4" />
    </linearGradient>
    <linearGradient
       id="b">
      <stop
         offset="0"
         stop-color="#d5d3cf"
         id="stop7" />
      <stop
         offset="1"
         stop-color="#949390"
         id="stop9" />
    </linearGradient>
    <linearGradient
       id="c">
      <stop
         offset="0"
         stop-color="#9a9996"
         id="stop12" />
      <stop
         offset="1"
         stop-color="#77767b"
         id="stop14" />
    </linearGradient>
    <linearGradient
       id="d">
      <stop
         offset="0"
         stop-color="#f9f06b"
         id="stop17" />
      <stop
         offset="1"
         stop-color="#f6d32d"
         id="stop19" />
    </linearGradient>
    <linearGradient
       id="e">
      <stop
         offset="0"
         stop-color="#2dc0af"
         id="stop22" />
      <stop
         offset="1"
         stop-color="#5ed9cb"
         id="stop24" />
    </linearGradient>
    <linearGradient
       id="f">
      <stop
         offset="0"
         stop-color="#fff"
         id="stop27" />
      <stop
         offset="1"
         stop-color="#fff"
         stop-opacity="0"
         id="stop29" />
    </linearGradient>
    <linearGradient
       id="g">
      <stop
         offset="0"
         stop-color="#2dc0af"
         id="stop32" />
      <stop
         offset="1"
         stop-color="#3584e4"
         id="stop34" />
    </linearGradient>
    <linearGradient
       id="h">
      <stop
         offset="0"
         stop-color="#c061cb"
         id="stop37" />
      <stop
         offset="1"
         stop-color="#8f58c8"
         id="stop39" />
    </linearGradient>
    <linearGradient
       xlink:href="#d"
       id="m"
       gradientUnits="userSpaceOnUse"
       x1="529.288"
       y1="441.731"
       x2="543.341"
       y2="408.599"
       gradientTransform="matrix(1.0197393,0,0,1.0197393,-514.34332,-338.80196)" />
    <linearGradient
       xlink:href="#e"
       id="l"
       gradientUnits="userSpaceOnUse"
       x1="529.288"
       y1="441.731"
       x2="543.341"
       y2="408.599"
       gradientTransform="matrix(-0.50986965,-0.88312014,0.88312014,-0.50986965,-2.7440634,757.92902)" />
    <linearGradient
       xlink:href="#f"
       id="k"
       x1="56"
       y1="252"
       x2="0"
       y2="244"
       gradientUnits="userSpaceOnUse"
       gradientTransform="matrix(1.0197393,0,0,1.0197393,-0.39471089,-177.68315)" />
    <linearGradient
       gradientTransform="matrix(1.0197393,0,0,1.0197393,-0.39471089,-177.68315)"
       xlink:href="#g"
       id="j"
       x1="64"
       y1="260"
       x2="80"
       y2="220"
       gradientUnits="userSpaceOnUse" />
    <linearGradient
       gradientTransform="matrix(1.0197393,0,0,1.0197393,-0.39471089,-177.68315)"
       xlink:href="#h"
       id="i"
       x1="32"
       y1="239.25"
       x2="56"
       y2="196"
       gradientUnits="userSpaceOnUse" />
  </defs>
  <path
     style="marker:none"
     overflow="visible"
     fill="none"
     d="M0 0h128v128H0z"
     id="path49" />
  <g
     id="g67">
    <g
       color="#000"
       font-weight="400"
       font-family="sans-serif"
       fill-rule="evenodd"
       id="g65">
      <g
         id="g900"
         style="fill:#b3b3b3"
         transform="translate(0,0.70710681)">
        <path
           d="m 36.700344,45.593857 a 16.317868,16.317868 0 0 0 -16.70027,16.31175 V 99.584973 A 16.317868,16.317868 0 0 0 44.473817,113.7155 L 77.105474,94.872758 a 16.317868,16.317868 0 0 0 0,-28.260035 L 44.473817,47.77508 a 16.317868,16.317868 0 0 0 -7.773473,-2.181223 z"
           style="line-height:normal;font-variant-ligatures:normal;font-variant-position:normal;font-variant-caps:normal;font-variant-numeric:normal;font-variant-alternates:normal;font-feature-settings:normal;text-indent:0;text-align:start;text-decoration:none;text-decoration-line:none;text-decoration-style:solid;text-decoration-color:#000000;text-transform:none;text-orientation:mixed;white-space:normal;shape-padding:0;overflow:visible;isolation:auto;mix-blend-mode:normal;solid-color:#000000;solid-opacity:1;fill:#b3b3b3;stroke-width:1.01973927"
           overflow="visible"
           id="path888"
           inkscape:connector-curvature="0" />
        <path
           d="M 36.700344,7.9155104 A 16.317868,16.317868 0 0 0 20.000074,24.225221 V 99.583954 H 52.631731 V 52.485255 L 93.421302,76.035114 109.73713,47.77508 44.473817,10.095713 A 16.317868,16.317868 0 0 0 36.700344,7.9155104 Z"
           style="line-height:normal;font-variant-ligatures:normal;font-variant-position:normal;font-variant-caps:normal;font-variant-numeric:normal;font-variant-alternates:normal;font-feature-settings:normal;text-indent:0;text-align:start;text-decoration:none;text-decoration-line:none;text-decoration-style:solid;text-decoration-color:#000000;text-transform:none;text-orientation:mixed;white-space:normal;shape-padding:0;overflow:visible;isolation:auto;mix-blend-mode:normal;solid-color:#000000;solid-opacity:1;fill:#b3b3b3;stroke-width:1.01973927"
           overflow="visible"
           id="path890"
           inkscape:connector-curvature="0" />
        <path
           d="m 69.332001,26.755194 a 16.317868,16.317868 0 0 0 -16.70027,16.30971 V 80.74427 A 16.317868,16.317868 0 0 0 77.105474,94.873778 L 109.73713,76.035114 a 16.317868,16.317868 0 0 0 0,-28.260034 L 77.105474,28.935396 a 16.317868,16.317868 0 0 0 -7.773473,-2.180202 z"
           style="line-height:normal;font-variant-ligatures:normal;font-variant-position:normal;font-variant-caps:normal;font-variant-numeric:normal;font-variant-alternates:normal;font-feature-settings:normal;text-indent:0;text-align:start;text-decoration:none;text-decoration-line:none;text-decoration-style:solid;text-decoration-color:#000000;text-transform:none;text-orientation:mixed;white-space:normal;shape-padding:0;overflow:visible;isolation:auto;mix-blend-mode:normal;solid-color:#000000;solid-opacity:1;fill:#b3b3b3;stroke-width:1.01973927"
           overflow="visible"
           id="path892"
           inkscape:connector-curvature="0" />
        <path
           d="m 20.017409,24.868676 c -0.04079,12.344964 -0.0051,24.691967 -0.01733,37.036931 V 99.584973 A 16.317868,16.317868 0 0 0 44.473817,113.7155 L 77.105474,94.873778 a 16.317868,16.317868 0 0 0 0,-28.259015 L 44.473817,47.77508 A 16.317868,16.317868 0 0 0 43.276643,47.161197 C 37.778208,43.960235 32.210432,40.873484 26.789498,37.545055 22.726857,34.659193 20.174449,29.836846 20.018429,24.868676 Z"
           style="line-height:normal;font-variant-ligatures:normal;font-variant-position:normal;font-variant-caps:normal;font-variant-numeric:normal;font-variant-alternates:normal;font-feature-settings:normal;text-indent:0;text-align:start;text-decoration:none;text-decoration-line:none;text-decoration-style:solid;text-decoration-color:#000000;text-transform:none;text-orientation:mixed;white-space:normal;shape-padding:0;overflow:visible;opacity:0.2;isolation:auto;mix-blend-mode:normal;solid-color:#000000;solid-opacity:1;fill:#b3b3b3;stroke-width:1.01973927"
           overflow="visible"
           id="path894"
           inkscape:connector-curvature="0" />
        <path
           style="line-height:normal;font-variant-ligatures:normal;font-variant-position:normal;font-variant-caps:normal;font-variant-numeric:normal;font-variant-alternates:normal;font-feature-settings:normal;text-indent:0;text-align:start;text-decoration:none;text-decoration-line:none;text-decoration-style:solid;text-decoration-color:#000000;text-transform:none;text-orientation:mixed;white-space:normal;shape-padding:0;overflow:visible;isolation:auto;mix-blend-mode:normal;solid-color:#000000;solid-opacity:1;fill:#b3b3b3;stroke-width:1.01973927"
           d="m 76.710835,95.024699 c 11.02848,-6.313206 22.014131,-12.701872 33.025275,-19.044651 7.18814,-3.973924 10.25858,-13.697138 6.59975,-21.060675 -1.67237,-3.819943 -5.03343,-6.481463 -8.63719,-8.377158 -8.710611,-3.421225 -19.90225,1.846748 -21.927452,11.325224 -0.593488,1.276714 -0.520067,2.612572 -0.50783,4.038168 -0.04793,6.8037 0.09891,13.613519 -0.08362,20.413141 -0.499672,5.296526 -3.773035,10.205551 -8.468934,12.705951 z"
           overflow="visible"
           id="path896"
           inkscape:connector-curvature="0" />
        <path
           d="m 20.019449,61.46202 c -0.04589,12.705952 -0.0071,25.414962 -0.0204,38.122953 -0.150921,8.210937 6.734358,15.731517 14.9402,16.245467 4.144221,0.46194 8.129362,-1.11865 11.574041,-3.29172 7.317649,-5.83291 8.351665,-18.159516 1.155365,-24.652196 -0.809673,-1.152305 -2.002768,-1.75701 -3.242771,-2.458591 -5.8686,-3.44366 -11.839173,-6.720082 -17.637411,-10.278972 -4.336951,-3.081652 -6.951563,-8.37104 -6.769029,-13.686941 z"
           style="line-height:normal;font-variant-ligatures:normal;font-variant-position:normal;font-variant-caps:normal;font-variant-numeric:normal;font-variant-alternates:normal;font-feature-settings:normal;text-indent:0;text-align:start;text-decoration:none;text-decoration-line:none;text-decoration-style:solid;text-decoration-color:#000000;text-transform:none;text-orientation:mixed;white-space:normal;shape-padding:0;overflow:visible;isolation:auto;mix-blend-mode:normal;solid-color:#000000;solid-opacity:1;fill:#b3b3b3;stroke-width:1.01973927"
           overflow="visible"
           id="path898"
           inkscape:connector-curvature="0" />
      </g>
      <g
         id="g886">
        <path
           inkscape:connector-curvature="0"
           id="path51"
           overflow="visible"
           style="line-height:normal;font-variant-ligatures:normal;font-variant-position:normal;font-variant-caps:normal;font-variant-numeric:normal;font-variant-alternates:normal;font-feature-settings:normal;text-indent:0;text-align:start;text-decoration:none;text-decoration-line:none;text-decoration-style:solid;text-decoration-color:#000000;text-transform:none;text-orientation:mixed;white-space:normal;shape-padding:0;overflow:visible;isolation:auto;mix-blend-mode:normal;solid-color:#000000;solid-opacity:1;fill:#2dc0af;stroke-width:1.01973927"
           d="m 36.700344,45.593857 a 16.317868,16.317868 0 0 0 -16.70027,16.31175 V 99.584973 A 16.317868,16.317868 0 0 0 44.473817,113.7155 L 77.105474,94.872758 a 16.317868,16.317868 0 0 0 0,-28.260035 L 44.473817,47.77508 a 16.317868,16.317868 0 0 0 -7.773473,-2.181223 z" />
        <path
           inkscape:connector-curvature="0"
           id="path53"
           overflow="visible"
           style="line-height:normal;font-variant-ligatures:normal;font-variant-position:normal;font-variant-caps:normal;font-variant-numeric:normal;font-variant-alternates:normal;font-feature-settings:normal;text-indent:0;text-align:start;text-decoration:none;text-decoration-line:none;text-decoration-style:solid;text-decoration-color:#000000;text-transform:none;text-orientation:mixed;white-space:normal;shape-padding:0;overflow:visible;isolation:auto;mix-blend-mode:normal;solid-color:#000000;solid-opacity:1;fill:url(#i);stroke-width:1.01973927"
           d="M 36.700344,7.9155104 A 16.317868,16.317868 0 0 0 20.000074,24.225221 V 99.583954 H 52.631731 V 52.485255 L 93.421302,76.035114 109.73713,47.77508 44.473817,10.095713 A 16.317868,16.317868 0 0 0 36.700344,7.9155104 Z" />
        <path
           inkscape:connector-curvature="0"
           id="path55"
           overflow="visible"
           style="line-height:normal;font-variant-ligatures:normal;font-variant-position:normal;font-variant-caps:normal;font-variant-numeric:normal;font-variant-alternates:normal;font-feature-settings:normal;text-indent:0;text-align:start;text-decoration:none;text-decoration-line:none;text-decoration-style:solid;text-decoration-color:#000000;text-transform:none;text-orientation:mixed;white-space:normal;shape-padding:0;overflow:visible;isolation:auto;mix-blend-mode:normal;solid-color:#000000;solid-opacity:1;fill:url(#j);stroke-width:1.01973927"
           d="m 69.332001,26.755194 a 16.317868,16.317868 0 0 0 -16.70027,16.30971 V 80.74427 A 16.317868,16.317868 0 0 0 77.105474,94.873778 L 109.73713,76.035114 a 16.317868,16.317868 0 0 0 0,-28.260034 L 77.105474,28.935396 a 16.317868,16.317868 0 0 0 -7.773473,-2.180202 z" />
        <path
           inkscape:connector-curvature="0"
           id="path57"
           overflow="visible"
           style="line-height:normal;font-variant-ligatures:normal;font-variant-position:normal;font-variant-caps:normal;font-variant-numeric:normal;font-variant-alternates:normal;font-feature-settings:normal;text-indent:0;text-align:start;text-decoration:none;text-decoration-line:none;text-decoration-style:solid;text-decoration-color:#000000;text-transform:none;text-orientation:mixed;white-space:normal;shape-padding:0;overflow:visible;opacity:0.2;isolation:auto;mix-blend-mode:normal;solid-color:#000000;solid-opacity:1;fill:url(#k);stroke-width:1.01973927"
           d="m 20.017409,24.868676 c -0.04079,12.344964 -0.0051,24.691967 -0.01733,37.036931 V 99.584973 A 16.317868,16.317868 0 0 0 44.473817,113.7155 L 77.105474,94.873778 a 16.317868,16.317868 0 0 0 0,-28.259015 L 44.473817,47.77508 A 16.317868,16.317868 0 0 0 43.276643,47.161197 C 37.778208,43.960235 32.210432,40.873484 26.789498,37.545055 22.726857,34.659193 20.174449,29.836846 20.018429,24.868676 Z" />
        <path
           inkscape:connector-curvature="0"
           id="path59"
           overflow="visible"
           d="m 76.710835,95.024699 c 11.02848,-6.313206 22.014131,-12.701872 33.025275,-19.044651 7.18814,-3.973924 10.25858,-13.697138 6.59975,-21.060675 -1.67237,-3.819943 -5.03343,-6.481463 -8.63719,-8.377158 -8.710611,-3.421225 -19.90225,1.846748 -21.927452,11.325224 -0.593488,1.276714 -0.520067,2.612572 -0.50783,4.038168 -0.04793,6.8037 0.09891,13.613519 -0.08362,20.413141 -0.499672,5.296526 -3.773035,10.205551 -8.468934,12.705951 z"
           style="line-height:normal;font-variant-ligatures:normal;font-variant-position:normal;font-variant-caps:normal;font-variant-numeric:normal;font-variant-alternates:normal;font-feature-settings:normal;text-indent:0;text-align:start;text-decoration:none;text-decoration-line:none;text-decoration-style:solid;text-decoration-color:#000000;text-transform:none;text-orientation:mixed;white-space:normal;shape-padding:0;overflow:visible;isolation:auto;mix-blend-mode:normal;solid-color:#000000;solid-opacity:1;fill:url(#l);stroke-width:1.01973927" />
        <path
           inkscape:connector-curvature="0"
           id="path61"
           overflow="visible"
           style="line-height:normal;font-variant-ligatures:normal;font-variant-position:normal;font-variant-caps:normal;font-variant-numeric:normal;font-variant-alternates:normal;font-feature-settings:normal;text-indent:0;text-align:start;text-decoration:none;text-decoration-line:none;text-decoration-style:solid;text-decoration-color:#000000;text-transform:none;text-orientation:mixed;white-space:normal;shape-padding:0;overflow:visible;isolation:auto;mix-blend-mode:normal;solid-color:#000000;solid-opacity:1;fill:url(#m);stroke-width:1.01973927"
           d="m 20.019449,61.46202 c -0.04589,12.705952 -0.0071,25.414962 -0.0204,38.122953 -0.150921,8.210937 6.734358,15.731517 14.9402,16.245467 4.144221,0.46194 8.129362,-1.11865 11.574041,-3.29172 7.317649,-5.83291 8.351665,-18.159516 1.155365,-24.652196 -0.809673,-1.152305 -2.002768,-1.75701 -3.242771,-2.458591 -5.8686,-3.44366 -11.839173,-6.720082 -17.637411,-10.278972 -4.336951,-3.081652 -6.951563,-8.37104 -6.769029,-13.686941 z" />
      </g>
    </g>
  </g>
</svg>
