<?xml version="1.0" encoding="UTF-8" standalone="no"?>
<!-- Created with Inkscape (http://www.inkscape.org/) -->

<svg
   xmlns:dc="http://purl.org/dc/elements/1.1/"
   xmlns:cc="http://creativecommons.org/ns#"
   xmlns:rdf="http://www.w3.org/1999/02/22-rdf-syntax-ns#"
   xmlns:svg="http://www.w3.org/2000/svg"
   xmlns="http://www.w3.org/2000/svg"
   xmlns:xlink="http://www.w3.org/1999/xlink"
   xmlns:sodipodi="http://sodipodi.sourceforge.net/DTD/sodipodi-0.dtd"
   xmlns:inkscape="http://www.inkscape.org/namespaces/inkscape"
   width="16"
   height="16"
   id="svg4159"
   version="1.1"
   inkscape:version="0.92.4 5da689c313, 2019-01-14"
   viewBox="0 0 16 16"
   sodipodi:docname="user-home-symbolic.svg"
   inkscape:export-filename="/home/rizvan/.icons/Rubik/symbolic/places/user-home-symbolic.png"
   inkscape:export-xdpi="96"
   inkscape:export-ydpi="96">
  <title
     id="title815">Boston Icons</title>
  <defs
     id="defs4161">
    <inkscape:perspective
       sodipodi:type="inkscape:persp3d"
       inkscape:vp_x="0 : 8 : 1"
       inkscape:vp_y="0 : 1000 : 0"
       inkscape:vp_z="16 : 8 : 1"
       inkscape:persp3d-origin="8 : 5.3333333 : 1"
       id="perspective4709" />
    <linearGradient
       inkscape:collect="always"
       xlink:href="#linearGradient3207"
       id="linearGradient6655"
       gradientUnits="userSpaceOnUse"
       x1="146.00194"
       y1="106.48828"
       x2="146.00194"
       y2="82.821251"
       gradientTransform="matrix(0.97955622,0,0,0.97955622,2.9847918,1.8772835)" />
    <linearGradient
       inkscape:collect="always"
       id="linearGradient3207">
      <stop
         style="stop-color:#e2efff;stop-opacity:1;"
         offset="0"
         id="stop3203" />
      <stop
         style="stop-color:#ffffff;stop-opacity:1"
         offset="1"
         id="stop3205" />
    </linearGradient>
    <linearGradient
       inkscape:collect="always"
       xlink:href="#linearGradient2931"
       id="linearGradient3135"
       gradientUnits="userSpaceOnUse"
       x1="147.87012"
       y1="53.733414"
       x2="147.78149"
       y2="36.383007"
       gradientTransform="translate(-1.844004,40.781996)" />
    <linearGradient
       inkscape:collect="always"
       id="linearGradient2931">
      <stop
         style="stop-color:#ffce00;stop-opacity:1"
         offset="0"
         id="stop2927" />
      <stop
         style="stop-color:#ffff00;stop-opacity:0.92682928"
         offset="1"
         id="stop2929" />
    </linearGradient>
    <linearGradient
       inkscape:collect="always"
       xlink:href="#linearGradient2931"
       id="linearGradient2288"
       gradientUnits="userSpaceOnUse"
       gradientTransform="matrix(0.97955622,0,0,0.97955622,1.1784862,41.825541)"
       x1="147.87012"
       y1="53.733414"
       x2="147.78149"
       y2="36.383007" />
  </defs>
  <sodipodi:namedview
     id="base"
     pagecolor="#ffffff"
     bordercolor="#00fff6"
     borderopacity="1"
     inkscape:pageopacity="0"
     inkscape:pageshadow="2"
     inkscape:zoom="16"
     inkscape:cx="1.9386936"
     inkscape:cy="4.5150006"
     inkscape:current-layer="g2286"
     showgrid="false"
     inkscape:grid-bbox="true"
     inkscape:document-units="px"
     inkscape:window-width="1316"
     inkscape:window-height="704"
     inkscape:window-x="50"
     inkscape:window-y="27"
     inkscape:window-maximized="1"
     showguides="true"
     inkscape:guide-bbox="true"
     inkscape:snap-global="false">
    <inkscape:grid
       type="xygrid"
       id="grid4707" />
  </sodipodi:namedview>
  <metadata
     id="metadata4164">
    <rdf:RDF>
      <cc:Work
         rdf:about="">
        <dc:format>image/svg+xml</dc:format>
        <dc:type
           rdf:resource="http://purl.org/dc/dcmitype/StillImage" />
        <dc:title>Boston Icons</dc:title>
        <cc:license
           rdf:resource="https://dribbble.com/chrisdiaz" />
        <dc:creator>
          <cc:Agent>
            <dc:title>Christian Díaz</dc:title>
          </cc:Agent>
        </dc:creator>
        <dc:description>dribbble.com/chrisdiaz</dc:description>
        <dc:date>2019</dc:date>
        <dc:publisher>
          <cc:Agent>
            <dc:title>Christian Díaz</dc:title>
          </cc:Agent>
        </dc:publisher>
        <dc:identifier>christiandiaz.design [at] gmail [dot] com</dc:identifier>
        <dc:subject>
          <rdf:Bag>
            <rdf:li>GNOME icon Theme</rdf:li>
          </rdf:Bag>
        </dc:subject>
      </cc:Work>
    </rdf:RDF>
  </metadata>
  <g
     id="layer1"
     inkscape:label="Layer 1"
     inkscape:groupmode="layer">
    <g
       id="g6653"
       transform="matrix(0.47607658,0,0,0.47607658,-61.491187,-35.754137)"
       style="stroke-width:1.39416814;stroke-miterlimit:4;stroke-dasharray:none">
      <g
         id="g2286"
         transform="matrix(1.25,0,0,1.25,-36.500003,-22.956661)">
        <path
           style="fill:#ffff90;fill-opacity:1;stroke-width:1.36621988;stroke-miterlimit:4;stroke-dasharray:none"
           d="m 143.41237,96.862307 q 0.21563,-0.5225 0.86254,-0.696667 0.64691,-0.174167 1.50947,-0.174167 0.86255,0 1.7251,0 h 0.86254 v 0.696668 q 0,0.696668 -0.21564,1.219168 -0.21563,0.5225 -0.86254,0.696667 -0.64691,0.174167 -1.50946,0.174167 -0.86256,0 -1.72511,0 h -0.86254 v -0.696668 q 0,-0.696666 0.21564,-1.219168 m -0.21564,1.393335 v 0.522501 0.174166 0.174167 -0.348333 q 0,-0.348334 0,-0.696668 v -0.348333 0.5225 m 5.39091,-2.264169 h -0.21562 -0.64691 -0.64691 0.43128 q 0.43127,0 0.86254,0 h 0.43126 -0.21564"
           id="path3113"
           inkscape:connector-curvature="0" />
        <path
           style="opacity:1;fill:url(#linearGradient6655);fill-opacity:1;stroke:#474777;stroke-width:2.05302382;stroke-linecap:butt;stroke-linejoin:miter;stroke-miterlimit:4;stroke-dasharray:none;stroke-opacity:1"
           d="m 133.62162,95.384725 v 9.703725 c 0,0.60972 0.4537,1.10009 1.01782,1.10009 h 22.77086 c 0.56413,0 1.01973,-0.49037 1.01973,-1.10009 V 95.434469 C 155.4265,92.43094 147.83201,84.835465 146.0019,83.005357 144.22329,84.78347 133.62162,95.384725 133.62162,95.384725 Z"
           id="path3127"
           inkscape:connector-curvature="0"
           sodipodi:nodetypes="cssssccc" />
        <g
           style="stroke-width:2.13961315;stroke-miterlimit:4;stroke-dasharray:none"
           id="g3163"
           transform="matrix(0.97955622,0,0,0.97955622,-12.137107,-0.71881179)">
          <path
             sodipodi:nodetypes="csccc"
             inkscape:connector-curvature="0"
             style="opacity:1;fill:none;fill-opacity:1;stroke:#940000;stroke-width:2.13961315;stroke-linecap:square;stroke-linejoin:miter;stroke-miterlimit:4;stroke-dasharray:none;stroke-dashoffset:0;stroke-opacity:1;paint-order:markers fill stroke"
             d="M 170.04565,89.166067 V 80.55267 c 0,-0.408516 0.11895,-0.737393 0.28929,-0.737393 v 0 h 1.03439"
             id="path3139" />
          <path
             style="opacity:1;fill:none;fill-opacity:1;stroke:#000000;stroke-width:2.13961315;stroke-linecap:square;stroke-linejoin:miter;stroke-miterlimit:4;stroke-dasharray:none;stroke-dashoffset:0;stroke-opacity:1;paint-order:markers fill stroke"
             d="M 172.7036,89.166067 V 80.55267 c 0,-0.408516 -0.13714,-0.737393 -0.30748,-0.737393 v 0 0"
             id="path3141"
             inkscape:connector-curvature="0"
             sodipodi:nodetypes="csccc" />
          <path
             sodipodi:nodetypes="cc"
             inkscape:connector-curvature="0"
             id="path3137"
             d="M 171.37471,91.334218 V 80.46898"
             style="fill:none;stroke:#df0056;stroke-width:2.13961315;stroke-linecap:butt;stroke-linejoin:miter;stroke-miterlimit:4;stroke-dasharray:none;stroke-opacity:1" />
        </g>
        <path
           sodipodi:nodetypes="cccccccccccccsscccccccccccccccccccccccccccccc"
           style="fill:#cf9700;fill-opacity:1;stroke-width:1.24269235;stroke-miterlimit:4;stroke-dasharray:none"
           d="m 148.14474,102.16977 c 0.26043,-0.21123 0.58596,-0.36966 0.97661,-0.47527 l -0.11012,-0.13057 v 0.63368 0.63368 l 0.11012,0.13057 c -0.39065,0.10561 -0.42833,0.45605 -0.55855,0.7729 0.11347,0.61318 -0.13414,1.12974 -0.13901,1.43642 -4.32356,-0.002 2.52868,-8.6e-4 -4.96675,-8.6e-4 v -0.66073 -1.07245 -0.63367 h 0.7813 1.56255 c 0.52087,0 0.97661,-0.0529 1.36726,-0.15843 0.39064,-0.10561 0.71618,-0.26403 0.9766,-0.47525 m -4.68771,0.47525 v 0.15843 0.47526 0.47525 -0.31683 -0.63368 -0.31684 0.15841 m -0.19532,2.52529 h 0.19532 c 1.18151,0 1.34236,0 0,0 h -0.39064 0.19532 m 5.74951,-2.18061 v -0.15841 -0.47526 -0.47526 0.31684 0.63368 0.31683 -0.15842 m 0,-0.95051 v -0.47525 -0.15843 -0.15842 0.31685 0.63367 0.31684 -0.47526"
           id="path3119"
           inkscape:connector-curvature="0" />
        <path
           style="fill:#ffc800;fill-opacity:1;stroke-width:1.36621988;stroke-miterlimit:4;stroke-dasharray:none"
           d="m 148.37202,96.688141 v -0.696668 h 0.86254 -0.117 v 0.696668 1.393334 1.393335 0.69667 l 0.33263,0.17416 c -0.43127,0.11611 -0.79067,0.29029 -1.07817,0.52251 -0.28751,0.23221 -0.64691,0.40639 -1.07818,0.52249 -0.43127,0.11611 -0.93443,0.17417 -1.50946,0.17417 h -1.72511 -0.86254 v -0.69666 -1.39334 -0.696667 h 0.86254 1.72511 c 0.57503,0 1.07819,-0.05806 1.50946,-0.174167 0.43127,-0.116112 0.71879,-0.348334 0.86254,-0.696667 0.14376,-0.348333 0.21564,-0.754723 0.21564,-1.219168 m -5.17529,1.915835 v 0.174167 0.522499 0.522501 -0.348333 -0.696667 -0.348334 0.174167 m 0,2.438334 v 0.5225 0.17417 0.17417 -0.34834 -0.69667 -0.34833 0.5225 m 5.92083,-0.69667 v -0.17416 -0.522504 -0.5225 0.348334 0.69667 0.34833 -0.17417 m 0,-3.831666 v -0.522501 -0.174166 -0.174167 0.348333 0.696668 0.348333 -0.5225 m -0.0986,-0.522501 h -0.6469 -0.21564 -0.21563 0.43127 0.86254 0.43127 -0.64691"
           id="path3115"
           inkscape:connector-curvature="0"
           sodipodi:nodetypes="cccccccccccsccccccsscccccccccccccccccccccccccccccccccccccccccc" />
        <path
           style="fill:#ff9700;fill-opacity:1;stroke-width:1.36621988;stroke-miterlimit:4;stroke-dasharray:none"
           d="m 148.37202,100.86814 c 0.2875,-0.23221 0.6469,-0.40639 1.07817,-0.5225 l -0.0878,0.10134 v 0.69666 0.69667 l 0.0878,-0.10133 c -0.43127,0.11611 -0.79067,0.29028 -1.07817,0.5225 -0.28751,0.23222 -0.64691,0.40639 -1.07818,0.5225 -0.43127,0.11611 -0.93443,0.17417 -1.50946,0.17417 h -1.72511 -0.86254 v -0.69667 -0.69667 h 0.86254 1.72511 c 0.57503,0 1.07819,-0.0581 1.50946,-0.17417 0.43127,-0.1161 0.79067,-0.29028 1.07818,-0.5225 m -5.17529,0.5225 v 0.17417 0.52251 0.52249 -0.34833 -0.69667 -0.34833 0.17416 m 0,1.04501 v 0.5225 0.17417 0.17416 -0.34833 -0.69667 -0.34833 0.5225 m 6.16571,-0.42117 v -0.17417 -0.5225 -0.5225 0.34833 0.69667 0.34834 -0.17417 m 0,-1.04501 v -0.52249 -0.17417 -0.17417 0.34834 0.69666 0.34834 -0.52251"
           id="path3117"
           inkscape:connector-curvature="0"
           sodipodi:nodetypes="cccccccsscccccscccccccccccccccccccccccccccccccccc" />
        <path
           sodipodi:nodetypes="csccc"
           inkscape:connector-curvature="0"
           style="opacity:1;fill:none;fill-opacity:1;stroke:#9c6500;stroke-width:2.09587145;stroke-linecap:square;stroke-linejoin:miter;stroke-miterlimit:4;stroke-dasharray:none;stroke-dashoffset:0;stroke-opacity:1;paint-order:markers fill stroke"
           d="m 142.482,104.11712 v -7.662742 c 0,-0.400164 0.13434,-0.722318 0.30119,-0.722318 v 0 h 5.39064"
           id="path3123" />
        <path
           style="opacity:1;fill:none;fill-opacity:1;stroke:#474777;stroke-width:2.09587145;stroke-linecap:square;stroke-linejoin:miter;stroke-miterlimit:4;stroke-dasharray:none;stroke-dashoffset:0;stroke-opacity:1;paint-order:markers fill stroke"
           d="m 149.44485,104.89169 v -8.437312 c 0,-0.312349 -0.0818,-0.57717 -0.19711,-0.678356 -0.0324,-0.02845 -0.0675,-0.04396 -0.10408,-0.04396 v 0 0"
           id="path3125"
           inkscape:connector-curvature="0"
           sodipodi:nodetypes="cssccc" />
        <path
           inkscape:connector-curvature="0"
           id="path3131"
           d="m 145.93877,77.464742 a 2.3203993,2.3203993 0 0 0 -1.66448,0.704056 c -4.44423,4.442416 -8.88873,8.885007 -13.33116,13.329235 a 2.3214673,2.3214673 0 1 0 3.28497,3.28113 c 3.92419,-3.925787 7.84838,-7.84961 11.7738,-11.773806 3.9251,3.923878 7.84803,7.848338 11.7719,11.773806 a 2.3207853,2.3207853 0 1 0 3.28304,-3.28113 c -4.44242,-4.444228 -8.88692,-8.886819 -13.33115,-13.329235 a 2.3203993,2.3203993 0 0 0 -1.66448,-0.704056 2.3203993,2.3203993 0 0 0 -0.0594,0.0038 2.3203993,2.3203993 0 0 0 -0.0612,-0.0038 2.3203993,2.3203993 0 0 1 -0.002,0 z"
           style="color:#000000;font-style:normal;font-variant:normal;font-weight:normal;font-stretch:normal;font-size:medium;line-height:normal;font-family:sans-serif;font-variant-ligatures:normal;font-variant-position:normal;font-variant-caps:normal;font-variant-numeric:normal;font-variant-alternates:normal;font-feature-settings:normal;text-indent:0;text-align:start;text-decoration:none;text-decoration-line:none;text-decoration-style:solid;text-decoration-color:#000000;letter-spacing:normal;word-spacing:normal;text-transform:none;writing-mode:lr-tb;direction:ltr;text-orientation:mixed;dominant-baseline:auto;baseline-shift:baseline;text-anchor:start;white-space:normal;shape-padding:0;clip-rule:nonzero;display:inline;overflow:visible;visibility:visible;opacity:1;isolation:auto;mix-blend-mode:normal;color-interpolation:sRGB;color-interpolation-filters:linearRGB;solid-color:#000000;solid-opacity:1;vector-effect:none;fill:url(#linearGradient2288);fill-opacity:1;fill-rule:nonzero;stroke:#9c6500;stroke-width:2.05302382;stroke-linecap:round;stroke-linejoin:miter;stroke-miterlimit:4;stroke-dasharray:none;stroke-dashoffset:0;stroke-opacity:1;color-rendering:auto;image-rendering:auto;shape-rendering:auto;text-rendering:auto;enable-background:accumulate" />
      </g>
    </g>
  </g>
</svg>
