<?xml version="1.0" encoding="UTF-8" standalone="no"?>
<svg
   xmlns:dc="http://purl.org/dc/elements/1.1/"
   xmlns:cc="http://creativecommons.org/ns#"
   xmlns:rdf="http://www.w3.org/1999/02/22-rdf-syntax-ns#"
   xmlns:svg="http://www.w3.org/2000/svg"
   xmlns="http://www.w3.org/2000/svg"
   xmlns:sodipodi="http://sodipodi.sourceforge.net/DTD/sodipodi-0.dtd"
   xmlns:inkscape="http://www.inkscape.org/namespaces/inkscape"
   width="16"
   height="16"
   version="1.1"
   id="svg8"
   sodipodi:docname="view-list-symbolic.svg"
   inkscape:version="0.92.4 5da689c313, 2019-01-14">
  <metadata
     id="metadata14">
    <rdf:RDF>
      <cc:Work
         rdf:about="">
        <dc:format>image/svg+xml</dc:format>
        <dc:type
           rdf:resource="http://purl.org/dc/dcmitype/StillImage" />
        <dc:title></dc:title>
      </cc:Work>
    </rdf:RDF>
  </metadata>
  <defs
     id="defs12" />
  <sodipodi:namedview
     pagecolor="#ffffff"
     bordercolor="#666666"
     borderopacity="1"
     objecttolerance="10"
     gridtolerance="10"
     guidetolerance="10"
     inkscape:pageopacity="0"
     inkscape:pageshadow="2"
     inkscape:window-width="1366"
     inkscape:window-height="708"
     id="namedview10"
     showgrid="false"
     inkscape:zoom="14.75"
     inkscape:cx="8"
     inkscape:cy="8"
     inkscape:window-x="0"
     inkscape:window-y="27"
     inkscape:window-maximized="1"
     inkscape:current-layer="g6" />
  <g
     fill="#474747"
     id="g6">
    <path
       d="M8 4h6v2H8zM8 9.984h6v2H8z"
       style="marker:none;fill:#003380"
       color="#bebebe"
       overflow="visible"
       id="path2" />
    <path
       d="M2.384 3h3.231A.38.38 0 0 1 6 3.379V6.62A.38.38 0 0 1 5.615 7h-3.23A.38.38 0 0 1 2 6.621V3.38A.38.38 0 0 1 2.384 3zM2.384 9h3.231A.38.38 0 0 1 6 9.379V12.6a.38.38 0 0 1-.385.38h-3.23A.38.38 0 0 1 2 12.6V9.38A.38.38 0 0 1 2.384 9z"
       style="marker:none;fill:#800000"
       color="#000"
       overflow="visible"
       id="path4" />
  </g>
</svg>
