<?xml version="1.0" encoding="UTF-8" standalone="no"?>
<!-- Created with Inkscape (http://www.inkscape.org/) -->

<svg
   xmlns:dc="http://purl.org/dc/elements/1.1/"
   xmlns:cc="http://creativecommons.org/ns#"
   xmlns:rdf="http://www.w3.org/1999/02/22-rdf-syntax-ns#"
   xmlns:svg="http://www.w3.org/2000/svg"
   xmlns="http://www.w3.org/2000/svg"
   xmlns:xlink="http://www.w3.org/1999/xlink"
   xmlns:sodipodi="http://sodipodi.sourceforge.net/DTD/sodipodi-0.dtd"
   xmlns:inkscape="http://www.inkscape.org/namespaces/inkscape"
   width="128"
   height="128"
   viewBox="0 0 33.866667 33.866667"
   version="1.1"
   id="svg2634"
   inkscape:version="0.92.4 (unknown)"
   sodipodi:docname="application-x-sharedlib.svg">
  <title
     id="title3250">Boston Icons</title>
  <defs
     id="defs2628">
    <linearGradient
       id="linearGradient2285">
      <stop
         offset="0"
         style="stop-color:#999999;stop-opacity:0.98039216"
         id="stop2281" />
      <stop
         offset="1"
         style="stop-color:#666666;stop-opacity:1"
         id="stop2283" />
    </linearGradient>
    <linearGradient
       id="linearGradient2279">
      <stop
         id="stop2275"
         style="stop-color:#ffffff;stop-opacity:1"
         offset="0" />
      <stop
         id="stop2277"
         style="stop-color:#1a1a1a;stop-opacity:1"
         offset="1" />
    </linearGradient>
    <linearGradient
       id="linearGradient15413"
       inkscape:collect="always">
      <stop
         id="stop15409"
         offset="0"
         style="stop-color:#ffffff;stop-opacity:1" />
      <stop
         id="stop15411"
         offset="1"
         style="stop-color:#ecf6ff;stop-opacity:1" />
    </linearGradient>
    <linearGradient
       gradientTransform="matrix(0.26458334,0,0,0.26458334,83.1508,137.55654)"
       inkscape:collect="always"
       xlink:href="#linearGradient6044"
       id="linearGradient6056"
       x1="82.000015"
       y1="30"
       x2="-68.741905"
       y2="262.23938"
       gradientUnits="userSpaceOnUse" />
    <linearGradient
       inkscape:collect="always"
       id="linearGradient6044">
      <stop
         style="stop-color:#ffffff;stop-opacity:1"
         offset="0"
         id="stop6040" />
      <stop
         style="stop-color:#c9e4ff;stop-opacity:1"
         offset="1"
         id="stop6042" />
    </linearGradient>
    <linearGradient
       inkscape:collect="always"
       xlink:href="#linearGradient6044"
       id="linearGradient68"
       gradientUnits="userSpaceOnUse"
       gradientTransform="matrix(0.2750733,0,0,0.2750733,109.63213,133.83645)"
       x1="82.000015"
       y1="30"
       x2="-68.741905"
       y2="262.23938" />
    <linearGradient
       inkscape:collect="always"
       xlink:href="#linearGradient6044"
       id="linearGradient918"
       gradientUnits="userSpaceOnUse"
       gradientTransform="matrix(0.2750733,0,0,0.2750733,109.63213,133.83645)"
       x1="82.000015"
       y1="30"
       x2="-68.741905"
       y2="262.23938" />
    <linearGradient
       inkscape:collect="always"
       xlink:href="#linearGradient15413"
       id="linearGradient15407"
       x1="95.027657"
       y1="84.356239"
       x2="71.875519"
       y2="113.65475"
       gradientUnits="userSpaceOnUse" />
    <inkscape:path-effect
       only_selected="false"
       apply_with_weight="true"
       apply_no_weight="true"
       helper_size="0"
       steps="2"
       weight="33.333333"
       is_visible="true"
       id="path-effect4198"
       effect="bspline" />
    <inkscape:path-effect
       only_selected="false"
       apply_with_weight="true"
       apply_no_weight="true"
       helper_size="0"
       steps="2"
       weight="33.333333"
       is_visible="true"
       id="path-effect4204"
       effect="bspline" />
    <inkscape:path-effect
       effect="bspline"
       id="path-effect4208"
       is_visible="true"
       weight="33.333333"
       steps="2"
       helper_size="0"
       apply_no_weight="true"
       apply_with_weight="true"
       only_selected="false" />
    <inkscape:path-effect
       only_selected="false"
       apply_with_weight="true"
       apply_no_weight="true"
       helper_size="0"
       steps="2"
       weight="33.333333"
       is_visible="true"
       id="path-effect4212"
       effect="bspline" />
    <inkscape:path-effect
       effect="bspline"
       id="path-effect4216"
       is_visible="true"
       weight="33.333333"
       steps="2"
       helper_size="0"
       apply_no_weight="true"
       apply_with_weight="true"
       only_selected="false" />
    <inkscape:path-effect
       only_selected="false"
       apply_with_weight="true"
       apply_no_weight="true"
       helper_size="0"
       steps="2"
       weight="33.333333"
       is_visible="true"
       id="path-effect4220"
       effect="bspline" />
    <inkscape:path-effect
       only_selected="false"
       apply_with_weight="true"
       apply_no_weight="true"
       helper_size="0"
       steps="2"
       weight="33.333333"
       is_visible="true"
       id="path-effect4224"
       effect="bspline" />
    <inkscape:path-effect
       effect="bspline"
       id="path-effect4228"
       is_visible="true"
       weight="33.333333"
       steps="2"
       helper_size="0"
       apply_no_weight="true"
       apply_with_weight="true"
       only_selected="false" />
    <inkscape:path-effect
       effect="bspline"
       id="path-effect4043"
       is_visible="true"
       weight="33.333333"
       steps="2"
       helper_size="0"
       apply_no_weight="true"
       apply_with_weight="true"
       only_selected="false" />
    <inkscape:path-effect
       only_selected="false"
       apply_with_weight="true"
       apply_no_weight="true"
       helper_size="0"
       steps="2"
       weight="33.333333"
       is_visible="true"
       id="path-effect2489"
       effect="bspline" />
    <inkscape:path-effect
       only_selected="false"
       apply_with_weight="true"
       apply_no_weight="true"
       helper_size="0"
       steps="2"
       weight="33.333333"
       is_visible="true"
       id="path-effect4198-0"
       effect="bspline" />
    <inkscape:path-effect
       only_selected="false"
       apply_with_weight="true"
       apply_no_weight="true"
       helper_size="0"
       steps="2"
       weight="33.333333"
       is_visible="true"
       id="path-effect4204-9"
       effect="bspline" />
    <inkscape:path-effect
       effect="bspline"
       id="path-effect4208-4"
       is_visible="true"
       weight="33.333333"
       steps="2"
       helper_size="0"
       apply_no_weight="true"
       apply_with_weight="true"
       only_selected="false" />
    <inkscape:path-effect
       only_selected="false"
       apply_with_weight="true"
       apply_no_weight="true"
       helper_size="0"
       steps="2"
       weight="33.333333"
       is_visible="true"
       id="path-effect4212-6"
       effect="bspline" />
    <inkscape:path-effect
       effect="bspline"
       id="path-effect4216-9"
       is_visible="true"
       weight="33.333333"
       steps="2"
       helper_size="0"
       apply_no_weight="true"
       apply_with_weight="true"
       only_selected="false" />
    <inkscape:path-effect
       only_selected="false"
       apply_with_weight="true"
       apply_no_weight="true"
       helper_size="0"
       steps="2"
       weight="33.333333"
       is_visible="true"
       id="path-effect4220-2"
       effect="bspline" />
    <inkscape:path-effect
       only_selected="false"
       apply_with_weight="true"
       apply_no_weight="true"
       helper_size="0"
       steps="2"
       weight="33.333333"
       is_visible="true"
       id="path-effect4224-2"
       effect="bspline" />
    <inkscape:path-effect
       effect="bspline"
       id="path-effect4228-4"
       is_visible="true"
       weight="33.333333"
       steps="2"
       helper_size="0"
       apply_no_weight="true"
       apply_with_weight="true"
       only_selected="false" />
    <inkscape:path-effect
       effect="bspline"
       id="path-effect2155"
       is_visible="true"
       weight="33.333333"
       steps="2"
       helper_size="0"
       apply_no_weight="true"
       apply_with_weight="true"
       only_selected="false" />
    <inkscape:path-effect
       effect="bspline"
       id="path-effect1868"
       is_visible="true"
       weight="33.333333"
       steps="2"
       helper_size="0"
       apply_no_weight="true"
       apply_with_weight="true"
       only_selected="false" />
    <inkscape:path-effect
       only_selected="false"
       apply_with_weight="true"
       apply_no_weight="true"
       helper_size="0"
       steps="2"
       weight="33.333333"
       is_visible="true"
       id="path-effect1864"
       effect="bspline" />
    <inkscape:path-effect
       effect="bspline"
       id="path-effect1860"
       is_visible="true"
       weight="33.333333"
       steps="2"
       helper_size="0"
       apply_no_weight="true"
       apply_with_weight="true"
       only_selected="false" />
    <inkscape:path-effect
       effect="bspline"
       id="path-effect1856"
       is_visible="true"
       weight="33.333333"
       steps="2"
       helper_size="0"
       apply_no_weight="true"
       apply_with_weight="true"
       only_selected="false" />
    <inkscape:path-effect
       only_selected="false"
       apply_with_weight="true"
       apply_no_weight="true"
       helper_size="0"
       steps="2"
       weight="33.333333"
       is_visible="true"
       id="path-effect1852"
       effect="bspline" />
    <inkscape:path-effect
       effect="bspline"
       id="path-effect1848"
       is_visible="true"
       weight="33.333333"
       steps="2"
       helper_size="0"
       apply_no_weight="true"
       apply_with_weight="true"
       only_selected="false" />
    <inkscape:path-effect
       only_selected="false"
       apply_with_weight="true"
       apply_no_weight="true"
       helper_size="0"
       steps="2"
       weight="33.333333"
       is_visible="true"
       id="path-effect1844"
       effect="bspline" />
    <inkscape:path-effect
       effect="bspline"
       id="path-effect1840"
       is_visible="true"
       weight="33.333333"
       steps="2"
       helper_size="0"
       apply_no_weight="true"
       apply_with_weight="true"
       only_selected="false" />
    <radialGradient
       inkscape:collect="always"
       xlink:href="#linearGradient3178"
       id="radialGradient1813"
       gradientUnits="userSpaceOnUse"
       gradientTransform="matrix(1.8622283,-0.1366137,0.13727044,1.8711803,-4.0738946,-131.52318)"
       cx="24.122021"
       cy="82.472511"
       fx="24.122021"
       fy="82.472511"
       r="2.0383766" />
    <linearGradient
       inkscape:collect="always"
       xlink:href="#linearGradient1040"
       id="linearGradient1817"
       gradientUnits="userSpaceOnUse"
       x1="123.29128"
       y1="141.4565"
       x2="140.69991"
       y2="141.4565" />
    <linearGradient
       inkscape:collect="always"
       id="linearGradient1040">
      <stop
         style="stop-color:#ffdd9c;stop-opacity:1"
         offset="0"
         id="stop1036" />
      <stop
         style="stop-color:#ffff9c;stop-opacity:1"
         offset="1"
         id="stop1038" />
    </linearGradient>
    <inkscape:path-effect
       only_selected="false"
       apply_with_weight="true"
       apply_no_weight="true"
       helper_size="0"
       steps="2"
       weight="33.333333"
       is_visible="true"
       id="path-effect2415"
       effect="bspline" />
    <inkscape:path-effect
       effect="bspline"
       id="path-effect2421"
       is_visible="true"
       weight="33.333333"
       steps="2"
       helper_size="0"
       apply_no_weight="true"
       apply_with_weight="true"
       only_selected="false" />
    <linearGradient
       y2="113.65475"
       x2="71.875519"
       y1="84.356239"
       x1="95.027657"
       gradientUnits="userSpaceOnUse"
       id="linearGradient15544"
       xlink:href="#linearGradient15413"
       inkscape:collect="always"
       gradientTransform="translate(88.616078,50.950701)" />
    <linearGradient
       gradientTransform="matrix(4.9927817,0,0,4.9927817,-365.17458,168.95481)"
       inkscape:collect="always"
       xlink:href="#linearGradient3178"
       id="linearGradient2853"
       x1="75.865334"
       y1="-26.11849"
       x2="79.768509"
       y2="-33.780106"
       gradientUnits="userSpaceOnUse" />
    <linearGradient
       id="linearGradient3178"
       inkscape:collect="always">
      <stop
         id="stop3174"
         offset="0"
         style="stop-color:#ffffff;stop-opacity:1" />
      <stop
         id="stop3176"
         offset="1"
         style="stop-color:#edebec;stop-opacity:1" />
    </linearGradient>
    <radialGradient
       inkscape:collect="always"
       xlink:href="#linearGradient3178"
       id="radialGradient2903"
       gradientUnits="userSpaceOnUse"
       gradientTransform="matrix(6.5600435,-0.48124702,0.48356051,6.5915786,-63.45067,-398.08537)"
       cx="24.122021"
       cy="82.472511"
       fx="24.122021"
       fy="82.472511"
       r="2.0383766" />
    <linearGradient
       inkscape:collect="always"
       xlink:href="#linearGradient3178"
       id="linearGradient2905"
       gradientUnits="userSpaceOnUse"
       gradientTransform="matrix(3.5226849,0,0,3.5226849,-146.96421,255.36628)"
       x1="75.865334"
       y1="-26.11849"
       x2="79.768509"
       y2="-33.780106" />
    <linearGradient
       x1="-553.26971"
       y1="525.90778"
       x2="-666.11639"
       y2="413.0452"
       id="linearGradient3002"
       xlink:href="#linearGradient8385"
       gradientUnits="userSpaceOnUse"
       gradientTransform="matrix(0.46548127,0,0,0.46541557,455.2389,-76.640644)" />
    <linearGradient
       id="linearGradient8385">
      <stop
         id="stop8387"
         style="stop-color:#999999;stop-opacity:1"
         offset="0" />
      <stop
         id="stop8389"
         style="stop-color:#999999;stop-opacity:1"
         offset="1" />
    </linearGradient>
    <linearGradient
       x1="-666.11664"
       y1="413.04492"
       x2="-553.2699"
       y2="525.90759"
       id="linearGradient3005"
       xlink:href="#linearGradient830"
       gradientUnits="userSpaceOnUse"
       gradientTransform="matrix(0.46548127,0,0,0.46541557,455.2389,-76.640644)" />
    <linearGradient
       id="linearGradient830">
      <stop
         offset="0"
         style="stop-color:#ffffff;stop-opacity:1"
         id="stop826" />
      <stop
         offset="1"
         style="stop-color:#666666;stop-opacity:1"
         id="stop828" />
    </linearGradient>
    <linearGradient
       x1="-666.11664"
       y1="413.04492"
       x2="-553.2699"
       y2="525.90759"
       id="linearGradient3005-1"
       xlink:href="#linearGradient2279"
       gradientUnits="userSpaceOnUse"
       gradientTransform="matrix(0.15390539,0,0,0.15388367,124.17658,29.818408)" />
    <linearGradient
       x1="-553.26971"
       y1="525.90778"
       x2="-666.11639"
       y2="413.0452"
       id="linearGradient3002-8"
       xlink:href="#linearGradient2285"
       gradientUnits="userSpaceOnUse"
       gradientTransform="matrix(0.15390539,0,0,0.15388367,124.17658,29.818408)" />
    <linearGradient
       id="linearGradient8385-3">
      <stop
         id="stop8387-0"
         style="stop-color:#000000;stop-opacity:1"
         offset="0" />
      <stop
         id="stop8389-4"
         style="stop-color:#ffffff;stop-opacity:1"
         offset="1" />
    </linearGradient>
    <linearGradient
       x1="-553.26971"
       y1="525.90778"
       x2="-666.11639"
       y2="413.0452"
       id="linearGradient3002-4"
       xlink:href="#linearGradient8385-3"
       gradientUnits="userSpaceOnUse"
       gradientTransform="matrix(0.99884,0,0,0.998699,689.00774,-388.84375)" />
    <inkscape:path-effect
       fuse_tolerance="0"
       vertical_pattern="false"
       prop_units="false"
       tang_offset="0"
       normal_offset="1.6"
       spacing="2.7"
       scale_y_rel="false"
       prop_scale="1.2"
       copytype="repeated"
       pattern="m 84.532888,136.88749 h 2.64583 c 0.36645,0 0.56079,0.30911 0.66146,0.66145 l 1.05834,3.70417 c 0.10067,0.35235 -0.29501,0.66146 -0.66146,0.66146 h -4.76251 c -0.36645,0 -0.76213,-0.30911 -0.66146,-0.66146 l 1.05834,-3.70417 c 0.10067,-0.35234 0.29501,-0.66145 0.66146,-0.66145 z"
       is_visible="true"
       id="path-effect1116"
       effect="skeletal" />
  </defs>
  <sodipodi:namedview
     id="base"
     pagecolor="#ffffff"
     bordercolor="#00ffed"
     borderopacity="1"
     inkscape:pageopacity="1"
     inkscape:pageshadow="2"
     inkscape:zoom="4"
     inkscape:cx="44.953013"
     inkscape:cy="49.937932"
     inkscape:document-units="px"
     inkscape:current-layer="g1226"
     showgrid="false"
     showguides="false"
     inkscape:guide-bbox="true"
     fit-margin-top="0"
     fit-margin-left="0"
     fit-margin-right="0"
     fit-margin-bottom="0"
     inkscape:window-width="1366"
     inkscape:window-height="700"
     inkscape:window-x="0"
     inkscape:window-y="0"
     inkscape:window-maximized="1"
     units="px"
     inkscape:snap-bbox="true"
     inkscape:snap-global="true"
     inkscape:snap-intersection-paths="true"
     inkscape:object-paths="true"
     inkscape:snap-midpoints="false"
     inkscape:snap-smooth-nodes="false"
     inkscape:object-nodes="false"
     inkscape:snap-others="false"
     inkscape:snap-bbox-midpoints="true"
     inkscape:bbox-nodes="true"
     inkscape:bbox-paths="true"
     inkscape:snap-bbox-edge-midpoints="false"
     inkscape:snap-page="true">
    <inkscape:grid
       type="xygrid"
       id="grid3182"
       spacingx="0.52916667"
       spacingy="0.52916667"
       empspacing="4"
       originx="-82.550004"
       originy="-127.00001"
       dotted="false" />
    <sodipodi:guide
       position="-4.268358e-06,27.516666"
       orientation="1,0"
       id="guide3216"
       inkscape:locked="false" />
    <sodipodi:guide
       position="3.7041618,33.866666"
       orientation="0,1"
       id="guide3218"
       inkscape:locked="false" />
    <sodipodi:guide
       position="33.866657,24.870836"
       orientation="1,0"
       id="guide3220"
       inkscape:locked="false" />
    <sodipodi:guide
       position="32.279157,-4.1479283e-06"
       orientation="0,1"
       id="guide3222"
       inkscape:locked="false" />
    <sodipodi:guide
       position="15.345829,32.808336"
       orientation="0,1"
       id="guide3224"
       inkscape:locked="false" />
    <sodipodi:guide
       position="-4.7625023,1.0583259"
       orientation="0,1"
       id="guide3226"
       inkscape:locked="false" />
    <sodipodi:guide
       position="1.0583287,17.462496"
       orientation="1,0"
       id="guide3228"
       inkscape:locked="false" />
    <sodipodi:guide
       position="32.808327,20.108336"
       orientation="1,0"
       id="guide3230"
       inkscape:locked="false" />
    <sodipodi:guide
       position="15.874995,31.750006"
       orientation="0,1"
       id="guide3232"
       inkscape:locked="false" />
    <sodipodi:guide
       position="2.1166617,24.870836"
       orientation="1,0"
       id="guide3234"
       inkscape:locked="false" />
    <sodipodi:guide
       position="3.1749958,25.400006"
       orientation="1,0"
       id="guide3236"
       inkscape:locked="false" />
    <sodipodi:guide
       position="5.2916633,15.345824"
       orientation="1,0"
       id="guide3238"
       inkscape:locked="false" />
    <sodipodi:guide
       position="28.574997,25.400006"
       orientation="1,0"
       id="guide3240"
       inkscape:locked="false" />
    <sodipodi:guide
       position="30.691657,24.341666"
       orientation="1,0"
       id="guide3242"
       inkscape:locked="false" />
    <sodipodi:guide
       position="31.749997,21.695836"
       orientation="1,0"
       id="guide3244"
       inkscape:locked="false" />
    <sodipodi:guide
       position="21.695827,2.1166659"
       orientation="0,1"
       id="guide3246"
       inkscape:locked="false" />
    <sodipodi:guide
       position="16.404162,3.1749959"
       orientation="0,1"
       id="guide3248"
       inkscape:locked="false" />
    <sodipodi:guide
       position="15.874997,27.516658"
       orientation="0.70710678,0.70710678"
       id="guide850"
       inkscape:locked="false" />
    <sodipodi:guide
       position="26.987497,30.162491"
       orientation="0,1"
       id="guide843"
       inkscape:locked="false" />
    <sodipodi:guide
       position="30.162497,26.458325"
       orientation="0,1"
       id="guide845"
       inkscape:locked="false" />
  </sodipodi:namedview>
  <metadata
     id="metadata2631">
    <rdf:RDF>
      <cc:Work
         rdf:about="">
        <dc:format>image/svg+xml</dc:format>
        <dc:type
           rdf:resource="http://purl.org/dc/dcmitype/StillImage" />
        <dc:title>Boston Icons</dc:title>
        <cc:license
           rdf:resource="dribbble.com/chrisdiaz" />
        <dc:creator>
          <cc:Agent>
            <dc:title>Christian Díaz</dc:title>
          </cc:Agent>
        </dc:creator>
        <dc:date>2019</dc:date>
        <dc:publisher>
          <cc:Agent>
            <dc:title>Christian Díaz</dc:title>
          </cc:Agent>
        </dc:publisher>
        <dc:identifier>christiandiaz.design [at] gmail [dot] com</dc:identifier>
        <dc:subject>
          <rdf:Bag>
            <rdf:li>GNOME icon Theme</rdf:li>
          </rdf:Bag>
        </dc:subject>
        <dc:description>diazchris.deviantart.com | dribbble.com/chrisdiaz</dc:description>
      </cc:Work>
    </rdf:RDF>
  </metadata>
  <g
     inkscape:label="Capa 1"
     inkscape:groupmode="layer"
     id="layer1"
     transform="translate(-82.550003,-136.13333)">
    <g
       id="g849">
      <g
         id="g4250"
         transform="matrix(2,0,0,2,-56.039075,215.1337)">
        <g
           id="g1811"
           transform="translate(27.72678,-53.975009)">
          <g
             transform="matrix(0.28387438,0,0,0.28387438,13.938124,-18.516941)"
             id="layer1-1"
             inkscape:label="Capa 1"
             style="stroke-width:1.40907395;stroke-miterlimit:4;stroke-dasharray:none">
            <text
               id="text905"
               y="143.81902"
               x="132.25627"
               style="font-style:normal;font-weight:normal;font-size:18.64087486px;line-height:1.25;font-family:sans-serif;letter-spacing:0px;word-spacing:0px;fill:#000000;fill-opacity:1;stroke:none;stroke-width:0.93069822;stroke-miterlimit:4;stroke-dasharray:none;stroke-opacity:1"
               xml:space="preserve"><tspan
                 style="stroke-width:0.93069822"
                 y="159.70198"
                 x="132.25627"
                 id="tspan903"
                 sodipodi:role="line" /></text>
            <path
               inkscape:connector-curvature="0"
               id="path1768"
               d="m 148.04674,134.86046 -14.36112,-14.36658 v 8.77432 c 0,3.09813 2.49415,5.59226 5.59227,5.59226 z"
               style="opacity:1;fill:url(#radialGradient2903);fill-opacity:1;stroke:none;stroke-width:1.86350024;stroke-linecap:round;stroke-linejoin:round;stroke-miterlimit:4;stroke-dasharray:none;stroke-opacity:1" />
            <path
               inkscape:path-effect="#path-effect2415"
               sodipodi:nodetypes="cc"
               inkscape:original-d="m 123.99852,133.45649 c 5.37302,5.37299 10.66377,10.66567 15.99415,16.00001"
               inkscape:connector-curvature="0"
               id="path1809"
               d="m 123.99852,133.45649 c 5.37202,5.37399 10.66277,10.66667 15.99415,16.00001"
               style="fill:url(#linearGradient1817);fill-opacity:1;stroke:#989899;stroke-width:1.51181102;stroke-linecap:butt;stroke-linejoin:miter;stroke-miterlimit:4;stroke-dasharray:none;stroke-opacity:1"
               transform="matrix(0.93204371,0,0,0.93204371,18.113584,-4.4395119)" />
            <path
               inkscape:connector-curvature="0"
               style="opacity:1;fill:url(#linearGradient2905);fill-opacity:1;stroke:#999999;stroke-width:1.40907395;stroke-linecap:round;stroke-linejoin:round;stroke-miterlimit:4;stroke-dasharray:none;stroke-opacity:0.98039216"
               d="m 111.31113,119.94778 c -3.09812,0 -5.59227,2.49413 -5.59227,5.59226 v 41.00991 c 0,3.0981 2.49415,5.59227 5.59227,5.59227 h 31.68947 c 3.09811,0 5.59226,-2.49417 5.59226,-5.59227 v -31.68948 h -9.31497 c -3.09811,0 -5.59226,-2.49414 -5.59226,-5.59227 v -9.32042 z"
               id="path4200" />
            <g
               style="stroke:#58585a;stroke-opacity:1"
               id="g1226"
               transform="matrix(0.24294392,0,0,0.24294392,160.8675,22.403364)">
              <g
                 style="fill:#666666;fill-opacity:1;stroke:#666666;stroke-width:1.40907395;stroke-miterlimit:4;stroke-dasharray:none;stroke-opacity:1"
                 id="g1568"
                 transform="matrix(2.1224645,0,0,2.1224645,-180.2961,-596.19794)">
                <path
                   style="fill:#666666;fill-opacity:1;stroke:#666666;stroke-width:0.15243419;stroke-opacity:1"
                   sodipodi:nodetypes="cccccscsscssccsscsscsssssssscsscssccsscssccscccssccssccssccssccccccccccccccccssscccccsccssccssccssccssccccssscccccccccccccccccccssscccccccccccccccsssccccccssscccccccccccccccccccccccccccssscccccsccssccssccssccsscccsssccccsssccccccssccsccsscccccccsssccccsssccc"
                   inkscape:connector-curvature="0"
                   id="path2"
                   d="m 44.947021,516.61016 -25.99932,-14.4449 c -0.16347,-0.0906 -0.36176,-0.0908 -0.52511,-2.2e-4 l -25.9993204,14.42174 c -0.2155,0.11954 -0.32292,0.36987 -0.26126,0.60852 0.0618,0.23875 0.27716,0.40546 0.5237,0.40546 h 2.34784 v 2.3474 c 0,0.29869 0.24211,0.54091 0.5409,0.54091 h 2.34795 v 2.3936 c 0,0.29868 0.24211,0.5409 0.5409,0.5409 h 1.38493004 v 17.79621 H -1.5366994 c -0.29879,0 -0.5409,0.24223 -0.5409,0.54091 v 2.34848 h -1.38503 c -0.2988,0 -0.54091,0.24223 -0.54091,0.54091 v 2.34741 h -0.42201 c -0.29879,0 -0.5409,0.24221 -0.5409,0.54089 v 2.88831 c 0,0.29868 0.24211,0.54089 0.5409,0.54089 H 41.795611 c 0.2988,0 0.5409,-0.24221 0.5409,-0.54089 v -2.88819 c 0,-0.29871 -0.2421,-0.54091 -0.5409,-0.54091 h -0.42201 v -2.34751 c 0,-0.29868 -0.2421,-0.54091 -0.5409,-0.54091 h -1.38504 v -2.34848 c 0,-0.29868 -0.2421,-0.54091 -0.5409,-0.54091 h -1.38503 v -17.7962 h 1.38503 c 0.2988,0 0.5409,-0.24222 0.5409,-0.54091 v -2.39359 h 2.34795 c 0.2988,0 0.5409,-0.24222 0.5409,-0.54091 v -2.34296 l 2.34352,0.0187 h 0.004 c 0.24558,0 0.46042,-0.16541 0.52306,-0.40319 0.0628,-0.23919 -0.0443,-0.49049 -0.26039,-0.61057 z m -36.4323504,3.87892 v 2.39359 c 0,0.29869 0.2421,0.54091 0.5409,0.54091 H 10.440601 V 541.2198 H 9.0555706 c -0.2988,0 -0.5409,0.24221 -0.5409,0.54089 v 2.34851 h -0.84403 v -2.34851 c 0,-0.29868 -0.2421,-0.54089 -0.5409,-0.54089 h -1.38503 v -17.79622 h 1.38503 c 0.2988,0 0.5409,-0.24222 0.5409,-0.54091 v -2.39359 z M 27.773491,544.1092 h -7.58464 v -1.8076 h 1.38503 4.81468 1.38503 v 1.8076 z m -5.65871,-2.8894 v -17.79622 h 3.73288 v 17.79622 z m 4.28471,-18.87803 c -0.004,-1.1e-4 -0.007,-9.2e-4 -0.0111,-9.2e-4 h -4.81468 c -0.004,0 -0.007,9.2e-4 -0.011,9.2e-4 h -1.374 v -1.80758 h 7.58464 v 1.80758 z m -6.75154,1.08181 h 1.38503 v 17.79622 h -1.38503 c -0.2988,0 -0.5409,0.24221 -0.5409,0.54089 v 2.34851 h -0.84414 v -2.34851 c 0,-0.29868 -0.2421,-0.54089 -0.5409,-0.54089 h -1.38503 v -17.79622 h 1.38503 c 0.2988,0 0.5409,-0.24222 0.5409,-0.54091 v -2.39359 h 0.84414 v 2.39359 c 0,0.29869 0.2421,0.54091 0.5409,0.54091 z M 9.5964706,520.53419 h 7.5846404 v 1.80758 h -1.374 c -0.004,-1.1e-4 -0.007,-9.2e-4 -0.0111,-9.2e-4 h -4.81467 c -0.004,0 -0.007,9.2e-4 -0.011,9.2e-4 H 9.5963406 v -1.80758 z m 1.9259404,2.88939 h 3.73287 v 17.79622 h -3.73287 z m -0.54091,18.87802 h 4.81468 1.38504 v 1.8076 H 9.5965806 v -1.8076 z M -0.99578936,520.53419 H 6.5888406 v 1.80758 h -1.374 c -0.004,-1.1e-4 -0.007,-9.2e-4 -0.0111,-9.2e-4 H 0.38906064 c -0.004,0 -0.007,9.2e-4 -0.0111,9.2e-4 h -1.37388 z m 1.92582,2.88939 H 4.6629106 V 541.2198 H 0.93003064 Z m -1.92582,18.87802 h 1.38492 4.81467996 1.38503 v 1.8076 h -7.58462996 z m 41.28748036,4.69601 h -0.37441 c -0.2988,0 -0.5409,0.24221 -0.5409,0.54089 0,0.2987 0.2421,0.54091 0.5409,0.54091 h 0.91531 0.42201 v 1.8065 H -3.8846394 v -1.8065 h 0.42201 40.1325504 c 0.29879,0 0.5409,-0.24221 0.5409,-0.54091 0,-0.29868 -0.24211,-0.54089 -0.5409,-0.54089 H -2.9217294 v -1.80662 h 1.38503 8.66644 1.92583 8.6664404 1.92594 8.66644 1.92582 8.66645 1.38503 z m -1.92594,-2.88841 h -7.58463 v -1.8076 h 1.38503 4.81468 1.38503 v 1.8076 z m -1.92583,-2.8894 h -3.73287 v -17.79622 h 3.73287 z m 1.92583,-18.87803 h -1.374 c -0.004,-1.1e-4 -0.007,-9.2e-4 -0.011,-9.2e-4 h -4.81468 c -0.004,0 -0.007,9.2e-4 -0.011,9.2e-4 h -1.374 v -1.80758 h 7.58464 v 1.80758 z m -8.12554,1.08181 h 1.38504 v 17.79622 h -1.38504 c -0.29879,0 -0.5409,0.24221 -0.5409,0.54089 v 2.34851 h -0.84402 v -2.34851 c 0,-0.29868 -0.24211,-0.54089 -0.5409,-0.54089 h -1.38504 v -17.79622 h 1.38504 c 0.29879,0 0.5409,-0.24222 0.5409,-0.54091 v -2.39359 h 0.84402 v 2.39359 c 0,0.29869 0.24211,0.54091 0.5409,0.54091 z m 11.55962,-6.90461 h -0.004 -1.1e-4 -1.55347 c -0.2988,0 -0.54091,0.24221 -0.54091,0.5409 0,0.29868 0.24211,0.5409 0.54091,0.5409 h 1.01268 v 1.8065 H -3.8843194 v -1.8065 H 36.670111 c 0.2988,0 0.54091,-0.24222 0.54091,-0.5409 0,-0.29869 -0.24211,-0.5409 -0.54091,-0.5409 h -41.0953504 -0.79848 l 23.9088404,-13.26228 23.8818,13.26833 z m -28.24093,-9.1789 c -0.12235,0.10277 -0.19299,0.25444 -0.19299,0.41422 v 6.08169 c 0,0.26266 0.18878,0.48746 0.44755,0.53279 l 4.77821,0.83764 c 0.0309,0.005 0.0621,0.008 0.0934,0.008 0.0313,0 0.0625,-0.003 0.0934,-0.008 l 4.77823,-0.83764 c 0.25876,-0.0453 0.44754,-0.27013 0.44754,-0.53279 v -6.08169 c 0,-0.15978 -0.0707,-0.31134 -0.193,-0.41422 -0.12235,-0.10277 -0.28376,-0.14615 -0.44127,-0.11856 l -4.68486,0.8212 -4.68486,-0.8212 c -0.15729,-0.0275 -0.31891,0.0159 -0.44127,0.11856 z m 0.88881,1.05811 3.69642,0.648 v 3.6035 c 0,0.29868 0.24211,0.5409 0.5409,0.5409 0.2988,0 0.5409,-0.24222 0.5409,-0.5409 v -3.6035 l 3.69642,-0.648 v 4.98344 l -3.69642,0.648 v -0.022 c 0,-0.29868 -0.2421,-0.5409 -0.5409,-0.5409 -0.29879,0 -0.5409,0.24222 -0.5409,0.5409 v 0.022 l -3.69642,-0.648 z" />
                <path
                   transform="matrix(1.9182281,0,0,1.9182281,-261.5295,386.16414)"
                   inkscape:connector-curvature="0"
                   id="path1545"
                   d="m 134.47086,68.98132 v -0.375 h 10.61762 c 7.00636,0 10.64414,-0.0429 10.69557,-0.126119 0.0429,-0.06936 0.0425,-0.237805 -8.7e-4,-0.374311 -0.0777,-0.244739 -0.22901,-0.248637 -10.87455,-0.280131 l -10.79573,-0.03194 5.91853,-3.28125 c 3.25519,-1.804688 5.97671,-3.28125 6.04783,-3.28125 0.0711,0 2.78878,1.476562 6.03926,3.28125 5.72588,3.179052 5.89445,3.283196 5.41239,3.34375 -0.43072,0.05411 -0.49755,0.104474 -0.49755,0.375 0,0.247987 0.071,0.320665 0.34375,0.352053 0.28789,0.03313 0.34375,0.09914 0.34375,0.40625 v 0.366697 h -11.625 -11.625 z m 12.99281,-1.832604 c 0.65708,-0.114182 1.265,-0.261695 1.35094,-0.327806 0.23026,-0.177141 0.21987,-3.506178 -0.0115,-3.698238 -0.12451,-0.103333 -0.49938,-0.08005 -1.45309,0.09023 -1.24275,0.221899 -1.32619,0.222013 -2.52121,0.0035 -0.67976,-0.12432 -1.31962,-0.19392 -1.42191,-0.154667 -0.15268,0.05859 -0.18599,0.392244 -0.18599,1.863119 0,1.296132 0.0432,1.819722 0.15625,1.892877 0.17271,0.111781 2.10432,0.503996 2.58656,0.525201 0.16792,0.0074 0.84292,-0.08 1.5,-0.194178 z"
                   style="opacity:0.46700003;fill:#666666;fill-opacity:1;stroke:#666666;stroke-width:0.47244096;stroke-miterlimit:4;stroke-dasharray:none;stroke-opacity:1;paint-order:stroke fill markers" />
                <path
                   transform="matrix(1.9182281,0,0,1.9182281,-261.5295,386.16414)"
                   inkscape:connector-curvature="0"
                   id="path1547"
                   d="m 147.97086,76.16882 v -4.5625 h 0.875 0.875 v 4.5625 4.5625 h -0.875 -0.875 z"
                   style="opacity:0.46700003;fill:#666666;fill-opacity:1;stroke:#666666;stroke-width:0.47244096;stroke-miterlimit:4;stroke-dasharray:none;stroke-opacity:1;paint-order:stroke fill markers" />
                <path
                   transform="matrix(1.9182281,0,0,1.9182281,-261.5295,386.16414)"
                   inkscape:connector-curvature="0"
                   id="path1549"
                   d="m 142.47086,76.16882 v -4.5625 h 0.875 0.875 v 4.5625 4.5625 h -0.875 -0.875 z"
                   style="opacity:0.46700003;fill:#666666;fill-opacity:1;stroke:#666666;stroke-width:0.47244096;stroke-miterlimit:4;stroke-dasharray:none;stroke-opacity:1;paint-order:stroke fill markers" />
                <path
                   transform="matrix(1.9182281,0,0,1.9182281,-261.5295,386.16414)"
                   inkscape:connector-curvature="0"
                   id="path1551"
                   d="m 136.97086,76.16882 v -4.5625 h 0.875 0.875 v 4.5625 4.5625 h -0.875 -0.875 z"
                   style="opacity:0.46700003;fill:#666666;fill-opacity:1;stroke:#666666;stroke-width:0.47244096;stroke-miterlimit:4;stroke-dasharray:none;stroke-opacity:1;paint-order:stroke fill markers" />
                <path
                   transform="matrix(1.9182281,0,0,1.9182281,-261.5295,386.16414)"
                   inkscape:connector-curvature="0"
                   id="path1553"
                   d="m 153.47086,76.16882 v -4.5625 h 0.875 0.875 v 4.5625 4.5625 h -0.875 -0.875 z"
                   style="opacity:0.46700003;fill:#666666;fill-opacity:1;stroke:#666666;stroke-width:0.47244096;stroke-miterlimit:4;stroke-dasharray:none;stroke-opacity:1;paint-order:stroke fill markers" />
                <path
                   transform="matrix(1.9182281,0,0,1.9182281,-261.5295,386.16414)"
                   inkscape:connector-curvature="0"
                   id="path1559"
                   d="m 134.37772,84.891647 v -0.419845 h 10.56032 c 7.75449,0 10.58945,-0.01326 10.66991,-0.04993 0.14289,-0.06511 0.22132,-0.25216 0.16635,-0.396753 -0.0975,-0.256506 0.71294,-0.237326 -10.5537,-0.249745 l -10.35675,-0.01142 V 83.366581 82.9692 h 11.20323 11.20322 v 0.394236 0.394237 l -0.14363,0.03053 c -0.21234,0.04513 -0.29831,0.141297 -0.29831,0.333691 0,0.266609 0.14345,0.349911 0.60258,0.349911 h 0.36969 v 0.419845 0.419845 h -11.71146 -11.71145 z"
                   style="opacity:0.46700003;fill:#666666;fill-opacity:1;stroke:#666666;stroke-width:0.16703311;stroke-miterlimit:4;stroke-dasharray:none;stroke-opacity:1;paint-order:stroke fill markers" />
              </g>
            </g>
          </g>
        </g>
      </g>
    </g>
  </g>
</svg>
