<?xml version="1.0" encoding="UTF-8" standalone="no"?>
<!-- Created with Inkscape (http://www.inkscape.org/) -->

<svg
   xmlns:dc="http://purl.org/dc/elements/1.1/"
   xmlns:cc="http://creativecommons.org/ns#"
   xmlns:rdf="http://www.w3.org/1999/02/22-rdf-syntax-ns#"
   xmlns:svg="http://www.w3.org/2000/svg"
   xmlns="http://www.w3.org/2000/svg"
   xmlns:xlink="http://www.w3.org/1999/xlink"
   xmlns:sodipodi="http://sodipodi.sourceforge.net/DTD/sodipodi-0.dtd"
   xmlns:inkscape="http://www.inkscape.org/namespaces/inkscape"
   width="128"
   height="128"
   viewBox="0 0 33.866667 33.866667"
   version="1.1"
   id="svg2634"
   inkscape:version="0.92.4 (unknown)"
   sodipodi:docname="application-x-genesis-32x-rom.svg">
  <title
     id="title3250">Boston Icons</title>
  <defs
     id="defs2628">
    <linearGradient
       gradientTransform="matrix(0.26458334,0,0,0.26458334,83.1508,137.55654)"
       inkscape:collect="always"
       xlink:href="#linearGradient6044"
       id="linearGradient6056"
       x1="82.000015"
       y1="30"
       x2="-68.741905"
       y2="262.23938"
       gradientUnits="userSpaceOnUse" />
    <linearGradient
       inkscape:collect="always"
       id="linearGradient6044">
      <stop
         style="stop-color:#ffffff;stop-opacity:1"
         offset="0"
         id="stop6040" />
      <stop
         style="stop-color:#c9e4ff;stop-opacity:1"
         offset="1"
         id="stop6042" />
    </linearGradient>
    <linearGradient
       inkscape:collect="always"
       xlink:href="#linearGradient6044"
       id="linearGradient68"
       gradientUnits="userSpaceOnUse"
       gradientTransform="matrix(0.2750733,0,0,0.2750733,109.63213,133.83645)"
       x1="82.000015"
       y1="30"
       x2="-68.741905"
       y2="262.23938" />
    <inkscape:path-effect
       only_selected="false"
       apply_with_weight="true"
       apply_no_weight="true"
       helper_size="0"
       steps="2"
       weight="33.333333"
       is_visible="true"
       id="path-effect845"
       effect="bspline" />
    <inkscape:path-effect
       effect="bspline"
       id="path-effect849"
       is_visible="true"
       weight="33.333333"
       steps="2"
       helper_size="0"
       apply_no_weight="true"
       apply_with_weight="true"
       only_selected="false" />
    <inkscape:path-effect
       effect="bspline"
       id="path-effect837"
       is_visible="true"
       weight="33.333333"
       steps="2"
       helper_size="0"
       apply_no_weight="true"
       apply_with_weight="true"
       only_selected="false" />
    <inkscape:path-effect
       only_selected="false"
       apply_with_weight="true"
       apply_no_weight="true"
       helper_size="0"
       steps="2"
       weight="33.333333"
       is_visible="true"
       id="path-effect841"
       effect="bspline" />
    <inkscape:path-effect
       only_selected="false"
       apply_with_weight="true"
       apply_no_weight="true"
       helper_size="0"
       steps="2"
       weight="33.333333"
       is_visible="true"
       id="path-effect853"
       effect="bspline" />
    <inkscape:path-effect
       effect="bspline"
       id="path-effect857"
       is_visible="true"
       weight="33.333333"
       steps="2"
       helper_size="0"
       apply_no_weight="true"
       apply_with_weight="true"
       only_selected="false" />
    <inkscape:path-effect
       only_selected="false"
       apply_with_weight="true"
       apply_no_weight="true"
       helper_size="0"
       steps="2"
       weight="33.333333"
       is_visible="true"
       id="path-effect861"
       effect="bspline" />
    <inkscape:path-effect
       effect="bspline"
       id="path-effect865"
       is_visible="true"
       weight="33.333333"
       steps="2"
       helper_size="0"
       apply_no_weight="true"
       apply_with_weight="true"
       only_selected="false" />
    <inkscape:path-effect
       only_selected="false"
       apply_with_weight="true"
       apply_no_weight="true"
       helper_size="0"
       steps="2"
       weight="33.333333"
       is_visible="true"
       id="path-effect869"
       effect="bspline" />
    <inkscape:path-effect
       effect="bspline"
       id="path-effect873"
       is_visible="true"
       weight="33.333333"
       steps="2"
       helper_size="0"
       apply_no_weight="true"
       apply_with_weight="true"
       only_selected="false" />
    <inkscape:path-effect
       only_selected="false"
       apply_with_weight="true"
       apply_no_weight="true"
       helper_size="0"
       steps="2"
       weight="33.333333"
       is_visible="true"
       id="path-effect877"
       effect="bspline" />
    <inkscape:path-effect
       effect="bspline"
       id="path-effect881"
       is_visible="true"
       weight="33.333333"
       steps="2"
       helper_size="0"
       apply_no_weight="true"
       apply_with_weight="true"
       only_selected="false" />
    <inkscape:path-effect
       effect="bspline"
       id="path-effect980"
       is_visible="true"
       weight="33.333333"
       steps="2"
       helper_size="0"
       apply_no_weight="true"
       apply_with_weight="true"
       only_selected="false" />
    <inkscape:path-effect
       effect="bspline"
       id="path-effect936"
       is_visible="true"
       weight="33.333333"
       steps="2"
       helper_size="0"
       apply_no_weight="true"
       apply_with_weight="true"
       only_selected="false" />
    <inkscape:path-effect
       only_selected="false"
       apply_with_weight="true"
       apply_no_weight="true"
       helper_size="0"
       steps="2"
       weight="33.333333"
       is_visible="true"
       id="path-effect944"
       effect="bspline" />
    <inkscape:path-effect
       effect="bspline"
       id="path-effect948"
       is_visible="true"
       weight="33.333333"
       steps="2"
       helper_size="0"
       apply_no_weight="true"
       apply_with_weight="true"
       only_selected="false" />
    <inkscape:path-effect
       only_selected="false"
       apply_with_weight="true"
       apply_no_weight="true"
       helper_size="0"
       steps="2"
       weight="33.333333"
       is_visible="true"
       id="path-effect952"
       effect="bspline" />
    <inkscape:path-effect
       effect="bspline"
       id="path-effect3825"
       is_visible="true"
       weight="33.333333"
       steps="2"
       helper_size="0"
       apply_no_weight="true"
       apply_with_weight="true"
       only_selected="false" />
    <inkscape:path-effect
       only_selected="false"
       apply_with_weight="true"
       apply_no_weight="true"
       helper_size="0"
       steps="2"
       weight="33.333333"
       is_visible="true"
       id="path-effect3829"
       effect="bspline" />
    <linearGradient
       inkscape:collect="always"
       xlink:href="#linearGradient872"
       id="linearGradient874"
       x1="64.150818"
       y1="147.29274"
       x2="64.034691"
       y2="160.64926"
       gradientUnits="userSpaceOnUse"
       gradientTransform="translate(-1.0277898)" />
    <linearGradient
       inkscape:collect="always"
       id="linearGradient872">
      <stop
         style="stop-color:#000000;stop-opacity:1;"
         offset="0"
         id="stop868" />
      <stop
         style="stop-color:#000000;stop-opacity:0;"
         offset="1"
         id="stop870" />
    </linearGradient>
    <linearGradient
       inkscape:collect="always"
       xlink:href="#linearGradient872"
       id="linearGradient886"
       x1="88.707336"
       y1="147.94202"
       x2="88.405701"
       y2="160.92752"
       gradientUnits="userSpaceOnUse"
       gradientTransform="translate(-1.0277898)" />
    <linearGradient
       inkscape:collect="always"
       xlink:href="#linearGradient872"
       id="linearGradient894"
       x1="114.24357"
       y1="147.571"
       x2="114.49845"
       y2="160.46376"
       gradientUnits="userSpaceOnUse"
       gradientTransform="translate(-1.0277898)" />
    <linearGradient
       inkscape:collect="always"
       xlink:href="#linearGradient872"
       id="linearGradient902"
       x1="141.17111"
       y1="147.75652"
       x2="140.77672"
       y2="160.74202"
       gradientUnits="userSpaceOnUse"
       gradientTransform="translate(-1.0277898)" />
    <linearGradient
       inkscape:collect="always"
       xlink:href="#linearGradient872"
       id="linearGradient910"
       x1="164.62119"
       y1="147.99136"
       x2="165.12135"
       y2="161.23987"
       gradientUnits="userSpaceOnUse"
       gradientTransform="translate(-1.0277898)" />
    <linearGradient
       inkscape:collect="always"
       xlink:href="#linearGradient872"
       id="linearGradient918"
       x1="190.62119"
       y1="147.99136"
       x2="190.33432"
       y2="160.58401"
       gradientUnits="userSpaceOnUse"
       gradientTransform="translate(-1.0277898)" />
  </defs>
  <sodipodi:namedview
     id="base"
     pagecolor="#ffffff"
     bordercolor="#00ffed"
     borderopacity="1"
     inkscape:pageopacity="1"
     inkscape:pageshadow="2"
     inkscape:zoom="1.4142136"
     inkscape:cx="41.620254"
     inkscape:cy="70.633861"
     inkscape:document-units="px"
     inkscape:current-layer="g1070"
     showgrid="false"
     showguides="false"
     inkscape:guide-bbox="true"
     fit-margin-top="0"
     fit-margin-left="0"
     fit-margin-right="0"
     fit-margin-bottom="0"
     inkscape:window-width="1366"
     inkscape:window-height="704"
     inkscape:window-x="0"
     inkscape:window-y="0"
     inkscape:window-maximized="1"
     units="px"
     inkscape:snap-bbox="true"
     inkscape:snap-global="false"
     inkscape:snap-intersection-paths="true"
     inkscape:object-paths="true"
     inkscape:snap-midpoints="true"
     inkscape:snap-smooth-nodes="true"
     inkscape:object-nodes="true"
     inkscape:snap-bbox-midpoints="true"
     inkscape:snap-bbox-edge-midpoints="true"
     inkscape:bbox-nodes="true"
     inkscape:bbox-paths="true">
    <inkscape:grid
       type="xygrid"
       id="grid3182"
       spacingx="0.52916667"
       spacingy="0.52916667"
       empspacing="4"
       originx="-82.550004"
       originy="-127.00001"
       dotted="false" />
    <sodipodi:guide
       position="-4.268358e-06,27.516666"
       orientation="1,0"
       id="guide3216"
       inkscape:locked="false" />
    <sodipodi:guide
       position="3.7041618,33.866666"
       orientation="0,1"
       id="guide3218"
       inkscape:locked="false" />
    <sodipodi:guide
       position="33.866657,24.870836"
       orientation="1,0"
       id="guide3220"
       inkscape:locked="false" />
    <sodipodi:guide
       position="32.279157,-4.1479283e-06"
       orientation="0,1"
       id="guide3222"
       inkscape:locked="false" />
    <sodipodi:guide
       position="15.345829,32.808336"
       orientation="0,1"
       id="guide3224"
       inkscape:locked="false" />
    <sodipodi:guide
       position="-4.7625023,1.0583259"
       orientation="0,1"
       id="guide3226"
       inkscape:locked="false" />
    <sodipodi:guide
       position="1.0583287,17.462496"
       orientation="1,0"
       id="guide3228"
       inkscape:locked="false" />
    <sodipodi:guide
       position="32.808327,20.108336"
       orientation="1,0"
       id="guide3230"
       inkscape:locked="false" />
    <sodipodi:guide
       position="15.874995,31.750006"
       orientation="0,1"
       id="guide3232"
       inkscape:locked="false" />
    <sodipodi:guide
       position="2.1166617,24.870836"
       orientation="1,0"
       id="guide3234"
       inkscape:locked="false" />
    <sodipodi:guide
       position="3.1749958,25.400006"
       orientation="1,0"
       id="guide3236"
       inkscape:locked="false" />
    <sodipodi:guide
       position="5.2916633,15.345824"
       orientation="1,0"
       id="guide3238"
       inkscape:locked="false" />
    <sodipodi:guide
       position="28.574997,25.400006"
       orientation="1,0"
       id="guide3240"
       inkscape:locked="false" />
    <sodipodi:guide
       position="30.691657,24.341666"
       orientation="1,0"
       id="guide3242"
       inkscape:locked="false" />
    <sodipodi:guide
       position="31.749997,21.695836"
       orientation="1,0"
       id="guide3244"
       inkscape:locked="false" />
    <sodipodi:guide
       position="21.695827,2.1166659"
       orientation="0,1"
       id="guide3246"
       inkscape:locked="false" />
    <sodipodi:guide
       position="16.404162,3.1749959"
       orientation="0,1"
       id="guide3248"
       inkscape:locked="false" />
    <sodipodi:guide
       position="15.874997,27.516658"
       orientation="0.70710678,0.70710678"
       id="guide850"
       inkscape:locked="false" />
    <sodipodi:guide
       position="26.987497,30.162491"
       orientation="0,1"
       id="guide843"
       inkscape:locked="false" />
    <sodipodi:guide
       position="30.162497,26.458325"
       orientation="0,1"
       id="guide845"
       inkscape:locked="false" />
  </sodipodi:namedview>
  <metadata
     id="metadata2631">
    <rdf:RDF>
      <cc:Work
         rdf:about="">
        <dc:format>image/svg+xml</dc:format>
        <dc:type
           rdf:resource="http://purl.org/dc/dcmitype/StillImage" />
        <dc:title>Boston Icons</dc:title>
        <cc:license
           rdf:resource="dribbble.com/chrisdiaz" />
        <dc:creator>
          <cc:Agent>
            <dc:title>Christian Díaz</dc:title>
          </cc:Agent>
        </dc:creator>
        <dc:date>2019</dc:date>
        <dc:publisher>
          <cc:Agent>
            <dc:title>Christian Díaz</dc:title>
          </cc:Agent>
        </dc:publisher>
        <dc:identifier>christiandiaz.design [at] gmail [dot] com</dc:identifier>
        <dc:subject>
          <rdf:Bag>
            <rdf:li>GNOME icon Theme</rdf:li>
          </rdf:Bag>
        </dc:subject>
        <dc:description>diazchris.deviantart.com | dribbble.com/chrisdiaz</dc:description>
      </cc:Work>
    </rdf:RDF>
  </metadata>
  <g
     inkscape:label="Capa 1"
     inkscape:groupmode="layer"
     id="layer1"
     transform="translate(-82.550003,-136.13333)">
    <g
       id="g849">
      <g
         id="g6298"
         transform="translate(-41.309235,-0.92604065)">
        <g
           id="g6278">
          <g
             transform="matrix(0.12037962,0,0,0.14383057,139.13569,139.43731)"
             id="g2135"
             style="stroke-width:3.79986286;stroke-miterlimit:4;stroke-dasharray:none">
            <g
               id="g1903"
               style="stroke-width:3.79986286;stroke-miterlimit:4;stroke-dasharray:none">
              <g
                 id="g1932"
                 transform="translate(-395.62357,0.41081196)">
                <g
                   transform="matrix(1.06924,0,0,0.89490504,274.41721,46.041321)"
                   id="g1070">
                  <path
                     inkscape:connector-curvature="0"
                     style="opacity:1;fill:#b3b3b3;fill-opacity:1;fill-rule:nonzero;stroke:#4d4d4d;stroke-width:2.66480827;stroke-linecap:butt;stroke-linejoin:bevel;stroke-miterlimit:4;stroke-dasharray:none;stroke-dashoffset:26.45668983;stroke-opacity:0.94901961"
                     d="m 17.85893,-0.37109375 c -10.4829098,0 -18.9351698,8.01373605 -19.8261698,18.25781275 1.06288998,0.280421 2.09393998,0.634057 3.07031,1.080078 1.02918,0.470146 2.00489,1.028025 2.91211,1.664062 0.90722,0.636038 1.74711,1.349468 2.50586,2.132813 0.75875,0.783345 1.43575,1.636759 2.01953,2.548828 0.58377,0.912069 1.0727899,1.882089 1.4550799,2.904297 0.3822899,1.022208 0.6581999,2.095221 0.8124999,3.208984 L 24.93119,133.37109 c 0.1543,1.11377 0.17957,2.21354 0.0879,3.28907 -0.0917,1.07552 -0.30015,2.12723 -0.61718,3.14062 -0.31703,1.0134 -0.74192,1.98863 -1.26368,2.91602 -0.52175,0.92738 -1.14179,1.80556 -1.84765,2.62304 -0.70586,0.81749 -1.49785,1.57412 -2.36719,2.25782 -0.86934,0.6837 -1.81593,1.29428 -2.82812,1.82031 -1.01219,0.52603 -2.09019,0.96802 -3.22461,1.3125 -1.13442,0.34447 -2.32453,0.59143 -3.5605498,0.73047 l -10.37109,1.16601 c 2.61769,7.9923 10.03042,13.77344 18.9199198,13.77344 h 217.11328 c 8.94713,0 16.39794,-5.85633 18.96875,-13.92969 l -8.96875,-1.00976 c -1.23603,-0.13904 -2.42613,-0.386 -3.56055,-0.73047 -1.13442,-0.34448 -2.21437,-0.78647 -3.22656,-1.3125 -1.01219,-0.52603 -1.95684,-1.13661 -2.82617,-1.82031 -0.86934,-0.6837 -1.66328,-1.44033 -2.36914,-2.25782 -0.70586,-0.81748 -1.32395,-1.69566 -1.8457,-2.62304 -0.52177,-0.92739 -0.94665,-1.90262 -1.26368,-2.91602 -0.31703,-1.01339 -0.52746,-2.0651 -0.61914,-3.14062 -0.0917,-1.07553 -0.0644,-2.1753 0.0898,-3.28907 L 243.47417,31.425781 c 0.1543,-1.113763 0.42826,-2.186776 0.81055,-3.208984 0.38229,-1.022208 0.87326,-1.992228 1.45703,-2.904297 0.58378,-0.912069 1.26078,-1.765483 2.01953,-2.548828 0.75875,-0.783345 1.59864,-1.496775 2.50586,-2.132813 0.90722,-0.636037 1.88097,-1.193916 2.91016,-1.664062 0.5308,-0.242478 1.11202,-0.393286 1.66992,-0.587891 -0.65341,-10.4812885 -9.22342,-18.74999975 -19.875,-18.74999975 z"
                     id="path863" />
                  <path
                     inkscape:connector-curvature="0"
                     id="path866"
                     d="M 231.46636,-0.371094 H 22.327679 L 34.743694,114.26172 c 0.715901,6.60934 5.403142,11.17697 12,12 0,0 23.319793,10 80.152356,10 59.98071,0 80.15429,-8 80.15429,-8 6.648,0 11.2841,-7.39066 12,-14 z"
                     style="opacity:1;fill:#b3b3b3;fill-opacity:1;fill-rule:nonzero;stroke:#4d4d4d;stroke-width:1.88976383;stroke-linecap:butt;stroke-linejoin:bevel;stroke-miterlimit:4;stroke-dasharray:none;stroke-dashoffset:26.45668983;stroke-opacity:0.94901961" />
                  <path
                     inkscape:connector-curvature="0"
                     id="path848"
                     d="m 254.84722,18.378906 c -0.5579,0.194605 -1.13912,0.345413 -1.66992,0.587891 -1.02919,0.470146 -2.00294,1.028025 -2.91016,1.664062 -0.90722,0.636038 -1.74711,1.349468 -2.50586,2.132813 -0.75875,0.783345 -1.43575,1.636759 -2.01953,2.548828 -0.58377,0.912069 -1.07474,1.882089 -1.45703,2.904297 -0.38229,1.022208 -0.65625,2.095221 -0.81055,3.208984 L 229.35113,133.37109 c -0.1543,1.11377 -0.18153,2.21354 -0.0898,3.28907 0.0917,1.07552 0.30211,2.12723 0.61914,3.14062 0.31703,1.0134 0.74192,1.98863 1.26368,2.91602 0.52175,0.92738 1.13984,1.80556 1.8457,2.62304 0.70586,0.81749 1.4998,1.57412 2.36914,2.25782 0.86933,0.6837 1.81398,1.29428 2.82617,1.82031 1.01219,0.52603 2.09214,0.96802 3.22656,1.3125 1.13442,0.34447 2.32452,0.59143 3.56055,0.73047 l 8.96875,1.00976 c 0.61279,-1.92457 1.0312,-3.93744 1.0312,-6.07031 V 19.628906 c 0,-0.428417 -0.0987,-0.828432 -0.125,-1.25 z"
                     style="opacity:1;fill:#999999;fill-opacity:1;fill-rule:nonzero;stroke:#1a1a1a;stroke-width:1.88976383;stroke-linecap:butt;stroke-linejoin:bevel;stroke-miterlimit:4;stroke-dasharray:none;stroke-dashoffset:26.45668983;stroke-opacity:0.94901961" />
                  <path
                     inkscape:connector-curvature="0"
                     id="path852"
                     d="m -1.0609929,152.62695 10.3710941,-1.16601 c 1.2360248,-0.13904 2.4261268,-0.386 3.5605468,-0.73047 1.134419,-0.34448 2.212419,-0.78647 3.224609,-1.3125 1.01219,-0.52603 1.958789,-1.13661 2.828125,-1.82031 0.869336,-0.6837 1.66133,-1.44033 2.367187,-2.25782 0.705858,-0.81748 1.325901,-1.69566 1.847657,-2.62304 0.521755,-0.92739 0.946642,-1.90262 1.263672,-2.91602 0.317029,-1.01339 0.525508,-2.0651 0.617187,-3.14062 0.09168,-1.07553 0.0664,-2.1753 -0.08789,-3.28907 L 10.808148,31.425781 C 10.653852,30.312018 10.377936,29.239005 9.9956481,28.216797 9.6133591,27.194589 9.1243432,26.224569 8.5405696,25.3125 7.9567956,24.400431 7.2797901,23.547017 6.5210383,22.763672 5.7622866,21.980327 4.9224007,21.266897 4.015179,20.630859 3.1079572,19.994822 2.1322537,19.436943 1.1030696,18.966797 0.12669818,18.520776 -0.90435,18.16714 -1.9672429,17.886719 c -0.05075,0.58349 -0.1738281,1.145094 -0.1738281,1.742187 V 146.40039 c 0,2.19051 0.4350375,4.25714 1.0800781,6.22656 z"
                     style="opacity:1;fill:#999999;fill-opacity:1;fill-rule:nonzero;stroke:#333333;stroke-width:1.88976383;stroke-linecap:butt;stroke-linejoin:bevel;stroke-miterlimit:4;stroke-dasharray:none;stroke-dashoffset:26.45668983;stroke-opacity:0.94901961" />
                  <path
                     inkscape:connector-curvature="0"
                     id="path830"
                     d="m 64.827283,147.84927 v 12.61449"
                     style="fill:#999999;stroke:url(#linearGradient874);stroke-width:3.77952766;stroke-linecap:butt;stroke-linejoin:miter;stroke-miterlimit:4;stroke-dasharray:none;stroke-opacity:1" />
                  <path
                     style="fill:#4d4d4d;stroke:url(#linearGradient886);stroke-width:3.77952766;stroke-linecap:butt;stroke-linejoin:miter;stroke-miterlimit:4;stroke-dasharray:none;stroke-opacity:1"
                     d="m 88.827283,147.84927 v 12.61449"
                     id="path832"
                     inkscape:connector-curvature="0" />
                  <path
                     inkscape:connector-curvature="0"
                     id="path834"
                     d="m 114.82729,147.84927 v 12.61449"
                     style="fill:#4d4d4d;stroke:url(#linearGradient894);stroke-width:3.77952766;stroke-linecap:butt;stroke-linejoin:miter;stroke-miterlimit:4;stroke-dasharray:none;stroke-opacity:1" />
                  <path
                     style="fill:#4d4d4d;stroke:url(#linearGradient902);stroke-width:3.77952766;stroke-linecap:butt;stroke-linejoin:miter;stroke-miterlimit:4;stroke-dasharray:none;stroke-opacity:1"
                     d="m 140.82729,147.84927 v 12.61449"
                     id="path836"
                     inkscape:connector-curvature="0" />
                  <path
                     inkscape:connector-curvature="0"
                     id="path838"
                     d="m 164.82729,147.84927 v 12.61449"
                     style="fill:#4d4d4d;stroke:url(#linearGradient910);stroke-width:3.77952766;stroke-linecap:butt;stroke-linejoin:miter;stroke-miterlimit:4;stroke-dasharray:none;stroke-opacity:1" />
                  <path
                     style="fill:#4d4d4d;stroke:url(#linearGradient918);stroke-width:3.77952766;stroke-linecap:butt;stroke-linejoin:miter;stroke-miterlimit:4;stroke-dasharray:none;stroke-opacity:1"
                     d="m 190.82729,147.84927 v 12.61449"
                     id="path840"
                     inkscape:connector-curvature="0" />
                  <path
                     inkscape:connector-curvature="0"
                     id="rect817"
                     d="m 67.183148,17.251953 0.130859,99.431637 H 201.04839 c 6.648,0 12,-5.352 12,-12 V 29.251953 c 0,-6.648 -5.352,-12 -12,-12 z"
                     style="opacity:1;fill:#edeee9;fill-opacity:1;fill-rule:nonzero;stroke:#525252;stroke-width:1.88976383;stroke-linecap:butt;stroke-linejoin:bevel;stroke-miterlimit:4;stroke-dasharray:none;stroke-dashoffset:26.45668983;stroke-opacity:1" />
                  <path
                     sodipodi:nodetypes="csssscc"
                     inkscape:connector-curvature="0"
                     id="path921"
                     d="M 83.183148,17.251953 H 52.710491 c -6.648,0 -12,5.352 -12,12 v 75.431637 c 0,6.648 5.352,12 12,12 h 30.603516 z"
                     style="opacity:1;fill:#f2c40e;fill-opacity:1;fill-rule:nonzero;stroke:#525252;stroke-width:1.88976383;stroke-linecap:butt;stroke-linejoin:bevel;stroke-miterlimit:4;stroke-dasharray:none;stroke-dashoffset:26.45668983;stroke-opacity:1" />
                  <text
                     transform="rotate(-90)"
                     id="text925"
                     y="76.794662"
                     x="-110.09978"
                     style="font-style:normal;font-weight:normal;font-size:40px;line-height:1.25;font-family:sans-serif;letter-spacing:0px;word-spacing:0px;fill:#000000;fill-opacity:1;stroke:#333333;stroke-width:1.55382407;stroke-miterlimit:4;stroke-dasharray:none;stroke-opacity:1"
                     xml:space="preserve"><tspan
                       style="font-style:normal;font-variant:normal;font-weight:normal;font-stretch:normal;font-size:40px;font-family:'Arial Black';-inkscape-font-specification:'Arial Black, Normal';font-variant-ligatures:normal;font-variant-caps:normal;font-variant-numeric:normal;font-feature-settings:normal;text-align:start;writing-mode:lr-tb;text-anchor:start;fill:#ffffff;stroke:#333333;stroke-width:1.55382407;stroke-miterlimit:4;stroke-dasharray:none;stroke-opacity:1"
                       y="76.794662"
                       x="-110.09978"
                       id="tspan923"
                       sodipodi:role="line">32X</tspan></text>
                  <g
                     transform="matrix(0.38519356,0,0,0.38519356,90.010181,47.791874)"
                     id="g1041">
                    <path
                       inkscape:connector-curvature="0"
                       d="m 147.808,90.893999 c 5.508,5.349 13.019,8.656 21.303,8.656 l 130.889,0.015 -28.268,-84.332 C 267.871,6.2739988 258.813,-1.2207031e-6 247.934,-1.2207031e-6 237.101,-1.2207031e-6 227.906,6.4789988 224.189,15.400999 l -9.423,27.471 -0.037,-41.4530002 -45.709,-0.023 c -8.262,0 -15.689,3.224 -21.159,8.557 l 0.016,-8.52 h -46.801 c -8.717,0 -16.645,3.717 -22.19,9.5590002 V 1.3959988 l -44.11,0.038 C 15.734,1.4179988 0.114,16.302999 0.091,35.982999 c 0,9.111 3.982,17.374 9.854,23.496 L 0,59.462999 v 40.087 l 44.442,-0.008 c 12.487,-0.015 24.861,-7.549 29.162,-16.576 l 0.129,-0.371 c 4.969,10.036 15.339,16.955 27.341,16.955 l 46.733,-0.008 v -8.648"
                       style="fill:#ffffff"
                       id="path997" />
                    <path
                       inkscape:connector-curvature="0"
                       d="m 6.866,92.690999 37.477,-0.038 c 15.333,0 27.759,-12.388 27.759,-27.652 0,-15.294 -12.426,-27.683 -27.759,-27.683 l -9.733,0.053 c -0.767,0 -1.389,-0.629 -1.389,-1.403 0,-0.774 0.622,-1.404 1.389,-1.404 l 37.409,0.008 0.015,-11.736 H 34.602 c -7.237,0 -13.125,5.879 -13.125,13.102 0,7.23 5.887,13.086 13.125,13.086 l 9.779,0.129 c 8.785,0 15.894,7.085 15.894,15.826 0,8.747 -7.108,15.848 -15.894,15.848 h -37.5 l -0.015,11.864"
                       style="fill:#0060a8"
                       id="path999" />
                    <path
                       inkscape:connector-curvature="0"
                       d="m 6.881,78.071999 h 37.5 c 7.26,0 13.132,-5.856 13.132,-13.094 0,-7.23 -5.872,-13.079 -13.132,-13.079 l -9.779,-0.106 c -8.77,0 -15.886,-7.093 -15.886,-15.856 0,-8.739 7.116,-15.833 15.886,-15.833 l 37.432,-0.008 L 72.019,8.3149988 H 34.61 c -15.317,0 -27.759,12.3740002 -27.759,27.6530002 0,15.279 12.442,27.66 27.759,27.66 l 9.68,0.015 c 0.736,0 1.358,0.6 1.358,1.358 0,0.744 -0.622,1.343 -1.358,1.343 l -37.424,0.03 0.015,11.698"
                       style="fill:#0060a8"
                       id="path1001" />
                    <path
                       inkscape:connector-curvature="0"
                       d="m 101.158,80.901999 c -6.502,0 -11.828,-5.182 -11.828,-11.798 v -37.438 c 0,-6.365 5.326,-11.6 11.828,-11.6 l 40.003,0.007 V 8.3149988 h -40.003 c -13.018,0 -23.563,10.5070002 -23.563,23.4800002 v 37.31 c 0,12.974 10.545,23.496 23.563,23.496 l 39.836,0.016 -0.008,-11.729 -39.828,0.014"
                       style="fill:#0060a8"
                       id="path1003" />
                    <path
                       inkscape:connector-curvature="0"
                       d="m 92.198,31.794999 c 0,-4.961 3.991,-8.982 8.96,-8.982 h 40.003 v 11.774 h -34.465 c -2.761,0 -2.799,2.739 -2.799,2.739 h 28.753 v 11.721 H 92.184 l 0.014,-17.252"
                       style="fill:#0060a8"
                       id="path1005" />
                    <path
                       inkscape:connector-curvature="0"
                       d="m 101.158,78.049999 c -4.954,0 -8.975,-3.998 -8.975,-8.945 v -17.267 h 40.466 v 11.745 h -28.753 c 0.038,2.761 2.799,2.775 2.799,2.775 h 34.298 l -0.008,11.676 -39.827,0.016"
                       style="fill:#0060a8"
                       id="path1007" />
                    <path
                       inkscape:connector-curvature="0"
                       d="m 169.194,80.871999 c -6.479,0 -11.774,-5.28 -11.774,-11.768 v -37.31 c 0,-6.494 5.257,-11.729 11.743,-11.729 h 38.745 V 8.3149988 h -38.835 c -13.012,0 -23.557,10.5070002 -23.557,23.4800002 v 37.31 c 0,12.974 10.636,23.496 23.647,23.496 l 38.745,0.016 v -55.291 h -33.297 v 11.721 h 21.53 v 31.825 h -26.947"
                       style="fill:#0060a8"
                       id="path1009" />
                    <path
                       inkscape:connector-curvature="0"
                       d="m 160.181,69.103999 c 0,4.971 4.021,9.014 8.982,9.014 h 24.201 v -26.295 H 174.64 v 11.76 h 6.949 l 0.022,2.761 h -6.918 c -1.51,0 -2.746,-1.251 -2.746,-2.761 l -0.062,-26.265 c 0,0 -0.008,-2.731 2.777,-2.799 h 33.259 l -0.015,-11.714 -38.745,0.008 c -4.961,0 -8.982,4.021 -8.982,8.982 v 37.309"
                       style="fill:#0060a8"
                       id="path1011" />
                    <path
                       inkscape:connector-curvature="0"
                       d="m 244.315,22.637999 c 0.522,-1.494 1.941,-2.571 3.618,-2.571 1.678,0 3.111,1.077 3.619,2.571 l 18.808,55.563 h -27.54 l 0.03,-13.071 h 9.203 l -4.143,-12.313 -13.496,39.79 h -13.883 l 23.784,-69.969"
                       style="fill:#0060a8"
                       id="path1013" />
                    <path
                       inkscape:connector-curvature="0"
                       d="m 274.152,80.871999 h -31.286 v 11.735 h 47.612 l -24.762,-73.262 c -2.17,-7.146 -9.323,-12.4030002 -17.791,-12.4030002 -8.481,0 -15.612,5.2340002 -17.798,12.3740002 l -24.989,73.292 h 12.465 l 24.262,-71.244 c 0.985,-2.359 3.308,-4.021 6.039,-4.021 2.716,0 5.052,1.662 6.046,4.006 l 20.202,59.523"
                       style="fill:#0060a8"
                       id="path1015" />
                    <path
                       inkscape:connector-curvature="0"
                       d="m 281.504,17.638999 c 2.216,0 4.302,-0.865 5.865,-2.42 1.562,-1.57 2.435,-3.641 2.435,-5.8560002 0,-2.2 -0.873,-4.264 -2.435,-5.834 -1.563,-1.547 -3.649,-2.412 -5.865,-2.412 -4.559,0 -8.284,3.695 -8.284,8.247 0,2.2150002 0.865,4.2860002 2.442,5.8560002 1.556,1.554 3.634,2.419 5.842,2.419 m -7.115,-8.2770002 c 0,-1.889 0.728,-3.679 2.085,-5.022 1.351,-1.343 3.141,-2.071 5.03,-2.071 1.912,0 3.702,0.729 5.053,2.071 1.343,1.343 2.087,3.133 2.087,5.022 0,3.9220002 -3.202,7.1080002 -7.14,7.1080002 -1.89,0 -3.68,-0.736 -5.03,-2.079 -1.358,-1.342 -2.085,-3.125 -2.085,-5.0290002 z"
                       style="fill:#231f20"
                       id="path1017" />
                    <path
                       inkscape:connector-curvature="0"
                       d="m 279.38,10.059999 v 3.899 h -1.199 V 4.7949988 h 3.406 c 1.283,0.015 2.034,0.015 2.747,0.553 0.69,0.509 0.979,1.275 0.979,2.125 0,2.14 -1.744,2.42 -2.186,2.511 l 2.58,3.9750002 h -1.449 l -2.511,-3.899 h -2.367 m 0,-1.0090002 h 2.435 c 0.388,0 0.752,0 1.116,-0.091 0.85,-0.205 1.153,-0.812 1.153,-1.479 0,-0.243 -0.023,-0.857 -0.547,-1.282 -0.479,-0.402 -1.085,-0.387 -1.79,-0.387 h -2.367 z"
                       style="fill:#231f20"
                       id="path1019" />
                  </g>
                </g>
              </g>
            </g>
          </g>
        </g>
      </g>
    </g>
  </g>
</svg>
