<?xml version="1.0" encoding="UTF-8" standalone="no"?>
<!-- Created with Inkscape (http://www.inkscape.org/) -->

<svg
   xmlns:dc="http://purl.org/dc/elements/1.1/"
   xmlns:cc="http://creativecommons.org/ns#"
   xmlns:rdf="http://www.w3.org/1999/02/22-rdf-syntax-ns#"
   xmlns:svg="http://www.w3.org/2000/svg"
   xmlns="http://www.w3.org/2000/svg"
   xmlns:xlink="http://www.w3.org/1999/xlink"
   xmlns:sodipodi="http://sodipodi.sourceforge.net/DTD/sodipodi-0.dtd"
   xmlns:inkscape="http://www.inkscape.org/namespaces/inkscape"
   width="128"
   height="128"
   viewBox="0 0 33.866667 33.866667"
   version="1.1"
   id="svg2634"
   inkscape:version="0.92.4 (unknown)"
   sodipodi:docname="application-x-theme.svg">
  <title
     id="title3250">Boston Icons</title>
  <defs
     id="defs2628">
    <linearGradient
       id="linearGradient15413"
       inkscape:collect="always">
      <stop
         id="stop15409"
         offset="0"
         style="stop-color:#ffffff;stop-opacity:1" />
      <stop
         id="stop15411"
         offset="1"
         style="stop-color:#ecf6ff;stop-opacity:1" />
    </linearGradient>
    <linearGradient
       gradientTransform="matrix(0.26458334,0,0,0.26458334,83.1508,137.55654)"
       inkscape:collect="always"
       xlink:href="#linearGradient6044"
       id="linearGradient6056"
       x1="82.000015"
       y1="30"
       x2="-68.741905"
       y2="262.23938"
       gradientUnits="userSpaceOnUse" />
    <linearGradient
       inkscape:collect="always"
       id="linearGradient6044">
      <stop
         style="stop-color:#ffffff;stop-opacity:1"
         offset="0"
         id="stop6040" />
      <stop
         style="stop-color:#c9e4ff;stop-opacity:1"
         offset="1"
         id="stop6042" />
    </linearGradient>
    <linearGradient
       inkscape:collect="always"
       xlink:href="#linearGradient6044"
       id="linearGradient68"
       gradientUnits="userSpaceOnUse"
       gradientTransform="matrix(0.2750733,0,0,0.2750733,109.63213,133.83645)"
       x1="82.000015"
       y1="30"
       x2="-68.741905"
       y2="262.23938" />
    <linearGradient
       inkscape:collect="always"
       xlink:href="#linearGradient6044"
       id="linearGradient918"
       gradientUnits="userSpaceOnUse"
       gradientTransform="matrix(0.2750733,0,0,0.2750733,109.63213,133.83645)"
       x1="82.000015"
       y1="30"
       x2="-68.741905"
       y2="262.23938" />
    <linearGradient
       inkscape:collect="always"
       xlink:href="#linearGradient15413"
       id="linearGradient15407"
       x1="95.027657"
       y1="84.356239"
       x2="71.875519"
       y2="113.65475"
       gradientUnits="userSpaceOnUse" />
    <inkscape:path-effect
       only_selected="false"
       apply_with_weight="true"
       apply_no_weight="true"
       helper_size="0"
       steps="2"
       weight="33.333333"
       is_visible="true"
       id="path-effect4198"
       effect="bspline" />
    <inkscape:path-effect
       only_selected="false"
       apply_with_weight="true"
       apply_no_weight="true"
       helper_size="0"
       steps="2"
       weight="33.333333"
       is_visible="true"
       id="path-effect4204"
       effect="bspline" />
    <inkscape:path-effect
       effect="bspline"
       id="path-effect4208"
       is_visible="true"
       weight="33.333333"
       steps="2"
       helper_size="0"
       apply_no_weight="true"
       apply_with_weight="true"
       only_selected="false" />
    <inkscape:path-effect
       only_selected="false"
       apply_with_weight="true"
       apply_no_weight="true"
       helper_size="0"
       steps="2"
       weight="33.333333"
       is_visible="true"
       id="path-effect4212"
       effect="bspline" />
    <inkscape:path-effect
       effect="bspline"
       id="path-effect4216"
       is_visible="true"
       weight="33.333333"
       steps="2"
       helper_size="0"
       apply_no_weight="true"
       apply_with_weight="true"
       only_selected="false" />
    <inkscape:path-effect
       only_selected="false"
       apply_with_weight="true"
       apply_no_weight="true"
       helper_size="0"
       steps="2"
       weight="33.333333"
       is_visible="true"
       id="path-effect4220"
       effect="bspline" />
    <inkscape:path-effect
       only_selected="false"
       apply_with_weight="true"
       apply_no_weight="true"
       helper_size="0"
       steps="2"
       weight="33.333333"
       is_visible="true"
       id="path-effect4224"
       effect="bspline" />
    <inkscape:path-effect
       effect="bspline"
       id="path-effect4228"
       is_visible="true"
       weight="33.333333"
       steps="2"
       helper_size="0"
       apply_no_weight="true"
       apply_with_weight="true"
       only_selected="false" />
    <inkscape:path-effect
       effect="bspline"
       id="path-effect4043"
       is_visible="true"
       weight="33.333333"
       steps="2"
       helper_size="0"
       apply_no_weight="true"
       apply_with_weight="true"
       only_selected="false" />
    <inkscape:path-effect
       only_selected="false"
       apply_with_weight="true"
       apply_no_weight="true"
       helper_size="0"
       steps="2"
       weight="33.333333"
       is_visible="true"
       id="path-effect2489"
       effect="bspline" />
    <inkscape:path-effect
       only_selected="false"
       apply_with_weight="true"
       apply_no_weight="true"
       helper_size="0"
       steps="2"
       weight="33.333333"
       is_visible="true"
       id="path-effect4198-0"
       effect="bspline" />
    <inkscape:path-effect
       only_selected="false"
       apply_with_weight="true"
       apply_no_weight="true"
       helper_size="0"
       steps="2"
       weight="33.333333"
       is_visible="true"
       id="path-effect4204-9"
       effect="bspline" />
    <inkscape:path-effect
       effect="bspline"
       id="path-effect4208-4"
       is_visible="true"
       weight="33.333333"
       steps="2"
       helper_size="0"
       apply_no_weight="true"
       apply_with_weight="true"
       only_selected="false" />
    <inkscape:path-effect
       only_selected="false"
       apply_with_weight="true"
       apply_no_weight="true"
       helper_size="0"
       steps="2"
       weight="33.333333"
       is_visible="true"
       id="path-effect4212-6"
       effect="bspline" />
    <inkscape:path-effect
       effect="bspline"
       id="path-effect4216-9"
       is_visible="true"
       weight="33.333333"
       steps="2"
       helper_size="0"
       apply_no_weight="true"
       apply_with_weight="true"
       only_selected="false" />
    <inkscape:path-effect
       only_selected="false"
       apply_with_weight="true"
       apply_no_weight="true"
       helper_size="0"
       steps="2"
       weight="33.333333"
       is_visible="true"
       id="path-effect4220-2"
       effect="bspline" />
    <inkscape:path-effect
       only_selected="false"
       apply_with_weight="true"
       apply_no_weight="true"
       helper_size="0"
       steps="2"
       weight="33.333333"
       is_visible="true"
       id="path-effect4224-2"
       effect="bspline" />
    <inkscape:path-effect
       effect="bspline"
       id="path-effect4228-4"
       is_visible="true"
       weight="33.333333"
       steps="2"
       helper_size="0"
       apply_no_weight="true"
       apply_with_weight="true"
       only_selected="false" />
    <inkscape:path-effect
       effect="bspline"
       id="path-effect2155"
       is_visible="true"
       weight="33.333333"
       steps="2"
       helper_size="0"
       apply_no_weight="true"
       apply_with_weight="true"
       only_selected="false" />
    <inkscape:path-effect
       effect="bspline"
       id="path-effect1868"
       is_visible="true"
       weight="33.333333"
       steps="2"
       helper_size="0"
       apply_no_weight="true"
       apply_with_weight="true"
       only_selected="false" />
    <inkscape:path-effect
       only_selected="false"
       apply_with_weight="true"
       apply_no_weight="true"
       helper_size="0"
       steps="2"
       weight="33.333333"
       is_visible="true"
       id="path-effect1864"
       effect="bspline" />
    <inkscape:path-effect
       effect="bspline"
       id="path-effect1860"
       is_visible="true"
       weight="33.333333"
       steps="2"
       helper_size="0"
       apply_no_weight="true"
       apply_with_weight="true"
       only_selected="false" />
    <inkscape:path-effect
       effect="bspline"
       id="path-effect1856"
       is_visible="true"
       weight="33.333333"
       steps="2"
       helper_size="0"
       apply_no_weight="true"
       apply_with_weight="true"
       only_selected="false" />
    <inkscape:path-effect
       only_selected="false"
       apply_with_weight="true"
       apply_no_weight="true"
       helper_size="0"
       steps="2"
       weight="33.333333"
       is_visible="true"
       id="path-effect1852"
       effect="bspline" />
    <inkscape:path-effect
       effect="bspline"
       id="path-effect1848"
       is_visible="true"
       weight="33.333333"
       steps="2"
       helper_size="0"
       apply_no_weight="true"
       apply_with_weight="true"
       only_selected="false" />
    <inkscape:path-effect
       only_selected="false"
       apply_with_weight="true"
       apply_no_weight="true"
       helper_size="0"
       steps="2"
       weight="33.333333"
       is_visible="true"
       id="path-effect1844"
       effect="bspline" />
    <inkscape:path-effect
       effect="bspline"
       id="path-effect1840"
       is_visible="true"
       weight="33.333333"
       steps="2"
       helper_size="0"
       apply_no_weight="true"
       apply_with_weight="true"
       only_selected="false" />
    <radialGradient
       inkscape:collect="always"
       xlink:href="#linearGradient3178"
       id="radialGradient1813"
       gradientUnits="userSpaceOnUse"
       gradientTransform="matrix(1.8622283,-0.1366137,0.13727044,1.8711803,-4.0738946,-131.52318)"
       cx="24.122021"
       cy="82.472511"
       fx="24.122021"
       fy="82.472511"
       r="2.0383766" />
    <linearGradient
       inkscape:collect="always"
       xlink:href="#linearGradient1040"
       id="linearGradient1817"
       gradientUnits="userSpaceOnUse"
       x1="123.29128"
       y1="141.4565"
       x2="140.69991"
       y2="141.4565" />
    <linearGradient
       inkscape:collect="always"
       id="linearGradient1040">
      <stop
         style="stop-color:#ffdd9c;stop-opacity:1"
         offset="0"
         id="stop1036" />
      <stop
         style="stop-color:#ffff9c;stop-opacity:1"
         offset="1"
         id="stop1038" />
    </linearGradient>
    <inkscape:path-effect
       only_selected="false"
       apply_with_weight="true"
       apply_no_weight="true"
       helper_size="0"
       steps="2"
       weight="33.333333"
       is_visible="true"
       id="path-effect2415"
       effect="bspline" />
    <inkscape:path-effect
       effect="bspline"
       id="path-effect2421"
       is_visible="true"
       weight="33.333333"
       steps="2"
       helper_size="0"
       apply_no_weight="true"
       apply_with_weight="true"
       only_selected="false" />
    <linearGradient
       y2="113.65475"
       x2="71.875519"
       y1="84.356239"
       x1="95.027657"
       gradientUnits="userSpaceOnUse"
       id="linearGradient15544"
       xlink:href="#linearGradient15413"
       inkscape:collect="always"
       gradientTransform="translate(88.616078,50.950701)" />
    <linearGradient
       gradientTransform="matrix(4.9927817,0,0,4.9927817,-365.17458,168.95481)"
       inkscape:collect="always"
       xlink:href="#linearGradient3178"
       id="linearGradient2853"
       x1="75.865334"
       y1="-26.11849"
       x2="79.768509"
       y2="-33.780106"
       gradientUnits="userSpaceOnUse" />
    <linearGradient
       id="linearGradient3178"
       inkscape:collect="always">
      <stop
         id="stop3174"
         offset="0"
         style="stop-color:#ffffff;stop-opacity:1" />
      <stop
         id="stop3176"
         offset="1"
         style="stop-color:#edebec;stop-opacity:1" />
    </linearGradient>
    <radialGradient
       inkscape:collect="always"
       xlink:href="#linearGradient3178"
       id="radialGradient2903"
       gradientUnits="userSpaceOnUse"
       gradientTransform="matrix(6.5600435,-0.48124702,0.48356051,6.5915786,-63.45067,-398.08537)"
       cx="24.122021"
       cy="82.472511"
       fx="24.122021"
       fy="82.472511"
       r="2.0383766" />
    <linearGradient
       inkscape:collect="always"
       xlink:href="#linearGradient3178"
       id="linearGradient2905"
       gradientUnits="userSpaceOnUse"
       gradientTransform="matrix(3.5226849,0,0,3.5226849,-146.96421,255.36628)"
       x1="75.865334"
       y1="-26.11849"
       x2="79.768509"
       y2="-33.780106" />
    <radialGradient
       id="d"
       fx="6.1999998"
       gradientUnits="userSpaceOnUse"
       cy="9.9569998"
       cx="6.73"
       gradientTransform="matrix(0,6.2418968,-7.6632635,0,203.53687,81.319209)"
       r="12.672">
      <stop
         stop-color="#bd94e7"
         offset="0"
         id="stop1300" />
      <stop
         stop-color="#7b6ca3"
         offset=".262"
         id="stop1302" />
      <stop
         stop-color="#574a76"
         offset=".705"
         id="stop1304" />
      <stop
         stop-color="#3f3654"
         offset="1"
         id="stop1306" />
    </radialGradient>
    <filter
       inkscape:collect="always"
       style="color-interpolation-filters:sRGB"
       id="filter5225"
       x="-0.060064103"
       width="1.1201282"
       y="-0.059936032"
       height="1.1198721">
      <feGaussianBlur
         inkscape:collect="always"
         stdDeviation="1.0010809"
         id="feGaussianBlur5227" />
    </filter>
    <filter
       inkscape:collect="always"
       style="color-interpolation-filters:sRGB"
       id="filter5231"
       x="-0.024025641"
       width="1.0480514"
       y="-0.023974413"
       height="1.0479488">
      <feGaussianBlur
         inkscape:collect="always"
         stdDeviation="0.40043237"
         id="feGaussianBlur5233" />
    </filter>
    <clipPath
       clipPathUnits="userSpaceOnUse"
       id="clipPath5086">
      <path
         inkscape:connector-curvature="0"
         style="opacity:0.2;fill:#000000;fill-opacity:1;stroke:none;stroke-width:2;stroke-linejoin:round;stroke-miterlimit:4;stroke-dasharray:none;stroke-opacity:1"
         d="m 482.15749,43.27838 -68,117.77945 -4,6.92821 c -4.432,7.67645 -1.82004,17.4244 5.85641,21.8564 7.67645,4.432 17.42441,1.82005 21.85641,-5.8564 l 4,-6.92821 68,-117.77945 z"
         id="path5088" />
    </clipPath>
    <filter
       inkscape:collect="always"
       style="color-interpolation-filters:sRGB"
       id="filter5098"
       x="-0.36000001"
       width="1.72"
       y="-0.071999997"
       height="1.1440001">
      <feGaussianBlur
         inkscape:collect="always"
         stdDeviation="4.8"
         id="feGaussianBlur5100" />
    </filter>
    <clipPath
       clipPathUnits="userSpaceOnUse"
       id="clipPath1204">
      <path
         inkscape:connector-curvature="0"
         style="opacity:0.2;fill:#000000;fill-opacity:1;stroke:none;stroke-width:2;stroke-linejoin:round;stroke-miterlimit:4;stroke-dasharray:none;stroke-opacity:1"
         d="m 482.15749,43.27838 -68,117.77945 -4,6.92821 c -4.432,7.67645 -1.82004,17.4244 5.85641,21.8564 7.67645,4.432 17.42441,1.82005 21.85641,-5.8564 l 4,-6.92821 68,-117.77945 z"
         id="path1202" />
    </clipPath>
    <clipPath
       clipPathUnits="userSpaceOnUse"
       id="clipPath1212">
      <path
         inkscape:connector-curvature="0"
         style="opacity:0.2;fill:#000000;fill-opacity:1;stroke:none;stroke-width:2;stroke-linejoin:round;stroke-miterlimit:4;stroke-dasharray:none;stroke-opacity:1"
         d="m 482.15749,43.27838 -68,117.77945 -4,6.92821 c -4.432,7.67645 -1.82004,17.4244 5.85641,21.8564 7.67645,4.432 17.42441,1.82005 21.85641,-5.8564 l 4,-6.92821 68,-117.77945 z"
         id="path1210" />
    </clipPath>
    <filter
       inkscape:collect="always"
       style="color-interpolation-filters:sRGB"
       id="filter5052"
       x="-0.12"
       width="1.24"
       y="-0.12"
       height="1.24">
      <feGaussianBlur
         inkscape:collect="always"
         stdDeviation="0.2"
         id="feGaussianBlur5054" />
    </filter>
  </defs>
  <sodipodi:namedview
     id="base"
     pagecolor="#ffffff"
     bordercolor="#00ffed"
     borderopacity="1"
     inkscape:pageopacity="1"
     inkscape:pageshadow="2"
     inkscape:zoom="2.8284271"
     inkscape:cx="106.4293"
     inkscape:cy="50.156352"
     inkscape:document-units="px"
     inkscape:current-layer="layer1-1"
     showgrid="false"
     showguides="false"
     inkscape:guide-bbox="true"
     fit-margin-top="0"
     fit-margin-left="0"
     fit-margin-right="0"
     fit-margin-bottom="0"
     inkscape:window-width="1366"
     inkscape:window-height="704"
     inkscape:window-x="0"
     inkscape:window-y="0"
     inkscape:window-maximized="1"
     units="px"
     inkscape:snap-bbox="true"
     inkscape:snap-global="false"
     inkscape:snap-intersection-paths="true"
     inkscape:object-paths="true"
     inkscape:snap-midpoints="false"
     inkscape:snap-smooth-nodes="false"
     inkscape:object-nodes="false"
     inkscape:snap-others="false"
     inkscape:snap-bbox-midpoints="true"
     inkscape:bbox-nodes="true"
     inkscape:bbox-paths="true"
     inkscape:snap-bbox-edge-midpoints="false"
     inkscape:snap-page="true"
     inkscape:lockguides="true">
    <inkscape:grid
       type="xygrid"
       id="grid3182"
       spacingx="0.52916667"
       spacingy="0.52916667"
       empspacing="4"
       originx="-82.550004"
       originy="-127.00001"
       dotted="false" />
    <sodipodi:guide
       position="-4.268358e-06,27.516666"
       orientation="1,0"
       id="guide3216"
       inkscape:locked="true" />
    <sodipodi:guide
       position="3.7041618,33.866666"
       orientation="0,1"
       id="guide3218"
       inkscape:locked="true" />
    <sodipodi:guide
       position="33.866657,24.870836"
       orientation="1,0"
       id="guide3220"
       inkscape:locked="true" />
    <sodipodi:guide
       position="32.279157,-4.1479283e-06"
       orientation="0,1"
       id="guide3222"
       inkscape:locked="true" />
    <sodipodi:guide
       position="15.345829,32.808336"
       orientation="0,1"
       id="guide3224"
       inkscape:locked="true" />
    <sodipodi:guide
       position="-4.7625023,1.0583259"
       orientation="0,1"
       id="guide3226"
       inkscape:locked="true" />
    <sodipodi:guide
       position="1.0583287,17.462496"
       orientation="1,0"
       id="guide3228"
       inkscape:locked="true" />
    <sodipodi:guide
       position="32.808327,20.108336"
       orientation="1,0"
       id="guide3230"
       inkscape:locked="true" />
    <sodipodi:guide
       position="15.874995,31.750006"
       orientation="0,1"
       id="guide3232"
       inkscape:locked="true" />
    <sodipodi:guide
       position="2.1166617,24.870836"
       orientation="1,0"
       id="guide3234"
       inkscape:locked="true" />
    <sodipodi:guide
       position="3.1749958,25.400006"
       orientation="1,0"
       id="guide3236"
       inkscape:locked="true" />
    <sodipodi:guide
       position="5.2916633,15.345824"
       orientation="1,0"
       id="guide3238"
       inkscape:locked="true" />
    <sodipodi:guide
       position="28.574997,25.400006"
       orientation="1,0"
       id="guide3240"
       inkscape:locked="true" />
    <sodipodi:guide
       position="30.691657,24.341666"
       orientation="1,0"
       id="guide3242"
       inkscape:locked="true" />
    <sodipodi:guide
       position="31.749997,21.695836"
       orientation="1,0"
       id="guide3244"
       inkscape:locked="true" />
    <sodipodi:guide
       position="21.695827,2.1166659"
       orientation="0,1"
       id="guide3246"
       inkscape:locked="true" />
    <sodipodi:guide
       position="16.404162,3.1749959"
       orientation="0,1"
       id="guide3248"
       inkscape:locked="true" />
    <sodipodi:guide
       position="15.874997,27.516658"
       orientation="0.70710678,0.70710678"
       id="guide850"
       inkscape:locked="true" />
    <sodipodi:guide
       position="26.987497,30.162491"
       orientation="0,1"
       id="guide843"
       inkscape:locked="true" />
    <sodipodi:guide
       position="30.162497,26.458325"
       orientation="0,1"
       id="guide845"
       inkscape:locked="true" />
  </sodipodi:namedview>
  <metadata
     id="metadata2631">
    <rdf:RDF>
      <cc:Work
         rdf:about="">
        <dc:format>image/svg+xml</dc:format>
        <dc:type
           rdf:resource="http://purl.org/dc/dcmitype/StillImage" />
        <dc:title>Boston Icons</dc:title>
        <cc:license
           rdf:resource="dribbble.com/chrisdiaz" />
        <dc:creator>
          <cc:Agent>
            <dc:title>Christian Díaz</dc:title>
          </cc:Agent>
        </dc:creator>
        <dc:date>2019</dc:date>
        <dc:publisher>
          <cc:Agent>
            <dc:title>Christian Díaz</dc:title>
          </cc:Agent>
        </dc:publisher>
        <dc:identifier>christiandiaz.design [at] gmail [dot] com</dc:identifier>
        <dc:subject>
          <rdf:Bag>
            <rdf:li>GNOME icon Theme</rdf:li>
          </rdf:Bag>
        </dc:subject>
        <dc:description>diazchris.deviantart.com | dribbble.com/chrisdiaz</dc:description>
      </cc:Work>
    </rdf:RDF>
  </metadata>
  <g
     inkscape:label="Capa 1"
     inkscape:groupmode="layer"
     id="layer1"
     transform="translate(-82.550003,-136.13333)">
    <g
       id="g849">
      <g
         id="g4250"
         transform="matrix(2,0,0,2,-56.039075,215.1337)">
        <g
           id="g1811"
           transform="translate(27.72678,-53.975009)">
          <g
             transform="matrix(0.28387438,0,0,0.28387438,13.938124,-18.516941)"
             id="layer1-1"
             inkscape:label="Capa 1"
             style="stroke-width:1.40907395;stroke-miterlimit:4;stroke-dasharray:none">
            <text
               id="text905"
               y="143.81902"
               x="132.25627"
               style="font-style:normal;font-weight:normal;font-size:18.64087486px;line-height:1.25;font-family:sans-serif;letter-spacing:0px;word-spacing:0px;fill:#000000;fill-opacity:1;stroke:none;stroke-width:0.93069822;stroke-miterlimit:4;stroke-dasharray:none;stroke-opacity:1"
               xml:space="preserve"><tspan
                 style="stroke-width:0.93069822"
                 y="159.70198"
                 x="132.25627"
                 id="tspan903"
                 sodipodi:role="line" /></text>
            <path
               inkscape:connector-curvature="0"
               id="path1768"
               d="m 148.04674,134.86046 -14.36112,-14.36658 v 8.77432 c 0,3.09813 2.49415,5.59226 5.59227,5.59226 z"
               style="opacity:1;fill:url(#radialGradient2903);fill-opacity:1;stroke:none;stroke-width:1.86350024;stroke-linecap:round;stroke-linejoin:round;stroke-miterlimit:4;stroke-dasharray:none;stroke-opacity:1" />
            <path
               inkscape:path-effect="#path-effect2415"
               sodipodi:nodetypes="cc"
               inkscape:original-d="m 123.99852,133.45649 c 5.37302,5.37299 10.66377,10.66567 15.99415,16.00001"
               inkscape:connector-curvature="0"
               id="path1809"
               d="m 123.99852,133.45649 c 5.37202,5.37399 10.66277,10.66667 15.99415,16.00001"
               style="fill:url(#linearGradient1817);fill-opacity:1;stroke:#989899;stroke-width:1.51181102;stroke-linecap:butt;stroke-linejoin:miter;stroke-miterlimit:4;stroke-dasharray:none;stroke-opacity:1"
               transform="matrix(0.93204371,0,0,0.93204371,18.113584,-4.4395119)" />
            <path
               inkscape:connector-curvature="0"
               style="opacity:1;fill:url(#linearGradient2905);fill-opacity:1;stroke:#999999;stroke-width:1.40907395;stroke-linecap:round;stroke-linejoin:round;stroke-miterlimit:4;stroke-dasharray:none;stroke-opacity:0.98039216"
               d="m 111.31113,119.94778 c -3.09812,0 -5.59227,2.49413 -5.59227,5.59226 v 41.00991 c 0,3.0981 2.49415,5.59227 5.59227,5.59227 h 31.68947 c 3.09811,0 5.59226,-2.49417 5.59226,-5.59227 v -31.68948 h -9.31497 c -3.09811,0 -5.59226,-2.49414 -5.59226,-5.59227 v -9.32042 z"
               id="path4200" />
            <g
               transform="matrix(0.75556698,0,0,0.75556698,-0.1999337,-46.579998)"
               style="display:inline;enable-background:new"
               id="g1184">
              <path
                 inkscape:connector-curvature="0"
                 id="path5207"
                 d="m 147.99953,240.99992 v 0.25 7.75 8 8 8 4 c 0,0.01 0.001,0.0198 0.002,0.0298 -0.009,0.69663 0.15963,1.4051 0.53467,2.05469 0.88971,1.54103 2.63587,2.26351 4.2832,1.91553 h 3.18063 8 8 8 8 v -7.75 -0.25 h -8 -8 -4.92481 l 18.10205,-10.45118 -0.0376,-0.0649 0.0405,-0.0234 -4,-6.92822 -6.92773,4 -6.92822,4 -4.39258,2.53613 2.53613,-4.39258 4,-6.92822 4,-6.92774 -6.92822,-4 -4,6.92774 -4,6.92822 L 156,262.07422 V 257 249 241.25 241 h -8 z"
                 style="opacity:0.1;fill:#000000;fill-opacity:1;filter:url(#filter5225)" />
              <path
                 style="opacity:0.3;fill:#000000;fill-opacity:1;filter:url(#filter5231)"
                 d="m 147.99953,240.99992 v 0.25 7.75 8 8 8 4 c 0,0.01 0.001,0.0198 0.002,0.0298 -0.009,0.69663 0.15963,1.4051 0.53467,2.05469 0.88971,1.54103 2.63587,2.26351 4.2832,1.91553 h 3.18063 8 8 8 8 v -7.75 -0.25 h -8 -8 -4.92481 l 18.10205,-10.45118 -0.0376,-0.0649 0.0405,-0.0234 -4,-6.92822 -6.92773,4 -6.92822,4 -4.39258,2.53613 2.53613,-4.39258 4,-6.92822 4,-6.92774 -6.92822,-4 -4,6.92774 -4,6.92822 L 156,262.07422 V 257 249 241.25 241 h -8 z"
                 id="path5229"
                 inkscape:connector-curvature="0" />
              <path
                 inkscape:connector-curvature="0"
                 id="path4113"
                 d="m 156,276 c 0,2.216 -1.784,4 -4,4 h 4 z"
                 style="fill:#03a9f4;fill-opacity:1" />
              <path
                 inkscape:connector-curvature="0"
                 id="rect4115"
                 d="m 180,272 v 8 h -8 v -8 z"
                 style="fill:#81d4fa;fill-opacity:1" />
              <path
                 inkscape:connector-curvature="0"
                 id="rect4117"
                 d="m 172,272 v 8 h -8 v -8 z"
                 style="fill:#4fc3f7;fill-opacity:1" />
              <path
                 inkscape:connector-curvature="0"
                 id="rect4119"
                 d="m 164,272 v 8 h -8 v -8 z"
                 style="fill:#29b6f6;fill-opacity:1" />
              <path
                 inkscape:connector-curvature="0"
                 id="rect4121"
                 d="m 188,272 v 8 h -8 v -8 z"
                 style="fill:#b3e5fc;fill-opacity:1" />
              <path
                 clip-path="url(#clipPath5086)"
                 id="path5120"
                 transform="matrix(0.125,0.21650635,-0.21650635,0.125,137.10036,162.20004)"
                 d="m 408,32 v 136 8 c 0,8.864 7.136,16 16,16 8.864,0 16,-7.136 16,-16 V 168 32 Z"
                 style="opacity:0.2;fill:#000000;fill-opacity:1;stroke:none;stroke-width:2;stroke-linejoin:round;stroke-miterlimit:4;stroke-dasharray:none;stroke-opacity:1;filter:url(#filter5098)"
                 inkscape:connector-curvature="0" />
              <path
                 inkscape:connector-curvature="0"
                 id="path4125"
                 d="M 153.4668,270.5332 150.92773,272 h 3.38672 z M 156,274.91992 V 276 c 0,1.54432 -0.87513,2.86414 -2.15039,3.53125 0.0508,-0.0265 0.10421,-0.0414 0.1543,-0.0703 l 3.46289,-2 z m -7.97461,1.32813 c 0.008,0.12569 0.017,0.2496 0.0371,0.375 -0.0192,-0.12291 -0.0293,-0.24858 -0.0371,-0.375 z m 0.14258,0.84765 c 0.0247,0.0854 0.0495,0.16951 0.0801,0.25391 -0.0298,-0.0832 -0.0557,-0.16822 -0.0801,-0.25391 z m 0.32226,0.79102 c 0.0192,0.0357 0.0284,0.074 0.0488,0.10937 0.0119,0.0206 0.0288,0.0363 0.041,0.0566 -0.0323,-0.0538 -0.0601,-0.11054 -0.0899,-0.16601 z m 0.44141,0.65625 c 0.0449,0.0544 0.0875,0.1106 0.13477,0.16211 -0.0477,-0.0518 -0.0898,-0.10788 -0.13477,-0.16211 z m 0.52148,0.52148 c 0.0671,0.0559 0.131,0.11494 0.20118,0.16602 -0.0707,-0.0513 -0.13415,-0.11032 -0.20118,-0.16602 z m 0.63672,0.4336 c 0.0749,0.041 0.14747,0.0851 0.22461,0.12109 -0.0775,-0.036 -0.14993,-0.0804 -0.22461,-0.12109 z m 3.28321,0.24804 c -0.0974,0.0356 -0.19799,0.0638 -0.29883,0.0918 0.10034,-0.0282 0.19982,-0.0554 0.29883,-0.0918 z m -2.60547,0.043 c 0.0965,0.0314 0.1905,0.0658 0.28906,0.0899 -0.099,-0.0239 -0.19313,-0.0588 -0.28906,-0.0899 z m 1.86914,0.14844 c -0.1279,0.0204 -0.2589,0.031 -0.39063,0.0391 0.13064,-0.008 0.26031,-0.0179 0.39063,-0.0391 z m -1.16992,0.01 c 0.13137,0.0178 0.26154,0.0344 0.39453,0.0391 -0.13399,-0.005 -0.26428,-0.0217 -0.39453,-0.0391 z"
                 style="fill:#9c27b0;fill-opacity:1" />
              <path
                 style="fill:#ce93d8;fill-opacity:1;stroke:none"
                 d="m 174.2522,258.53241 c 2.55364,1.58626 4.59388,3.47675 4,6.9282 l -6.9282,4 c -2.97343,-1.51973 -4.20792,-3.87672 -4,-6.9282 z"
                 id="rect4127"
                 inkscape:connector-curvature="0"
                 sodipodi:nodetypes="ccccc" />
              <path
                 style="fill:#ba68c8;fill-opacity:1;stroke:none"
                 d="m 167.324,262.53241 4,6.9282 -6.92821,4 c -5.62676,0.26666 -4.89593,-3.28125 -4,-6.9282 z"
                 id="rect4129"
                 inkscape:connector-curvature="0"
                 sodipodi:nodetypes="ccccc" />
              <path
                 inkscape:connector-curvature="0"
                 id="rect4131"
                 d="m 160.39579,266.5324 4,6.92821 -6.9282,4 -4,-6.92821 z"
                 style="fill:#ab47bc;fill-opacity:1" />
              <path
                 inkscape:connector-curvature="0"
                 id="rect4133"
                 d="m 181.1804,254.5324 4,6.92821 -6.9282,4 -4,-6.92821 z"
                 style="fill:#e1bee7;fill-opacity:1" />
              <path
                 inkscape:connector-curvature="0"
                 style="opacity:0.2;fill:#000000;fill-opacity:1;stroke:none;stroke-width:2;stroke-linejoin:round;stroke-miterlimit:4;stroke-dasharray:none;stroke-opacity:1;filter:url(#filter5098)"
                 d="m 408,32 v 136 8 c 0,8.864 7.136,16 16,16 8.864,0 16,-7.136 16,-16 V 168 32 Z"
                 transform="matrix(0.21650635,0.125,-0.125,0.21650635,82.213713,184.87901)"
                 id="path5118"
                 clip-path="url(#clipPath5086)" />
              <path
                 inkscape:connector-curvature="0"
                 id="path4137"
                 d="M 150.53906,270.5332 149.69141,272 h 3.38867 z M 156,273.68555 V 276 c 0,0.76903 -0.22641,1.47942 -0.59961,2.08789 0.0201,-0.0327 0.0471,-0.0583 0.0664,-0.0918 l 2,-3.46289 z m -7.98633,2.45312 c 0.005,0.13299 0.0212,0.26316 0.0391,0.39453 -0.0174,-0.13025 -0.0344,-0.26054 -0.0391,-0.39453 z m 0.10742,0.80469 c 0.024,0.0986 0.0584,0.19259 0.0898,0.28906 -0.031,-0.0959 -0.066,-0.19006 -0.0898,-0.28906 z m 0.25977,0.74219 c 0.036,0.0771 0.0801,0.14972 0.12109,0.22461 -0.0407,-0.0747 -0.0851,-0.14711 -0.12109,-0.22461 z m 0.38867,0.66015 c 0.0511,0.0702 0.11009,0.13408 0.16602,0.20118 -0.0557,-0.067 -0.11474,-0.13053 -0.16602,-0.20118 z m 6.35352,0.13086 c -0.07,0.0883 -0.13773,0.1778 -0.21485,0.25977 0.0765,-0.0814 0.14454,-0.17101 0.21485,-0.25977 z m -5.82813,0.45703 c 0.0515,0.0473 0.10773,0.0899 0.16211,0.13477 -0.0542,-0.0449 -0.11036,-0.0871 -0.16211,-0.13477 z m 5.31055,0.082 c -0.0905,0.0781 -0.17809,0.15865 -0.27539,0.22852 0.0966,-0.0693 0.18466,-0.15008 0.27539,-0.22852 z m -4.6582,0.4043 c 0.0203,0.0122 0.036,0.0291 0.0566,0.041 0.0354,0.0204 0.0737,0.0296 0.10937,0.0488 -0.0555,-0.0298 -0.11217,-0.0576 -0.16601,-0.0899 z m 4.02539,0.043 c -0.10043,0.0571 -0.19901,0.11756 -0.30469,0.16602 0.10531,-0.0483 0.20358,-0.10853 0.30469,-0.16602 z m -3.32227,0.28906 c 0.0844,0.0306 0.16853,0.0554 0.25391,0.0801 -0.0857,-0.0243 -0.17071,-0.0503 -0.25391,-0.0801 z m 2.61914,0.0254 c -0.11033,0.0369 -0.21953,0.0762 -0.33398,0.10352 0.11377,-0.0273 0.223,-0.0663 0.33398,-0.10352 z m -1.89258,0.16016 c 0.1254,0.0201 0.24931,0.0291 0.375,0.0371 -0.12642,-0.008 -0.25209,-0.0179 -0.375,-0.0371 z m 1.17188,0.008 c -0.13526,0.0186 -0.27085,0.0362 -0.41016,0.041 0.13841,-0.005 0.27351,-0.0221 0.41016,-0.041 z"
                 style="fill:#d50000;fill-opacity:1" />
              <path
                 style="fill:#ff8a80;fill-opacity:1;stroke:none"
                 d="m 162.53939,249.7478 c 4.71591,-2.6046 5.78344,0.76088 6.9282,4 l -4,6.9282 c -3.67553,1.2382 -10.63748,8.66262 -6.9282,-4 z"
                 id="rect4139"
                 inkscape:connector-curvature="0"
                 sodipodi:nodetypes="ccccc" />
              <path
                 style="fill:#ff5252;fill-opacity:1;stroke:none"
                 d="m 158.53939,256.676 6.9282,4 -4,6.9282 c -3.60029,0.63698 -6.47291,0.16329 -6.9282,-4 z"
                 id="rect4141"
                 inkscape:connector-curvature="0"
                 sodipodi:nodetypes="ccccc" />
              <path
                 style="fill:#ff1744;fill-opacity:1;stroke:none"
                 d="m 154.53939,263.6042 6.9282,4 -4,6.92821 -6.9282,-4 z"
                 id="rect4143"
                 inkscape:connector-curvature="0" />
              <path
                 inkscape:connector-curvature="0"
                 id="rect4145"
                 d="m 166.53937,242.81959 6.9282,4 -4,6.92821 -6.9282,-4 z"
                 style="fill:#ffc9c4;fill-opacity:1" />
              <path
                 clip-path="url(#clipPath5086)"
                 id="path5116"
                 transform="matrix(0.25,0,0,0.25,46.000016,232)"
                 d="m 408,32 v 136 8 c 0,8.864 7.136,16 16,16 8.864,0 16,-7.136 16,-16 V 168 32 Z"
                 style="opacity:0.2;fill:#000000;fill-opacity:1;stroke:none;stroke-width:2;stroke-linejoin:round;stroke-miterlimit:4;stroke-dasharray:none;stroke-opacity:1;filter:url(#filter5098)"
                 inkscape:connector-curvature="0" />
              <path
                 sodipodi:nodetypes="cssscc"
                 inkscape:connector-curvature="0"
                 id="rect3262"
                 d="m 148,272 v 4 c 0,2.216 1.784,4 4,4 2.216,0 4,-1.784 4,-4 v -4 z"
                 style="fill:#ff9800;fill-opacity:1" />
              <path
                 inkscape:connector-curvature="0"
                 id="rect4046"
                 d="m 148,248 h 8 v 8 h -8 z"
                 style="fill:#ffcc80;fill-opacity:1" />
              <path
                 sodipodi:nodetypes="ccccc"
                 inkscape:connector-curvature="0"
                 id="rect4048"
                 d="m 148,256 h 8 v 8 c -2.88163,2.57953 -5.58904,3.06845 -8,0 z"
                 style="fill:#ffb74d;fill-opacity:1" />
              <path
                 inkscape:connector-curvature="0"
                 id="rect4050"
                 d="m 148,264 h 8 v 8 h -8 z"
                 style="fill:#ffa726;fill-opacity:1" />
              <path
                 inkscape:connector-curvature="0"
                 id="rect4052"
                 d="m 148,240 h 8 v 8 h -8 z"
                 style="fill:#ffe0b2;fill-opacity:1" />
              <path
                 inkscape:connector-curvature="0"
                 style="opacity:0.2;fill:#000000;fill-opacity:1;filter:url(#filter5052)"
                 d="m 154,277 a 2,2 0 0 1 -2,2 2,2 0 0 1 -2,-2 2,2 0 0 1 2,-2 2,2 0 0 1 2,2 z"
                 id="path5030" />
              <path
                 inkscape:connector-curvature="0"
                 id="path4044"
                 d="m 154,276 a 2,2 0 0 1 -2,2 2,2 0 0 1 -2,-2 2,2 0 0 1 2,-2 2,2 0 0 1 2,2 z"
                 style="opacity:1;fill:#ffffff;fill-opacity:1" />
              <path
                 inkscape:connector-curvature="0"
                 id="path4778"
                 d="m 148,240 v 1 h 8 v -1 z m 18.53906,2.82031 -4,6.92774 -4,6.92773 L 156,261.07422 v 1 l 2.53906,-4.39844 4,-6.92773 4,-6.92774 6.49414,3.75 0.4336,-0.75 z m 14.64063,11.71289 -6.92774,4 -6.92773,4 -3.5293,2.03711 -0.86523,1.5 4.39453,-2.53711 6.92773,-4 6.92774,-4 3.5664,6.17774 0.4336,-0.25 z M 168.6582,272 l -1.73242,1 H 172 h 8 8 v -1 h -8 -8 z"
                 style="opacity:0.1;fill:#ffffff;fill-opacity:1" />
            </g>
          </g>
        </g>
      </g>
    </g>
  </g>
</svg>
